  0
SECTION
  2
HEADER
  9
$ACADVER
  1
AC1009
  9
$EXTMAX
 10
109.516334533691
 20
42.968334197998
 30
0.0
  9
$EXTMIN
 10
2.6670000553131
 20
1.777999997139
 30
0.0
  9
$INSUNITS
 70
     4
  9
$LUNITS
 70
     2
  9
$LUPREC
 70
     4
  9
$MEASUREMENT
 70
     1
  0
ENDSEC
  0
SECTION
  2
TABLES
  0
TABLE
  2
LAYER
 70
     1
  0
LAYER
  2
0
 70
     0
 62
     7
  6
Continuous
  0
LAYER
  2
Default
 70
     0
 62
    70
  6
Continuous
  0
ENDTAB
  0
TABLE
  2
APPID
 70
     1
  0
APPID
  2
ACAD
 70
     0
  0
ENDTAB
  0
ENDSEC
  0
SECTION
  2
ENTITIES
  0
POLYLINE
  8
Default
 66
     1
 10
0.0
 20
0.0
 30
0.0
 70
     0
  0
VERTEX
  8
Default
 10
25.611667
 20
42.968333
 42
0.0
  0
VERTEX
  8
Default
 10
25.611667
 20
42.968333
 42
0.0
  0
VERTEX
  8
Default
 10
25.188333
 20
42.799
 42
0.0
  0
VERTEX
  8
Default
 10
24.934333
 20
42.587333
 42
0.0
  0
VERTEX
  8
Default
 10
24.680333
 20
42.291
 42
0.0
  0
VERTEX
  8
Default
 10
24.553333
 20
41.825333
 42
0.0
  0
VERTEX
  8
Default
 10
24.595667
 20
41.402
 42
0.0
  0
VERTEX
  8
Default
 10
24.765
 20
41.021
 42
0.0
  0
VERTEX
  8
Default
 10
25.103667
 20
40.682333
 42
0.0
  0
VERTEX
  8
Default
 10
25.484667
 20
40.513
 42
0.0
  0
VERTEX
  8
Default
 10
26.119667
 20
40.513
 42
0.0
  0
VERTEX
  8
Default
 10
26.500667
 20
40.682333
 42
0.0
  0
VERTEX
  8
Default
 10
26.839333
 20
41.021
 42
0.0
  0
VERTEX
  8
Default
 10
27.008667
 20
41.402
 42
0.0
  0
VERTEX
  8
Default
 10
27.008667
 20
42.037
 42
0.0
  0
VERTEX
  8
Default
 10
26.839333
 20
42.418
 42
0.0
  0
VERTEX
  8
Default
 10
26.500667
 20
42.756667
 42
0.0
  0
VERTEX
  8
Default
 10
26.119667
 20
42.926
 42
0.0
  0
VERTEX
  8
Default
 10
25.611667
 20
42.968333
 42
0.0
  0
SEQEND
  0
POLYLINE
  8
Default
 66
     1
 10
0.0
 20
0.0
 30
0.0
 70
     0
  0
VERTEX
  8
Default
 10
33.231667
 20
42.968333
 42
0.0
  0
VERTEX
  8
Default
 10
33.231667
 20
42.968333
 42
0.0
  0
VERTEX
  8
Default
 10
32.808333
 20
42.799
 42
0.0
  0
VERTEX
  8
Default
 10
32.554333
 20
42.587333
 42
0.0
  0
VERTEX
  8
Default
 10
32.300333
 20
42.291
 42
0.0
  0
VERTEX
  8
Default
 10
32.173333
 20
41.825333
 42
0.0
  0
VERTEX
  8
Default
 10
32.215667
 20
41.402
 42
0.0
  0
VERTEX
  8
Default
 10
32.385
 20
41.021
 42
0.0
  0
VERTEX
  8
Default
 10
32.723667
 20
40.682333
 42
0.0
  0
VERTEX
  8
Default
 10
33.104667
 20
40.513
 42
0.0
  0
VERTEX
  8
Default
 10
33.739667
 20
40.513
 42
0.0
  0
VERTEX
  8
Default
 10
34.120667
 20
40.682333
 42
0.0
  0
VERTEX
  8
Default
 10
34.459333
 20
41.021
 42
0.0
  0
VERTEX
  8
Default
 10
34.628667
 20
41.402
 42
0.0
  0
VERTEX
  8
Default
 10
34.628667
 20
42.037
 42
0.0
  0
VERTEX
  8
Default
 10
34.459333
 20
42.418
 42
0.0
  0
VERTEX
  8
Default
 10
34.120667
 20
42.756667
 42
0.0
  0
VERTEX
  8
Default
 10
33.739667
 20
42.926
 42
0.0
  0
VERTEX
  8
Default
 10
33.231667
 20
42.968333
 42
0.0
  0
SEQEND
  0
POLYLINE
  8
Default
 66
     1
 10
0.0
 20
0.0
 30
0.0
 70
     0
  0
VERTEX
  8
Default
 10
10.329333
 20
41.994667
 42
0.0
  0
VERTEX
  8
Default
 10
10.329333
 20
41.994667
 42
0.0
  0
VERTEX
  8
Default
 10
10.033
 20
41.867667
 42
0.0
  0
VERTEX
  8
Default
 10
9.694333
 20
41.656
 42
0.0
  0
VERTEX
  8
Default
 10
9.440333
 20
41.275
 42
0.0
  0
VERTEX
  8
Default
 10
9.355667
 20
40.936333
 42
0.0
  0
VERTEX
  8
Default
 10
9.398
 20
40.513
 42
0.0
  0
VERTEX
  8
Default
 10
9.609667
 20
40.089667
 42
0.0
  0
VERTEX
  8
Default
 10
9.863667
 20
39.878
 42
0.0
  0
VERTEX
  8
Default
 10
10.202333
 20
39.708667
 42
0.0
  0
VERTEX
  8
Default
 10
10.837333
 20
39.708667
 42
0.0
  0
VERTEX
  8
Default
 10
11.176
 20
39.878
 42
0.0
  0
VERTEX
  8
Default
 10
11.43
 20
40.089667
 42
0.0
  0
VERTEX
  8
Default
 10
11.641667
 20
40.513
 42
0.0
  0
VERTEX
  8
Default
 10
11.641667
 20
41.148
 42
0.0
  0
VERTEX
  8
Default
 10
11.43
 20
41.571333
 42
0.0
  0
VERTEX
  8
Default
 10
11.176
 20
41.783
 42
0.0
  0
VERTEX
  8
Default
 10
10.837333
 20
41.952333
 42
0.0
  0
VERTEX
  8
Default
 10
10.329333
 20
41.994667
 42
0.0
  0
SEQEND
  0
POLYLINE
  8
Default
 66
     1
 10
0.0
 20
0.0
 30
0.0
 70
     0
  0
VERTEX
  8
Default
 10
20.447
 20
41.698333
 42
0.0
  0
VERTEX
  8
Default
 10
20.447
 20
41.698333
 42
0.0
  0
VERTEX
  8
Default
 10
20.447
 20
39.581667
 42
0.0
  0
VERTEX
  8
Default
 10
22.563667
 20
39.581667
 42
0.0
  0
VERTEX
  8
Default
 10
22.563667
 20
41.698333
 42
0.0
  0
VERTEX
  8
Default
 10
20.447
 20
41.698333
 42
0.0
  0
SEQEND
  0
POLYLINE
  8
Default
 66
     1
 10
0.0
 20
0.0
 30
0.0
 70
     0
  0
VERTEX
  8
Default
 10
88.603667
 20
40.174333
 42
0.0
  0
VERTEX
  8
Default
 10
88.603667
 20
40.174333
 42
0.0
  0
VERTEX
  8
Default
 10
88.349667
 20
40.089667
 42
0.0
  0
VERTEX
  8
Default
 10
87.841667
 20
39.581667
 42
0.0
  0
VERTEX
  8
Default
 10
87.757
 20
39.243
 42
0.0
  0
VERTEX
  8
Default
 10
87.757
 20
39.031333
 42
0.0
  0
VERTEX
  8
Default
 10
87.841667
 20
38.692667
 42
0.0
  0
VERTEX
  8
Default
 10
88.349667
 20
38.184667
 42
0.0
  0
VERTEX
  8
Default
 10
88.688333
 20
38.1
 42
0.0
  0
VERTEX
  8
Default
 10
88.9
 20
38.1
 42
0.0
  0
VERTEX
  8
Default
 10
89.238667
 20
38.184667
 42
0.0
  0
VERTEX
  8
Default
 10
89.746667
 20
38.692667
 42
0.0
  0
VERTEX
  8
Default
 10
89.831333
 20
39.031333
 42
0.0
  0
VERTEX
  8
Default
 10
89.831333
 20
39.243
 42
0.0
  0
VERTEX
  8
Default
 10
89.746667
 20
39.581667
 42
0.0
  0
VERTEX
  8
Default
 10
89.238667
 20
40.089667
 42
0.0
  0
VERTEX
  8
Default
 10
88.9
 20
40.174333
 42
0.0
  0
VERTEX
  8
Default
 10
88.603667
 20
40.174333
 42
0.0
  0
SEQEND
  0
POLYLINE
  8
Default
 66
     1
 10
0.0
 20
0.0
 30
0.0
 70
     0
  0
VERTEX
  8
Default
 10
9.313333
 20
39.497
 42
0.0
  0
VERTEX
  8
Default
 10
9.313333
 20
39.497
 42
0.0
  0
VERTEX
  8
Default
 10
9.313333
 20
37.126333
 42
0.0
  0
VERTEX
  8
Default
 10
11.684
 20
37.126333
 42
0.0
  0
VERTEX
  8
Default
 10
11.684
 20
39.497
 42
0.0
  0
VERTEX
  8
Default
 10
9.313333
 20
39.497
 42
0.0
  0
SEQEND
  0
POLYLINE
  8
Default
 66
     1
 10
0.0
 20
0.0
 30
0.0
 70
     0
  0
VERTEX
  8
Default
 10
103.716667
 20
39.37
 42
0.0
  0
VERTEX
  8
Default
 10
103.716667
 20
39.37
 42
0.0
  0
VERTEX
  8
Default
 10
103.462667
 20
39.285333
 42
0.0
  0
VERTEX
  8
Default
 10
102.954667
 20
38.777333
 42
0.0
  0
VERTEX
  8
Default
 10
102.87
 20
38.438667
 42
0.0
  0
VERTEX
  8
Default
 10
102.87
 20
38.227
 42
0.0
  0
VERTEX
  8
Default
 10
102.954667
 20
37.888333
 42
0.0
  0
VERTEX
  8
Default
 10
103.462667
 20
37.380333
 42
0.0
  0
VERTEX
  8
Default
 10
103.801333
 20
37.295667
 42
0.0
  0
VERTEX
  8
Default
 10
104.013
 20
37.295667
 42
0.0
  0
VERTEX
  8
Default
 10
104.351667
 20
37.380333
 42
0.0
  0
VERTEX
  8
Default
 10
104.859667
 20
37.888333
 42
0.0
  0
VERTEX
  8
Default
 10
104.944333
 20
38.227
 42
0.0
  0
VERTEX
  8
Default
 10
104.944333
 20
38.438667
 42
0.0
  0
VERTEX
  8
Default
 10
104.859667
 20
38.777333
 42
0.0
  0
VERTEX
  8
Default
 10
104.351667
 20
39.285333
 42
0.0
  0
VERTEX
  8
Default
 10
104.013
 20
39.37
 42
0.0
  0
VERTEX
  8
Default
 10
103.716667
 20
39.37
 42
0.0
  0
SEQEND
  0
POLYLINE
  8
Default
 66
     1
 10
0.0
 20
0.0
 30
0.0
 70
     0
  0
VERTEX
  8
Default
 10
21.336
 20
39.158333
 42
0.0
  0
VERTEX
  8
Default
 10
21.336
 20
39.158333
 42
0.0
  0
VERTEX
  8
Default
 10
21.082
 20
39.073667
 42
0.0
  0
VERTEX
  8
Default
 10
20.574
 20
38.565667
 42
0.0
  0
VERTEX
  8
Default
 10
20.489333
 20
38.227
 42
0.0
  0
VERTEX
  8
Default
 10
20.489333
 20
38.015333
 42
0.0
  0
VERTEX
  8
Default
 10
20.574
 20
37.676667
 42
0.0
  0
VERTEX
  8
Default
 10
21.082
 20
37.168667
 42
0.0
  0
VERTEX
  8
Default
 10
21.420667
 20
37.084
 42
0.0
  0
VERTEX
  8
Default
 10
21.632333
 20
37.084
 42
0.0
  0
VERTEX
  8
Default
 10
21.971
 20
37.168667
 42
0.0
  0
VERTEX
  8
Default
 10
22.479
 20
37.676667
 42
0.0
  0
VERTEX
  8
Default
 10
22.563667
 20
38.015333
 42
0.0
  0
VERTEX
  8
Default
 10
22.563667
 20
38.227
 42
0.0
  0
VERTEX
  8
Default
 10
22.479
 20
38.565667
 42
0.0
  0
VERTEX
  8
Default
 10
21.971
 20
39.073667
 42
0.0
  0
VERTEX
  8
Default
 10
21.632333
 20
39.158333
 42
0.0
  0
VERTEX
  8
Default
 10
21.336
 20
39.158333
 42
0.0
  0
SEQEND
  0
POLYLINE
  8
Default
 66
     1
 10
0.0
 20
0.0
 30
0.0
 70
     0
  0
VERTEX
  8
Default
 10
83.058
 20
38.438667
 42
0.0
  0
VERTEX
  8
Default
 10
83.058
 20
38.438667
 42
0.0
  0
VERTEX
  8
Default
 10
83.058
 20
36.322
 42
0.0
  0
VERTEX
  8
Default
 10
85.174667
 20
36.322
 42
0.0
  0
VERTEX
  8
Default
 10
85.174667
 20
38.438667
 42
0.0
  0
VERTEX
  8
Default
 10
83.058
 20
38.438667
 42
0.0
  0
SEQEND
  0
POLYLINE
  8
Default
 66
     1
 10
0.0
 20
0.0
 30
0.0
 70
     0
  0
VERTEX
  8
Default
 10
68.664667
 20
38.396333
 42
0.0
  0
VERTEX
  8
Default
 10
68.664667
 20
38.396333
 42
0.0
  0
VERTEX
  8
Default
 10
68.410667
 20
38.311667
 42
0.0
  0
VERTEX
  8
Default
 10
67.902667
 20
37.803667
 42
0.0
  0
VERTEX
  8
Default
 10
67.818
 20
37.465
 42
0.0
  0
VERTEX
  8
Default
 10
67.818
 20
37.253333
 42
0.0
  0
VERTEX
  8
Default
 10
67.902667
 20
36.914667
 42
0.0
  0
VERTEX
  8
Default
 10
68.410667
 20
36.406667
 42
0.0
  0
VERTEX
  8
Default
 10
68.749333
 20
36.322
 42
0.0
  0
VERTEX
  8
Default
 10
68.961
 20
36.322
 42
0.0
  0
VERTEX
  8
Default
 10
69.299667
 20
36.406667
 42
0.0
  0
VERTEX
  8
Default
 10
69.807667
 20
36.914667
 42
0.0
  0
VERTEX
  8
Default
 10
69.892333
 20
37.253333
 42
0.0
  0
VERTEX
  8
Default
 10
69.892333
 20
37.465
 42
0.0
  0
VERTEX
  8
Default
 10
69.807667
 20
37.803667
 42
0.0
  0
VERTEX
  8
Default
 10
69.299667
 20
38.311667
 42
0.0
  0
VERTEX
  8
Default
 10
68.961
 20
38.396333
 42
0.0
  0
VERTEX
  8
Default
 10
68.664667
 20
38.396333
 42
0.0
  0
SEQEND
  0
POLYLINE
  8
Default
 66
     1
 10
0.0
 20
0.0
 30
0.0
 70
     0
  0
VERTEX
  8
Default
 10
71.204667
 20
38.396333
 42
0.0
  0
VERTEX
  8
Default
 10
71.204667
 20
38.396333
 42
0.0
  0
VERTEX
  8
Default
 10
70.950667
 20
38.311667
 42
0.0
  0
VERTEX
  8
Default
 10
70.442667
 20
37.803667
 42
0.0
  0
VERTEX
  8
Default
 10
70.358
 20
37.465
 42
0.0
  0
VERTEX
  8
Default
 10
70.358
 20
37.253333
 42
0.0
  0
VERTEX
  8
Default
 10
70.442667
 20
36.914667
 42
0.0
  0
VERTEX
  8
Default
 10
70.950667
 20
36.406667
 42
0.0
  0
VERTEX
  8
Default
 10
71.289333
 20
36.322
 42
0.0
  0
VERTEX
  8
Default
 10
71.501
 20
36.322
 42
0.0
  0
VERTEX
  8
Default
 10
71.839667
 20
36.406667
 42
0.0
  0
VERTEX
  8
Default
 10
72.347667
 20
36.914667
 42
0.0
  0
VERTEX
  8
Default
 10
72.432333
 20
37.253333
 42
0.0
  0
VERTEX
  8
Default
 10
72.432333
 20
37.465
 42
0.0
  0
VERTEX
  8
Default
 10
72.347667
 20
37.803667
 42
0.0
  0
VERTEX
  8
Default
 10
71.839667
 20
38.311667
 42
0.0
  0
VERTEX
  8
Default
 10
71.501
 20
38.396333
 42
0.0
  0
VERTEX
  8
Default
 10
71.204667
 20
38.396333
 42
0.0
  0
SEQEND
  0
POLYLINE
  8
Default
 66
     1
 10
0.0
 20
0.0
 30
0.0
 70
     0
  0
VERTEX
  8
Default
 10
73.744667
 20
38.396333
 42
0.0
  0
VERTEX
  8
Default
 10
73.744667
 20
38.396333
 42
0.0
  0
VERTEX
  8
Default
 10
73.490667
 20
38.311667
 42
0.0
  0
VERTEX
  8
Default
 10
72.982667
 20
37.803667
 42
0.0
  0
VERTEX
  8
Default
 10
72.898
 20
37.465
 42
0.0
  0
VERTEX
  8
Default
 10
72.898
 20
37.253333
 42
0.0
  0
VERTEX
  8
Default
 10
72.982667
 20
36.914667
 42
0.0
  0
VERTEX
  8
Default
 10
73.490667
 20
36.406667
 42
0.0
  0
VERTEX
  8
Default
 10
73.829333
 20
36.322
 42
0.0
  0
VERTEX
  8
Default
 10
74.041
 20
36.322
 42
0.0
  0
VERTEX
  8
Default
 10
74.379667
 20
36.406667
 42
0.0
  0
VERTEX
  8
Default
 10
74.887667
 20
36.914667
 42
0.0
  0
VERTEX
  8
Default
 10
74.972333
 20
37.253333
 42
0.0
  0
VERTEX
  8
Default
 10
74.972333
 20
37.465
 42
0.0
  0
VERTEX
  8
Default
 10
74.887667
 20
37.803667
 42
0.0
  0
VERTEX
  8
Default
 10
74.379667
 20
38.311667
 42
0.0
  0
VERTEX
  8
Default
 10
74.041
 20
38.396333
 42
0.0
  0
VERTEX
  8
Default
 10
73.744667
 20
38.396333
 42
0.0
  0
SEQEND
  0
POLYLINE
  8
Default
 66
     1
 10
0.0
 20
0.0
 30
0.0
 70
     0
  0
VERTEX
  8
Default
 10
76.284667
 20
38.396333
 42
0.0
  0
VERTEX
  8
Default
 10
76.284667
 20
38.396333
 42
0.0
  0
VERTEX
  8
Default
 10
76.030667
 20
38.311667
 42
0.0
  0
VERTEX
  8
Default
 10
75.522667
 20
37.803667
 42
0.0
  0
VERTEX
  8
Default
 10
75.438
 20
37.465
 42
0.0
  0
VERTEX
  8
Default
 10
75.438
 20
37.253333
 42
0.0
  0
VERTEX
  8
Default
 10
75.522667
 20
36.914667
 42
0.0
  0
VERTEX
  8
Default
 10
76.030667
 20
36.406667
 42
0.0
  0
VERTEX
  8
Default
 10
76.369333
 20
36.322
 42
0.0
  0
VERTEX
  8
Default
 10
76.581
 20
36.322
 42
0.0
  0
VERTEX
  8
Default
 10
76.919667
 20
36.406667
 42
0.0
  0
VERTEX
  8
Default
 10
77.427667
 20
36.914667
 42
0.0
  0
VERTEX
  8
Default
 10
77.512333
 20
37.253333
 42
0.0
  0
VERTEX
  8
Default
 10
77.512333
 20
37.465
 42
0.0
  0
VERTEX
  8
Default
 10
77.427667
 20
37.803667
 42
0.0
  0
VERTEX
  8
Default
 10
76.919667
 20
38.311667
 42
0.0
  0
VERTEX
  8
Default
 10
76.581
 20
38.396333
 42
0.0
  0
VERTEX
  8
Default
 10
76.284667
 20
38.396333
 42
0.0
  0
SEQEND
  0
POLYLINE
  8
Default
 66
     1
 10
0.0
 20
0.0
 30
0.0
 70
     0
  0
VERTEX
  8
Default
 10
78.824667
 20
38.396333
 42
0.0
  0
VERTEX
  8
Default
 10
78.824667
 20
38.396333
 42
0.0
  0
VERTEX
  8
Default
 10
78.570667
 20
38.311667
 42
0.0
  0
VERTEX
  8
Default
 10
78.062667
 20
37.803667
 42
0.0
  0
VERTEX
  8
Default
 10
77.978
 20
37.465
 42
0.0
  0
VERTEX
  8
Default
 10
77.978
 20
37.253333
 42
0.0
  0
VERTEX
  8
Default
 10
78.062667
 20
36.914667
 42
0.0
  0
VERTEX
  8
Default
 10
78.570667
 20
36.406667
 42
0.0
  0
VERTEX
  8
Default
 10
78.909333
 20
36.322
 42
0.0
  0
VERTEX
  8
Default
 10
79.121
 20
36.322
 42
0.0
  0
VERTEX
  8
Default
 10
79.459667
 20
36.406667
 42
0.0
  0
VERTEX
  8
Default
 10
79.967667
 20
36.914667
 42
0.0
  0
VERTEX
  8
Default
 10
80.052333
 20
37.253333
 42
0.0
  0
VERTEX
  8
Default
 10
80.052333
 20
37.465
 42
0.0
  0
VERTEX
  8
Default
 10
79.967667
 20
37.803667
 42
0.0
  0
VERTEX
  8
Default
 10
79.459667
 20
38.311667
 42
0.0
  0
VERTEX
  8
Default
 10
79.121
 20
38.396333
 42
0.0
  0
VERTEX
  8
Default
 10
78.824667
 20
38.396333
 42
0.0
  0
SEQEND
  0
POLYLINE
  8
Default
 66
     1
 10
0.0
 20
0.0
 30
0.0
 70
     0
  0
VERTEX
  8
Default
 10
81.364667
 20
38.396333
 42
0.0
  0
VERTEX
  8
Default
 10
81.364667
 20
38.396333
 42
0.0
  0
VERTEX
  8
Default
 10
81.110667
 20
38.311667
 42
0.0
  0
VERTEX
  8
Default
 10
80.602667
 20
37.803667
 42
0.0
  0
VERTEX
  8
Default
 10
80.518
 20
37.465
 42
0.0
  0
VERTEX
  8
Default
 10
80.518
 20
37.253333
 42
0.0
  0
VERTEX
  8
Default
 10
80.602667
 20
36.914667
 42
0.0
  0
VERTEX
  8
Default
 10
81.110667
 20
36.406667
 42
0.0
  0
VERTEX
  8
Default
 10
81.449333
 20
36.322
 42
0.0
  0
VERTEX
  8
Default
 10
81.661
 20
36.322
 42
0.0
  0
VERTEX
  8
Default
 10
81.999667
 20
36.406667
 42
0.0
  0
VERTEX
  8
Default
 10
82.507667
 20
36.914667
 42
0.0
  0
VERTEX
  8
Default
 10
82.592333
 20
37.253333
 42
0.0
  0
VERTEX
  8
Default
 10
82.592333
 20
37.465
 42
0.0
  0
VERTEX
  8
Default
 10
82.507667
 20
37.803667
 42
0.0
  0
VERTEX
  8
Default
 10
81.999667
 20
38.311667
 42
0.0
  0
VERTEX
  8
Default
 10
81.661
 20
38.396333
 42
0.0
  0
VERTEX
  8
Default
 10
81.364667
 20
38.396333
 42
0.0
  0
SEQEND
  0
POLYLINE
  8
Default
 66
     1
 10
0.0
 20
0.0
 30
0.0
 70
     0
  0
VERTEX
  8
Default
 10
97.239667
 20
38.311667
 42
0.0
  0
VERTEX
  8
Default
 10
97.239667
 20
38.311667
 42
0.0
  0
VERTEX
  8
Default
 10
97.239667
 20
35.941
 42
0.0
  0
VERTEX
  8
Default
 10
99.610333
 20
35.941
 42
0.0
  0
VERTEX
  8
Default
 10
99.610333
 20
38.311667
 42
0.0
  0
VERTEX
  8
Default
 10
97.239667
 20
38.311667
 42
0.0
  0
SEQEND
  0
POLYLINE
  8
Default
 66
     1
 10
0.0
 20
0.0
 30
0.0
 70
     0
  0
VERTEX
  8
Default
 10
95.673333
 20
38.269333
 42
0.0
  0
VERTEX
  8
Default
 10
95.673333
 20
38.269333
 42
0.0
  0
VERTEX
  8
Default
 10
95.377
 20
38.142333
 42
0.0
  0
VERTEX
  8
Default
 10
95.038333
 20
37.930667
 42
0.0
  0
VERTEX
  8
Default
 10
94.784333
 20
37.549667
 42
0.0
  0
VERTEX
  8
Default
 10
94.699667
 20
37.211
 42
0.0
  0
VERTEX
  8
Default
 10
94.742
 20
36.787667
 42
0.0
  0
VERTEX
  8
Default
 10
94.953667
 20
36.364333
 42
0.0
  0
VERTEX
  8
Default
 10
95.207667
 20
36.152667
 42
0.0
  0
VERTEX
  8
Default
 10
95.546333
 20
35.983333
 42
0.0
  0
VERTEX
  8
Default
 10
96.181333
 20
35.983333
 42
0.0
  0
VERTEX
  8
Default
 10
96.52
 20
36.152667
 42
0.0
  0
VERTEX
  8
Default
 10
96.774
 20
36.364333
 42
0.0
  0
VERTEX
  8
Default
 10
96.985667
 20
36.787667
 42
0.0
  0
VERTEX
  8
Default
 10
96.985667
 20
37.422667
 42
0.0
  0
VERTEX
  8
Default
 10
96.774
 20
37.846
 42
0.0
  0
VERTEX
  8
Default
 10
96.52
 20
38.057667
 42
0.0
  0
VERTEX
  8
Default
 10
96.181333
 20
38.227
 42
0.0
  0
VERTEX
  8
Default
 10
95.673333
 20
38.269333
 42
0.0
  0
SEQEND
  0
POLYLINE
  8
Default
 66
     1
 10
0.0
 20
0.0
 30
0.0
 70
     0
  0
VERTEX
  8
Default
 10
53.678667
 20
38.015333
 42
0.0
  0
VERTEX
  8
Default
 10
53.678667
 20
38.015333
 42
0.0
  0
VERTEX
  8
Default
 10
53.424667
 20
37.930667
 42
0.0
  0
VERTEX
  8
Default
 10
52.916667
 20
37.422667
 42
0.0
  0
VERTEX
  8
Default
 10
52.832
 20
37.084
 42
0.0
  0
VERTEX
  8
Default
 10
52.832
 20
36.872333
 42
0.0
  0
VERTEX
  8
Default
 10
52.916667
 20
36.533667
 42
0.0
  0
VERTEX
  8
Default
 10
53.424667
 20
36.025667
 42
0.0
  0
VERTEX
  8
Default
 10
53.763333
 20
35.941
 42
0.0
  0
VERTEX
  8
Default
 10
53.975
 20
35.941
 42
0.0
  0
VERTEX
  8
Default
 10
54.313667
 20
36.025667
 42
0.0
  0
VERTEX
  8
Default
 10
54.821667
 20
36.533667
 42
0.0
  0
VERTEX
  8
Default
 10
54.906333
 20
36.872333
 42
0.0
  0
VERTEX
  8
Default
 10
54.906333
 20
37.084
 42
0.0
  0
VERTEX
  8
Default
 10
54.821667
 20
37.422667
 42
0.0
  0
VERTEX
  8
Default
 10
54.313667
 20
37.930667
 42
0.0
  0
VERTEX
  8
Default
 10
53.975
 20
38.015333
 42
0.0
  0
VERTEX
  8
Default
 10
53.678667
 20
38.015333
 42
0.0
  0
SEQEND
  0
POLYLINE
  8
Default
 66
     1
 10
0.0
 20
0.0
 30
0.0
 70
     0
  0
VERTEX
  8
Default
 10
25.611667
 20
37.888333
 42
0.0
  0
VERTEX
  8
Default
 10
25.611667
 20
37.888333
 42
0.0
  0
VERTEX
  8
Default
 10
25.188333
 20
37.719
 42
0.0
  0
VERTEX
  8
Default
 10
24.934333
 20
37.507333
 42
0.0
  0
VERTEX
  8
Default
 10
24.680333
 20
37.211
 42
0.0
  0
VERTEX
  8
Default
 10
24.553333
 20
36.745333
 42
0.0
  0
VERTEX
  8
Default
 10
24.595667
 20
36.322
 42
0.0
  0
VERTEX
  8
Default
 10
24.765
 20
35.941
 42
0.0
  0
VERTEX
  8
Default
 10
25.103667
 20
35.602333
 42
0.0
  0
VERTEX
  8
Default
 10
25.484667
 20
35.433
 42
0.0
  0
VERTEX
  8
Default
 10
26.119667
 20
35.433
 42
0.0
  0
VERTEX
  8
Default
 10
26.500667
 20
35.602333
 42
0.0
  0
VERTEX
  8
Default
 10
26.839333
 20
35.941
 42
0.0
  0
VERTEX
  8
Default
 10
27.008667
 20
36.322
 42
0.0
  0
VERTEX
  8
Default
 10
27.008667
 20
36.957
 42
0.0
  0
VERTEX
  8
Default
 10
26.839333
 20
37.338
 42
0.0
  0
VERTEX
  8
Default
 10
26.500667
 20
37.676667
 42
0.0
  0
VERTEX
  8
Default
 10
26.119667
 20
37.846
 42
0.0
  0
VERTEX
  8
Default
 10
25.611667
 20
37.888333
 42
0.0
  0
SEQEND
  0
POLYLINE
  8
Default
 66
     1
 10
0.0
 20
0.0
 30
0.0
 70
     0
  0
VERTEX
  8
Default
 10
33.231667
 20
37.888333
 42
0.0
  0
VERTEX
  8
Default
 10
33.231667
 20
37.888333
 42
0.0
  0
VERTEX
  8
Default
 10
32.808333
 20
37.719
 42
0.0
  0
VERTEX
  8
Default
 10
32.554333
 20
37.507333
 42
0.0
  0
VERTEX
  8
Default
 10
32.300333
 20
37.211
 42
0.0
  0
VERTEX
  8
Default
 10
32.173333
 20
36.745333
 42
0.0
  0
VERTEX
  8
Default
 10
32.215667
 20
36.322
 42
0.0
  0
VERTEX
  8
Default
 10
32.385
 20
35.941
 42
0.0
  0
VERTEX
  8
Default
 10
32.723667
 20
35.602333
 42
0.0
  0
VERTEX
  8
Default
 10
33.104667
 20
35.433
 42
0.0
  0
VERTEX
  8
Default
 10
33.739667
 20
35.433
 42
0.0
  0
VERTEX
  8
Default
 10
34.120667
 20
35.602333
 42
0.0
  0
VERTEX
  8
Default
 10
34.459333
 20
35.941
 42
0.0
  0
VERTEX
  8
Default
 10
34.628667
 20
36.322
 42
0.0
  0
VERTEX
  8
Default
 10
34.628667
 20
36.957
 42
0.0
  0
VERTEX
  8
Default
 10
34.459333
 20
37.338
 42
0.0
  0
VERTEX
  8
Default
 10
34.120667
 20
37.676667
 42
0.0
  0
VERTEX
  8
Default
 10
33.739667
 20
37.846
 42
0.0
  0
VERTEX
  8
Default
 10
33.231667
 20
37.888333
 42
0.0
  0
SEQEND
  0
POLYLINE
  8
Default
 66
     1
 10
0.0
 20
0.0
 30
0.0
 70
     0
  0
VERTEX
  8
Default
 10
37.592
 20
37.634333
 42
0.0
  0
VERTEX
  8
Default
 10
37.592
 20
37.634333
 42
0.0
  0
VERTEX
  8
Default
 10
37.338
 20
37.549667
 42
0.0
  0
VERTEX
  8
Default
 10
36.83
 20
37.041667
 42
0.0
  0
VERTEX
  8
Default
 10
36.745333
 20
36.703
 42
0.0
  0
VERTEX
  8
Default
 10
36.745333
 20
36.491333
 42
0.0
  0
VERTEX
  8
Default
 10
36.83
 20
36.152667
 42
0.0
  0
VERTEX
  8
Default
 10
37.338
 20
35.644667
 42
0.0
  0
VERTEX
  8
Default
 10
37.676667
 20
35.56
 42
0.0
  0
VERTEX
  8
Default
 10
37.888333
 20
35.56
 42
0.0
  0
VERTEX
  8
Default
 10
38.227
 20
35.644667
 42
0.0
  0
VERTEX
  8
Default
 10
38.735
 20
36.152667
 42
0.0
  0
VERTEX
  8
Default
 10
38.819667
 20
36.491333
 42
0.0
  0
VERTEX
  8
Default
 10
38.819667
 20
36.703
 42
0.0
  0
VERTEX
  8
Default
 10
38.735
 20
37.041667
 42
0.0
  0
VERTEX
  8
Default
 10
38.227
 20
37.549667
 42
0.0
  0
VERTEX
  8
Default
 10
37.888333
 20
37.634333
 42
0.0
  0
VERTEX
  8
Default
 10
37.592
 20
37.634333
 42
0.0
  0
SEQEND
  0
POLYLINE
  8
Default
 66
     1
 10
0.0
 20
0.0
 30
0.0
 70
     0
  0
VERTEX
  8
Default
 10
87.714667
 20
37.634333
 42
0.0
  0
VERTEX
  8
Default
 10
87.714667
 20
37.634333
 42
0.0
  0
VERTEX
  8
Default
 10
87.714667
 20
35.517667
 42
0.0
  0
VERTEX
  8
Default
 10
89.831333
 20
35.517667
 42
0.0
  0
VERTEX
  8
Default
 10
89.831333
 20
37.634333
 42
0.0
  0
VERTEX
  8
Default
 10
87.714667
 20
37.634333
 42
0.0
  0
SEQEND
  0
POLYLINE
  8
Default
 66
     1
 10
0.0
 20
0.0
 30
0.0
 70
     0
  0
VERTEX
  8
Default
 10
21.336
 20
36.618333
 42
0.0
  0
VERTEX
  8
Default
 10
21.336
 20
36.618333
 42
0.0
  0
VERTEX
  8
Default
 10
21.082
 20
36.533667
 42
0.0
  0
VERTEX
  8
Default
 10
20.574
 20
36.025667
 42
0.0
  0
VERTEX
  8
Default
 10
20.489333
 20
35.687
 42
0.0
  0
VERTEX
  8
Default
 10
20.489333
 20
35.475333
 42
0.0
  0
VERTEX
  8
Default
 10
20.574
 20
35.136667
 42
0.0
  0
VERTEX
  8
Default
 10
21.082
 20
34.628667
 42
0.0
  0
VERTEX
  8
Default
 10
21.420667
 20
34.544
 42
0.0
  0
VERTEX
  8
Default
 10
21.632333
 20
34.544
 42
0.0
  0
VERTEX
  8
Default
 10
21.971
 20
34.628667
 42
0.0
  0
VERTEX
  8
Default
 10
22.479
 20
35.136667
 42
0.0
  0
VERTEX
  8
Default
 10
22.563667
 20
35.475333
 42
0.0
  0
VERTEX
  8
Default
 10
22.563667
 20
35.687
 42
0.0
  0
VERTEX
  8
Default
 10
22.479
 20
36.025667
 42
0.0
  0
VERTEX
  8
Default
 10
21.971
 20
36.533667
 42
0.0
  0
VERTEX
  8
Default
 10
21.632333
 20
36.618333
 42
0.0
  0
VERTEX
  8
Default
 10
21.336
 20
36.618333
 42
0.0
  0
SEQEND
  0
POLYLINE
  8
Default
 66
     1
 10
0.0
 20
0.0
 30
0.0
 70
     0
  0
VERTEX
  8
Default
 10
58.293
 20
35.729333
 42
0.0
  0
VERTEX
  8
Default
 10
58.293
 20
35.729333
 42
0.0
  0
VERTEX
  8
Default
 10
58.039
 20
35.644667
 42
0.0
  0
VERTEX
  8
Default
 10
57.531
 20
35.136667
 42
0.0
  0
VERTEX
  8
Default
 10
57.446333
 20
34.798
 42
0.0
  0
VERTEX
  8
Default
 10
57.446333
 20
34.586333
 42
0.0
  0
VERTEX
  8
Default
 10
57.531
 20
34.247667
 42
0.0
  0
VERTEX
  8
Default
 10
58.039
 20
33.739667
 42
0.0
  0
VERTEX
  8
Default
 10
58.377667
 20
33.655
 42
0.0
  0
VERTEX
  8
Default
 10
58.589333
 20
33.655
 42
0.0
  0
VERTEX
  8
Default
 10
58.928
 20
33.739667
 42
0.0
  0
VERTEX
  8
Default
 10
59.436
 20
34.247667
 42
0.0
  0
VERTEX
  8
Default
 10
59.520667
 20
34.586333
 42
0.0
  0
VERTEX
  8
Default
 10
59.520667
 20
34.798
 42
0.0
  0
VERTEX
  8
Default
 10
59.436
 20
35.136667
 42
0.0
  0
VERTEX
  8
Default
 10
58.928
 20
35.644667
 42
0.0
  0
VERTEX
  8
Default
 10
58.589333
 20
35.729333
 42
0.0
  0
VERTEX
  8
Default
 10
58.293
 20
35.729333
 42
0.0
  0
SEQEND
  0
POLYLINE
  8
Default
 66
     1
 10
0.0
 20
0.0
 30
0.0
 70
     0
  0
VERTEX
  8
Default
 10
59.986333
 20
35.729333
 42
0.0
  0
VERTEX
  8
Default
 10
59.986333
 20
35.729333
 42
0.0
  0
VERTEX
  8
Default
 10
59.986333
 20
33.612667
 42
0.0
  0
VERTEX
  8
Default
 10
62.103
 20
33.612667
 42
0.0
  0
VERTEX
  8
Default
 10
62.103
 20
35.729333
 42
0.0
  0
VERTEX
  8
Default
 10
59.986333
 20
35.729333
 42
0.0
  0
SEQEND
  0
POLYLINE
  8
Default
 66
     1
 10
0.0
 20
0.0
 30
0.0
 70
     0
  0
VERTEX
  8
Default
 10
37.592
 20
35.094333
 42
0.0
  0
VERTEX
  8
Default
 10
37.592
 20
35.094333
 42
0.0
  0
VERTEX
  8
Default
 10
37.338
 20
35.009667
 42
0.0
  0
VERTEX
  8
Default
 10
36.83
 20
34.501667
 42
0.0
  0
VERTEX
  8
Default
 10
36.745333
 20
34.163
 42
0.0
  0
VERTEX
  8
Default
 10
36.745333
 20
33.951333
 42
0.0
  0
VERTEX
  8
Default
 10
36.83
 20
33.612667
 42
0.0
  0
VERTEX
  8
Default
 10
37.338
 20
33.104667
 42
0.0
  0
VERTEX
  8
Default
 10
37.676667
 20
33.02
 42
0.0
  0
VERTEX
  8
Default
 10
37.888333
 20
33.02
 42
0.0
  0
VERTEX
  8
Default
 10
38.227
 20
33.104667
 42
0.0
  0
VERTEX
  8
Default
 10
38.735
 20
33.612667
 42
0.0
  0
VERTEX
  8
Default
 10
38.819667
 20
33.951333
 42
0.0
  0
VERTEX
  8
Default
 10
38.819667
 20
34.163
 42
0.0
  0
VERTEX
  8
Default
 10
38.735
 20
34.501667
 42
0.0
  0
VERTEX
  8
Default
 10
38.227
 20
35.009667
 42
0.0
  0
VERTEX
  8
Default
 10
37.888333
 20
35.094333
 42
0.0
  0
VERTEX
  8
Default
 10
37.592
 20
35.094333
 42
0.0
  0
SEQEND
  0
POLYLINE
  8
Default
 66
     1
 10
0.0
 20
0.0
 30
0.0
 70
     0
  0
VERTEX
  8
Default
 10
25.611667
 20
32.808333
 42
0.0
  0
VERTEX
  8
Default
 10
25.611667
 20
32.808333
 42
0.0
  0
VERTEX
  8
Default
 10
25.188333
 20
32.639
 42
0.0
  0
VERTEX
  8
Default
 10
24.934333
 20
32.427333
 42
0.0
  0
VERTEX
  8
Default
 10
24.680333
 20
32.131
 42
0.0
  0
VERTEX
  8
Default
 10
24.553333
 20
31.665333
 42
0.0
  0
VERTEX
  8
Default
 10
24.595667
 20
31.242
 42
0.0
  0
VERTEX
  8
Default
 10
24.765
 20
30.861
 42
0.0
  0
VERTEX
  8
Default
 10
25.103667
 20
30.522333
 42
0.0
  0
VERTEX
  8
Default
 10
25.484667
 20
30.353
 42
0.0
  0
VERTEX
  8
Default
 10
26.119667
 20
30.353
 42
0.0
  0
VERTEX
  8
Default
 10
26.500667
 20
30.522333
 42
0.0
  0
VERTEX
  8
Default
 10
26.839333
 20
30.861
 42
0.0
  0
VERTEX
  8
Default
 10
27.008667
 20
31.242
 42
0.0
  0
VERTEX
  8
Default
 10
27.008667
 20
31.877
 42
0.0
  0
VERTEX
  8
Default
 10
26.839333
 20
32.258
 42
0.0
  0
VERTEX
  8
Default
 10
26.500667
 20
32.596667
 42
0.0
  0
VERTEX
  8
Default
 10
26.119667
 20
32.766
 42
0.0
  0
VERTEX
  8
Default
 10
25.611667
 20
32.808333
 42
0.0
  0
SEQEND
  0
POLYLINE
  8
Default
 66
     1
 10
0.0
 20
0.0
 30
0.0
 70
     0
  0
VERTEX
  8
Default
 10
33.231667
 20
32.808333
 42
0.0
  0
VERTEX
  8
Default
 10
33.231667
 20
32.808333
 42
0.0
  0
VERTEX
  8
Default
 10
32.808333
 20
32.639
 42
0.0
  0
VERTEX
  8
Default
 10
32.554333
 20
32.427333
 42
0.0
  0
VERTEX
  8
Default
 10
32.300333
 20
32.131
 42
0.0
  0
VERTEX
  8
Default
 10
32.173333
 20
31.665333
 42
0.0
  0
VERTEX
  8
Default
 10
32.215667
 20
31.242
 42
0.0
  0
VERTEX
  8
Default
 10
32.385
 20
30.861
 42
0.0
  0
VERTEX
  8
Default
 10
32.723667
 20
30.522333
 42
0.0
  0
VERTEX
  8
Default
 10
33.104667
 20
30.353
 42
0.0
  0
VERTEX
  8
Default
 10
33.739667
 20
30.353
 42
0.0
  0
VERTEX
  8
Default
 10
34.120667
 20
30.522333
 42
0.0
  0
VERTEX
  8
Default
 10
34.459333
 20
30.861
 42
0.0
  0
VERTEX
  8
Default
 10
34.628667
 20
31.242
 42
0.0
  0
VERTEX
  8
Default
 10
34.628667
 20
31.877
 42
0.0
  0
VERTEX
  8
Default
 10
34.459333
 20
32.258
 42
0.0
  0
VERTEX
  8
Default
 10
34.120667
 20
32.596667
 42
0.0
  0
VERTEX
  8
Default
 10
33.739667
 20
32.766
 42
0.0
  0
VERTEX
  8
Default
 10
33.231667
 20
32.808333
 42
0.0
  0
SEQEND
  0
POLYLINE
  8
Default
 66
     1
 10
0.0
 20
0.0
 30
0.0
 70
     0
  0
VERTEX
  8
Default
 10
36.703
 20
32.596667
 42
0.0
  0
VERTEX
  8
Default
 10
36.703
 20
32.596667
 42
0.0
  0
VERTEX
  8
Default
 10
36.703
 20
30.48
 42
0.0
  0
VERTEX
  8
Default
 10
38.819667
 20
30.48
 42
0.0
  0
VERTEX
  8
Default
 10
38.819667
 20
32.596667
 42
0.0
  0
VERTEX
  8
Default
 10
36.703
 20
32.596667
 42
0.0
  0
SEQEND
  0
POLYLINE
  8
Default
 66
     1
 10
0.0
 20
0.0
 30
0.0
 70
     0
  0
VERTEX
  8
Default
 10
90.720333
 20
32.300333
 42
0.0
  0
VERTEX
  8
Default
 10
90.720333
 20
32.300333
 42
0.0
  0
VERTEX
  8
Default
 10
90.466333
 20
32.215667
 42
0.0
  0
VERTEX
  8
Default
 10
89.958333
 20
31.707667
 42
0.0
  0
VERTEX
  8
Default
 10
89.873667
 20
31.369
 42
0.0
  0
VERTEX
  8
Default
 10
89.873667
 20
31.157333
 42
0.0
  0
VERTEX
  8
Default
 10
89.958333
 20
30.818667
 42
0.0
  0
VERTEX
  8
Default
 10
90.466333
 20
30.310667
 42
0.0
  0
VERTEX
  8
Default
 10
90.805
 20
30.226
 42
0.0
  0
VERTEX
  8
Default
 10
91.016667
 20
30.226
 42
0.0
  0
VERTEX
  8
Default
 10
91.355333
 20
30.310667
 42
0.0
  0
VERTEX
  8
Default
 10
91.863333
 20
30.818667
 42
0.0
  0
VERTEX
  8
Default
 10
91.948
 20
31.157333
 42
0.0
  0
VERTEX
  8
Default
 10
91.948
 20
31.369
 42
0.0
  0
VERTEX
  8
Default
 10
91.863333
 20
31.707667
 42
0.0
  0
VERTEX
  8
Default
 10
91.355333
 20
32.215667
 42
0.0
  0
VERTEX
  8
Default
 10
91.016667
 20
32.300333
 42
0.0
  0
VERTEX
  8
Default
 10
90.720333
 20
32.300333
 42
0.0
  0
SEQEND
  0
POLYLINE
  8
Default
 66
     1
 10
0.0
 20
0.0
 30
0.0
 70
     0
  0
VERTEX
  8
Default
 10
98.340333
 20
32.300333
 42
0.0
  0
VERTEX
  8
Default
 10
98.340333
 20
32.300333
 42
0.0
  0
VERTEX
  8
Default
 10
98.086333
 20
32.215667
 42
0.0
  0
VERTEX
  8
Default
 10
97.578333
 20
31.707667
 42
0.0
  0
VERTEX
  8
Default
 10
97.493667
 20
31.369
 42
0.0
  0
VERTEX
  8
Default
 10
97.493667
 20
31.157333
 42
0.0
  0
VERTEX
  8
Default
 10
97.578333
 20
30.818667
 42
0.0
  0
VERTEX
  8
Default
 10
98.086333
 20
30.310667
 42
0.0
  0
VERTEX
  8
Default
 10
98.425
 20
30.226
 42
0.0
  0
VERTEX
  8
Default
 10
98.636667
 20
30.226
 42
0.0
  0
VERTEX
  8
Default
 10
98.975333
 20
30.310667
 42
0.0
  0
VERTEX
  8
Default
 10
99.483333
 20
30.818667
 42
0.0
  0
VERTEX
  8
Default
 10
99.568
 20
31.157333
 42
0.0
  0
VERTEX
  8
Default
 10
99.568
 20
31.369
 42
0.0
  0
VERTEX
  8
Default
 10
99.483333
 20
31.707667
 42
0.0
  0
VERTEX
  8
Default
 10
98.975333
 20
32.215667
 42
0.0
  0
VERTEX
  8
Default
 10
98.636667
 20
32.300333
 42
0.0
  0
VERTEX
  8
Default
 10
98.340333
 20
32.300333
 42
0.0
  0
SEQEND
  0
POLYLINE
  8
Default
 66
     1
 10
0.0
 20
0.0
 30
0.0
 70
     0
  0
VERTEX
  8
Default
 10
108.288667
 20
31.919333
 42
0.0
  0
VERTEX
  8
Default
 10
108.288667
 20
31.919333
 42
0.0
  0
VERTEX
  8
Default
 10
108.034667
 20
31.834667
 42
0.0
  0
VERTEX
  8
Default
 10
107.526667
 20
31.326667
 42
0.0
  0
VERTEX
  8
Default
 10
107.442
 20
30.988
 42
0.0
  0
VERTEX
  8
Default
 10
107.442
 20
30.776333
 42
0.0
  0
VERTEX
  8
Default
 10
107.526667
 20
30.437667
 42
0.0
  0
VERTEX
  8
Default
 10
108.034667
 20
29.929667
 42
0.0
  0
VERTEX
  8
Default
 10
108.373333
 20
29.845
 42
0.0
  0
VERTEX
  8
Default
 10
108.585
 20
29.845
 42
0.0
  0
VERTEX
  8
Default
 10
108.923667
 20
29.929667
 42
0.0
  0
VERTEX
  8
Default
 10
109.431667
 20
30.437667
 42
0.0
  0
VERTEX
  8
Default
 10
109.516333
 20
30.776333
 42
0.0
  0
VERTEX
  8
Default
 10
109.516333
 20
30.988
 42
0.0
  0
VERTEX
  8
Default
 10
109.431667
 20
31.326667
 42
0.0
  0
VERTEX
  8
Default
 10
108.923667
 20
31.834667
 42
0.0
  0
VERTEX
  8
Default
 10
108.585
 20
31.919333
 42
0.0
  0
VERTEX
  8
Default
 10
108.288667
 20
31.919333
 42
0.0
  0
SEQEND
  0
POLYLINE
  8
Default
 66
     1
 10
0.0
 20
0.0
 30
0.0
 70
     0
  0
VERTEX
  8
Default
 10
10.244667
 20
31.707667
 42
0.0
  0
VERTEX
  8
Default
 10
10.244667
 20
31.707667
 42
0.0
  0
VERTEX
  8
Default
 10
10.244667
 20
29.294667
 42
0.0
  0
VERTEX
  8
Default
 10
12.657667
 20
29.294667
 42
0.0
  0
VERTEX
  8
Default
 10
12.657667
 20
31.707667
 42
0.0
  0
VERTEX
  8
Default
 10
10.244667
 20
31.707667
 42
0.0
  0
SEQEND
  0
POLYLINE
  8
Default
 66
     1
 10
0.0
 20
0.0
 30
0.0
 70
     0
  0
VERTEX
  8
Default
 10
8.720667
 20
31.665333
 42
0.0
  0
VERTEX
  8
Default
 10
8.720667
 20
31.665333
 42
0.0
  0
VERTEX
  8
Default
 10
8.424333
 20
31.538333
 42
0.0
  0
VERTEX
  8
Default
 10
8.085667
 20
31.326667
 42
0.0
  0
VERTEX
  8
Default
 10
7.831667
 20
30.945667
 42
0.0
  0
VERTEX
  8
Default
 10
7.747
 20
30.607
 42
0.0
  0
VERTEX
  8
Default
 10
7.789333
 20
30.183667
 42
0.0
  0
VERTEX
  8
Default
 10
8.001
 20
29.760333
 42
0.0
  0
VERTEX
  8
Default
 10
8.255
 20
29.548667
 42
0.0
  0
VERTEX
  8
Default
 10
8.593667
 20
29.379333
 42
0.0
  0
VERTEX
  8
Default
 10
9.228667
 20
29.379333
 42
0.0
  0
VERTEX
  8
Default
 10
9.567333
 20
29.548667
 42
0.0
  0
VERTEX
  8
Default
 10
9.821333
 20
29.760333
 42
0.0
  0
VERTEX
  8
Default
 10
10.033
 20
30.183667
 42
0.0
  0
VERTEX
  8
Default
 10
10.033
 20
30.818667
 42
0.0
  0
VERTEX
  8
Default
 10
9.821333
 20
31.242
 42
0.0
  0
VERTEX
  8
Default
 10
9.567333
 20
31.453667
 42
0.0
  0
VERTEX
  8
Default
 10
9.228667
 20
31.623
 42
0.0
  0
VERTEX
  8
Default
 10
8.720667
 20
31.665333
 42
0.0
  0
SEQEND
  0
POLYLINE
  8
Default
 66
     1
 10
0.0
 20
0.0
 30
0.0
 70
     0
  0
VERTEX
  8
Default
 10
102.997
 20
31.623
 42
0.0
  0
VERTEX
  8
Default
 10
102.997
 20
31.623
 42
0.0
  0
VERTEX
  8
Default
 10
102.997
 20
29.760333
 42
0.0
  0
VERTEX
  8
Default
 10
104.859667
 20
29.760333
 42
0.0
  0
VERTEX
  8
Default
 10
104.859667
 20
31.623
 42
0.0
  0
VERTEX
  8
Default
 10
102.997
 20
31.623
 42
0.0
  0
SEQEND
  0
POLYLINE
  8
Default
 66
     1
 10
0.0
 20
0.0
 30
0.0
 70
     0
  0
VERTEX
  8
Default
 10
68.664667
 20
30.776333
 42
0.0
  0
VERTEX
  8
Default
 10
68.664667
 20
30.776333
 42
0.0
  0
VERTEX
  8
Default
 10
68.410667
 20
30.691667
 42
0.0
  0
VERTEX
  8
Default
 10
67.902667
 20
30.183667
 42
0.0
  0
VERTEX
  8
Default
 10
67.818
 20
29.845
 42
0.0
  0
VERTEX
  8
Default
 10
67.818
 20
29.633333
 42
0.0
  0
VERTEX
  8
Default
 10
67.902667
 20
29.294667
 42
0.0
  0
VERTEX
  8
Default
 10
68.410667
 20
28.786667
 42
0.0
  0
VERTEX
  8
Default
 10
68.749333
 20
28.702
 42
0.0
  0
VERTEX
  8
Default
 10
68.961
 20
28.702
 42
0.0
  0
VERTEX
  8
Default
 10
69.299667
 20
28.786667
 42
0.0
  0
VERTEX
  8
Default
 10
69.807667
 20
29.294667
 42
0.0
  0
VERTEX
  8
Default
 10
69.892333
 20
29.633333
 42
0.0
  0
VERTEX
  8
Default
 10
69.892333
 20
29.845
 42
0.0
  0
VERTEX
  8
Default
 10
69.807667
 20
30.183667
 42
0.0
  0
VERTEX
  8
Default
 10
69.299667
 20
30.691667
 42
0.0
  0
VERTEX
  8
Default
 10
68.961
 20
30.776333
 42
0.0
  0
VERTEX
  8
Default
 10
68.664667
 20
30.776333
 42
0.0
  0
SEQEND
  0
POLYLINE
  8
Default
 66
     1
 10
0.0
 20
0.0
 30
0.0
 70
     0
  0
VERTEX
  8
Default
 10
71.204667
 20
30.776333
 42
0.0
  0
VERTEX
  8
Default
 10
71.204667
 20
30.776333
 42
0.0
  0
VERTEX
  8
Default
 10
70.950667
 20
30.691667
 42
0.0
  0
VERTEX
  8
Default
 10
70.442667
 20
30.183667
 42
0.0
  0
VERTEX
  8
Default
 10
70.358
 20
29.845
 42
0.0
  0
VERTEX
  8
Default
 10
70.358
 20
29.633333
 42
0.0
  0
VERTEX
  8
Default
 10
70.442667
 20
29.294667
 42
0.0
  0
VERTEX
  8
Default
 10
70.950667
 20
28.786667
 42
0.0
  0
VERTEX
  8
Default
 10
71.289333
 20
28.702
 42
0.0
  0
VERTEX
  8
Default
 10
71.501
 20
28.702
 42
0.0
  0
VERTEX
  8
Default
 10
71.839667
 20
28.786667
 42
0.0
  0
VERTEX
  8
Default
 10
72.347667
 20
29.294667
 42
0.0
  0
VERTEX
  8
Default
 10
72.432333
 20
29.633333
 42
0.0
  0
VERTEX
  8
Default
 10
72.432333
 20
29.845
 42
0.0
  0
VERTEX
  8
Default
 10
72.347667
 20
30.183667
 42
0.0
  0
VERTEX
  8
Default
 10
71.839667
 20
30.691667
 42
0.0
  0
VERTEX
  8
Default
 10
71.501
 20
30.776333
 42
0.0
  0
VERTEX
  8
Default
 10
71.204667
 20
30.776333
 42
0.0
  0
SEQEND
  0
POLYLINE
  8
Default
 66
     1
 10
0.0
 20
0.0
 30
0.0
 70
     0
  0
VERTEX
  8
Default
 10
73.744667
 20
30.776333
 42
0.0
  0
VERTEX
  8
Default
 10
73.744667
 20
30.776333
 42
0.0
  0
VERTEX
  8
Default
 10
73.490667
 20
30.691667
 42
0.0
  0
VERTEX
  8
Default
 10
72.982667
 20
30.183667
 42
0.0
  0
VERTEX
  8
Default
 10
72.898
 20
29.845
 42
0.0
  0
VERTEX
  8
Default
 10
72.898
 20
29.633333
 42
0.0
  0
VERTEX
  8
Default
 10
72.982667
 20
29.294667
 42
0.0
  0
VERTEX
  8
Default
 10
73.490667
 20
28.786667
 42
0.0
  0
VERTEX
  8
Default
 10
73.829333
 20
28.702
 42
0.0
  0
VERTEX
  8
Default
 10
74.041
 20
28.702
 42
0.0
  0
VERTEX
  8
Default
 10
74.379667
 20
28.786667
 42
0.0
  0
VERTEX
  8
Default
 10
74.887667
 20
29.294667
 42
0.0
  0
VERTEX
  8
Default
 10
74.972333
 20
29.633333
 42
0.0
  0
VERTEX
  8
Default
 10
74.972333
 20
29.845
 42
0.0
  0
VERTEX
  8
Default
 10
74.887667
 20
30.183667
 42
0.0
  0
VERTEX
  8
Default
 10
74.379667
 20
30.691667
 42
0.0
  0
VERTEX
  8
Default
 10
74.041
 20
30.776333
 42
0.0
  0
VERTEX
  8
Default
 10
73.744667
 20
30.776333
 42
0.0
  0
SEQEND
  0
POLYLINE
  8
Default
 66
     1
 10
0.0
 20
0.0
 30
0.0
 70
     0
  0
VERTEX
  8
Default
 10
76.284667
 20
30.776333
 42
0.0
  0
VERTEX
  8
Default
 10
76.284667
 20
30.776333
 42
0.0
  0
VERTEX
  8
Default
 10
76.030667
 20
30.691667
 42
0.0
  0
VERTEX
  8
Default
 10
75.522667
 20
30.183667
 42
0.0
  0
VERTEX
  8
Default
 10
75.438
 20
29.845
 42
0.0
  0
VERTEX
  8
Default
 10
75.438
 20
29.633333
 42
0.0
  0
VERTEX
  8
Default
 10
75.522667
 20
29.294667
 42
0.0
  0
VERTEX
  8
Default
 10
76.030667
 20
28.786667
 42
0.0
  0
VERTEX
  8
Default
 10
76.369333
 20
28.702
 42
0.0
  0
VERTEX
  8
Default
 10
76.581
 20
28.702
 42
0.0
  0
VERTEX
  8
Default
 10
76.919667
 20
28.786667
 42
0.0
  0
VERTEX
  8
Default
 10
77.427667
 20
29.294667
 42
0.0
  0
VERTEX
  8
Default
 10
77.512333
 20
29.633333
 42
0.0
  0
VERTEX
  8
Default
 10
77.512333
 20
29.845
 42
0.0
  0
VERTEX
  8
Default
 10
77.427667
 20
30.183667
 42
0.0
  0
VERTEX
  8
Default
 10
76.919667
 20
30.691667
 42
0.0
  0
VERTEX
  8
Default
 10
76.581
 20
30.776333
 42
0.0
  0
VERTEX
  8
Default
 10
76.284667
 20
30.776333
 42
0.0
  0
SEQEND
  0
POLYLINE
  8
Default
 66
     1
 10
0.0
 20
0.0
 30
0.0
 70
     0
  0
VERTEX
  8
Default
 10
78.824667
 20
30.776333
 42
0.0
  0
VERTEX
  8
Default
 10
78.824667
 20
30.776333
 42
0.0
  0
VERTEX
  8
Default
 10
78.570667
 20
30.691667
 42
0.0
  0
VERTEX
  8
Default
 10
78.062667
 20
30.183667
 42
0.0
  0
VERTEX
  8
Default
 10
77.978
 20
29.845
 42
0.0
  0
VERTEX
  8
Default
 10
77.978
 20
29.633333
 42
0.0
  0
VERTEX
  8
Default
 10
78.062667
 20
29.294667
 42
0.0
  0
VERTEX
  8
Default
 10
78.570667
 20
28.786667
 42
0.0
  0
VERTEX
  8
Default
 10
78.909333
 20
28.702
 42
0.0
  0
VERTEX
  8
Default
 10
79.121
 20
28.702
 42
0.0
  0
VERTEX
  8
Default
 10
79.459667
 20
28.786667
 42
0.0
  0
VERTEX
  8
Default
 10
79.967667
 20
29.294667
 42
0.0
  0
VERTEX
  8
Default
 10
80.052333
 20
29.633333
 42
0.0
  0
VERTEX
  8
Default
 10
80.052333
 20
29.845
 42
0.0
  0
VERTEX
  8
Default
 10
79.967667
 20
30.183667
 42
0.0
  0
VERTEX
  8
Default
 10
79.459667
 20
30.691667
 42
0.0
  0
VERTEX
  8
Default
 10
79.121
 20
30.776333
 42
0.0
  0
VERTEX
  8
Default
 10
78.824667
 20
30.776333
 42
0.0
  0
SEQEND
  0
POLYLINE
  8
Default
 66
     1
 10
0.0
 20
0.0
 30
0.0
 70
     0
  0
VERTEX
  8
Default
 10
81.364667
 20
30.776333
 42
0.0
  0
VERTEX
  8
Default
 10
81.364667
 20
30.776333
 42
0.0
  0
VERTEX
  8
Default
 10
81.110667
 20
30.691667
 42
0.0
  0
VERTEX
  8
Default
 10
80.602667
 20
30.183667
 42
0.0
  0
VERTEX
  8
Default
 10
80.518
 20
29.845
 42
0.0
  0
VERTEX
  8
Default
 10
80.518
 20
29.633333
 42
0.0
  0
VERTEX
  8
Default
 10
80.602667
 20
29.294667
 42
0.0
  0
VERTEX
  8
Default
 10
81.110667
 20
28.786667
 42
0.0
  0
VERTEX
  8
Default
 10
81.449333
 20
28.702
 42
0.0
  0
VERTEX
  8
Default
 10
81.661
 20
28.702
 42
0.0
  0
VERTEX
  8
Default
 10
81.999667
 20
28.786667
 42
0.0
  0
VERTEX
  8
Default
 10
82.507667
 20
29.294667
 42
0.0
  0
VERTEX
  8
Default
 10
82.592333
 20
29.633333
 42
0.0
  0
VERTEX
  8
Default
 10
82.592333
 20
29.845
 42
0.0
  0
VERTEX
  8
Default
 10
82.507667
 20
30.183667
 42
0.0
  0
VERTEX
  8
Default
 10
81.999667
 20
30.691667
 42
0.0
  0
VERTEX
  8
Default
 10
81.661
 20
30.776333
 42
0.0
  0
VERTEX
  8
Default
 10
81.364667
 20
30.776333
 42
0.0
  0
SEQEND
  0
POLYLINE
  8
Default
 66
     1
 10
0.0
 20
0.0
 30
0.0
 70
     0
  0
VERTEX
  8
Default
 10
83.904667
 20
30.776333
 42
0.0
  0
VERTEX
  8
Default
 10
83.904667
 20
30.776333
 42
0.0
  0
VERTEX
  8
Default
 10
83.650667
 20
30.691667
 42
0.0
  0
VERTEX
  8
Default
 10
83.142667
 20
30.183667
 42
0.0
  0
VERTEX
  8
Default
 10
83.058
 20
29.845
 42
0.0
  0
VERTEX
  8
Default
 10
83.058
 20
29.633333
 42
0.0
  0
VERTEX
  8
Default
 10
83.142667
 20
29.294667
 42
0.0
  0
VERTEX
  8
Default
 10
83.650667
 20
28.786667
 42
0.0
  0
VERTEX
  8
Default
 10
83.989333
 20
28.702
 42
0.0
  0
VERTEX
  8
Default
 10
84.201
 20
28.702
 42
0.0
  0
VERTEX
  8
Default
 10
84.539667
 20
28.786667
 42
0.0
  0
VERTEX
  8
Default
 10
85.047667
 20
29.294667
 42
0.0
  0
VERTEX
  8
Default
 10
85.132333
 20
29.633333
 42
0.0
  0
VERTEX
  8
Default
 10
85.132333
 20
29.845
 42
0.0
  0
VERTEX
  8
Default
 10
85.047667
 20
30.183667
 42
0.0
  0
VERTEX
  8
Default
 10
84.539667
 20
30.691667
 42
0.0
  0
VERTEX
  8
Default
 10
84.201
 20
30.776333
 42
0.0
  0
VERTEX
  8
Default
 10
83.904667
 20
30.776333
 42
0.0
  0
SEQEND
  0
POLYLINE
  8
Default
 66
     1
 10
0.0
 20
0.0
 30
0.0
 70
     0
  0
VERTEX
  8
Default
 10
53.678667
 20
30.395333
 42
0.0
  0
VERTEX
  8
Default
 10
53.678667
 20
30.395333
 42
0.0
  0
VERTEX
  8
Default
 10
53.424667
 20
30.310667
 42
0.0
  0
VERTEX
  8
Default
 10
52.916667
 20
29.802667
 42
0.0
  0
VERTEX
  8
Default
 10
52.832
 20
29.464
 42
0.0
  0
VERTEX
  8
Default
 10
52.832
 20
29.252333
 42
0.0
  0
VERTEX
  8
Default
 10
52.916667
 20
28.913667
 42
0.0
  0
VERTEX
  8
Default
 10
53.424667
 20
28.405667
 42
0.0
  0
VERTEX
  8
Default
 10
53.763333
 20
28.321
 42
0.0
  0
VERTEX
  8
Default
 10
53.975
 20
28.321
 42
0.0
  0
VERTEX
  8
Default
 10
54.313667
 20
28.405667
 42
0.0
  0
VERTEX
  8
Default
 10
54.821667
 20
28.913667
 42
0.0
  0
VERTEX
  8
Default
 10
54.906333
 20
29.252333
 42
0.0
  0
VERTEX
  8
Default
 10
54.906333
 20
29.464
 42
0.0
  0
VERTEX
  8
Default
 10
54.821667
 20
29.802667
 42
0.0
  0
VERTEX
  8
Default
 10
54.313667
 20
30.310667
 42
0.0
  0
VERTEX
  8
Default
 10
53.975
 20
30.395333
 42
0.0
  0
VERTEX
  8
Default
 10
53.678667
 20
30.395333
 42
0.0
  0
SEQEND
  0
POLYLINE
  8
Default
 66
     1
 10
0.0
 20
0.0
 30
0.0
 70
     0
  0
VERTEX
  8
Default
 10
76.284667
 20
26.204333
 42
0.0
  0
VERTEX
  8
Default
 10
76.284667
 20
26.204333
 42
0.0
  0
VERTEX
  8
Default
 10
76.030667
 20
26.119667
 42
0.0
  0
VERTEX
  8
Default
 10
75.522667
 20
25.611667
 42
0.0
  0
VERTEX
  8
Default
 10
75.438
 20
25.273
 42
0.0
  0
VERTEX
  8
Default
 10
75.438
 20
25.061333
 42
0.0
  0
VERTEX
  8
Default
 10
75.522667
 20
24.722667
 42
0.0
  0
VERTEX
  8
Default
 10
76.030667
 20
24.214667
 42
0.0
  0
VERTEX
  8
Default
 10
76.411667
 20
24.13
 42
0.0
  0
VERTEX
  8
Default
 10
76.792667
 20
24.172333
 42
0.0
  0
VERTEX
  8
Default
 10
79.586667
 20
21.420667
 42
0.0
  0
VERTEX
  8
Default
 10
83.650667
 20
21.378333
 42
0.0
  0
VERTEX
  8
Default
 10
87.926333
 20
17.145
 42
0.0
  0
VERTEX
  8
Default
 10
87.926333
 20
9.821333
 42
0.0
  0
VERTEX
  8
Default
 10
87.206667
 20
9.144
 42
0.0
  0
VERTEX
  8
Default
 10
77.173667
 20
9.144
 42
0.0
  0
VERTEX
  8
Default
 10
76.157667
 20
10.117667
 42
0.0
  0
VERTEX
  8
Default
 10
56.811333
 20
10.16
 42
0.0
  0
VERTEX
  8
Default
 10
56.345667
 20
10.625667
 42
0.0
  0
VERTEX
  8
Default
 10
56.007
 20
10.710333
 42
0.0
  0
VERTEX
  8
Default
 10
55.795333
 20
10.710333
 42
0.0
  0
VERTEX
  8
Default
 10
55.456667
 20
10.625667
 42
0.0
  0
VERTEX
  8
Default
 10
54.948667
 20
10.117667
 42
0.0
  0
VERTEX
  8
Default
 10
54.864
 20
9.779
 42
0.0
  0
VERTEX
  8
Default
 10
54.864
 20
9.567333
 42
0.0
  0
VERTEX
  8
Default
 10
54.948667
 20
9.228667
 42
0.0
  0
VERTEX
  8
Default
 10
55.456667
 20
8.720667
 42
0.0
  0
VERTEX
  8
Default
 10
55.795333
 20
8.636
 42
0.0
  0
VERTEX
  8
Default
 10
56.007
 20
8.636
 42
0.0
  0
VERTEX
  8
Default
 10
56.345667
 20
8.720667
 42
0.0
  0
VERTEX
  8
Default
 10
56.811333
 20
9.186333
 42
0.0
  0
VERTEX
  8
Default
 10
75.776667
 20
9.186333
 42
0.0
  0
VERTEX
  8
Default
 10
76.792667
 20
8.212667
 42
0.0
  0
VERTEX
  8
Default
 10
87.587667
 20
8.212667
 42
0.0
  0
VERTEX
  8
Default
 10
88.857667
 20
9.482667
 42
0.0
  0
VERTEX
  8
Default
 10
88.857667
 20
17.483667
 42
0.0
  0
VERTEX
  8
Default
 10
84.031667
 20
22.309667
 42
0.0
  0
VERTEX
  8
Default
 10
79.967667
 20
22.352
 42
0.0
  0
VERTEX
  8
Default
 10
77.47
 20
24.807333
 42
0.0
  0
VERTEX
  8
Default
 10
77.512333
 20
25.230667
 42
0.0
  0
VERTEX
  8
Default
 10
77.427667
 20
25.611667
 42
0.0
  0
VERTEX
  8
Default
 10
76.919667
 20
26.119667
 42
0.0
  0
VERTEX
  8
Default
 10
76.581
 20
26.204333
 42
0.0
  0
VERTEX
  8
Default
 10
76.284667
 20
26.204333
 42
0.0
  0
SEQEND
  0
POLYLINE
  8
Default
 66
     1
 10
0.0
 20
0.0
 30
0.0
 70
     0
  0
VERTEX
  8
Default
 10
81.364667
 20
26.204333
 42
0.0
  0
VERTEX
  8
Default
 10
81.364667
 20
26.204333
 42
0.0
  0
VERTEX
  8
Default
 10
81.110667
 20
26.119667
 42
0.0
  0
VERTEX
  8
Default
 10
80.602667
 20
25.611667
 42
0.0
  0
VERTEX
  8
Default
 10
80.518
 20
25.273
 42
0.0
  0
VERTEX
  8
Default
 10
80.518
 20
25.061333
 42
0.0
  0
VERTEX
  8
Default
 10
80.602667
 20
24.722667
 42
0.0
  0
VERTEX
  8
Default
 10
81.110667
 20
24.214667
 42
0.0
  0
VERTEX
  8
Default
 10
81.449333
 20
24.13
 42
0.0
  0
VERTEX
  8
Default
 10
81.661
 20
24.13
 42
0.0
  0
VERTEX
  8
Default
 10
81.999667
 20
24.214667
 42
0.0
  0
VERTEX
  8
Default
 10
82.465333
 20
24.680333
 42
0.0
  0
VERTEX
  8
Default
 10
101.557667
 20
24.680333
 42
0.0
  0
VERTEX
  8
Default
 10
101.557667
 20
24.172333
 42
0.0
  0
VERTEX
  8
Default
 10
103.420333
 20
24.172333
 42
0.0
  0
VERTEX
  8
Default
 10
103.420333
 20
26.035
 42
0.0
  0
VERTEX
  8
Default
 10
101.557667
 20
26.035
 42
0.0
  0
VERTEX
  8
Default
 10
101.557667
 20
25.654
 42
0.0
  0
VERTEX
  8
Default
 10
82.465333
 20
25.654
 42
0.0
  0
VERTEX
  8
Default
 10
81.999667
 20
26.119667
 42
0.0
  0
VERTEX
  8
Default
 10
81.661
 20
26.204333
 42
0.0
  0
VERTEX
  8
Default
 10
81.364667
 20
26.204333
 42
0.0
  0
SEQEND
  0
POLYLINE
  8
Default
 66
     1
 10
0.0
 20
0.0
 30
0.0
 70
     0
  0
VERTEX
  8
Default
 10
68.876333
 20
26.077333
 42
0.0
  0
VERTEX
  8
Default
 10
68.876333
 20
26.077333
 42
0.0
  0
VERTEX
  8
Default
 10
68.622333
 20
25.992667
 42
0.0
  0
VERTEX
  8
Default
 10
68.114333
 20
25.484667
 42
0.0
  0
VERTEX
  8
Default
 10
68.029667
 20
25.146
 42
0.0
  0
VERTEX
  8
Default
 10
68.029667
 20
24.934333
 42
0.0
  0
VERTEX
  8
Default
 10
68.114333
 20
24.595667
 42
0.0
  0
VERTEX
  8
Default
 10
68.622333
 20
24.087667
 42
0.0
  0
VERTEX
  8
Default
 10
68.961
 20
24.003
 42
0.0
  0
VERTEX
  8
Default
 10
69.172667
 20
24.003
 42
0.0
  0
VERTEX
  8
Default
 10
69.511333
 20
24.087667
 42
0.0
  0
VERTEX
  8
Default
 10
70.019333
 20
24.595667
 42
0.0
  0
VERTEX
  8
Default
 10
70.104
 20
24.934333
 42
0.0
  0
VERTEX
  8
Default
 10
70.104
 20
25.146
 42
0.0
  0
VERTEX
  8
Default
 10
70.019333
 20
25.484667
 42
0.0
  0
VERTEX
  8
Default
 10
69.511333
 20
25.992667
 42
0.0
  0
VERTEX
  8
Default
 10
69.172667
 20
26.077333
 42
0.0
  0
VERTEX
  8
Default
 10
68.876333
 20
26.077333
 42
0.0
  0
SEQEND
  0
POLYLINE
  8
Default
 66
     1
 10
0.0
 20
0.0
 30
0.0
 70
     0
  0
VERTEX
  8
Default
 10
56.472667
 20
25.781
 42
0.0
  0
VERTEX
  8
Default
 10
56.472667
 20
25.781
 42
0.0
  0
VERTEX
  8
Default
 10
56.218667
 20
25.696333
 42
0.0
  0
VERTEX
  8
Default
 10
55.710667
 20
25.188333
 42
0.0
  0
VERTEX
  8
Default
 10
55.626
 20
24.849667
 42
0.0
  0
VERTEX
  8
Default
 10
55.626
 20
24.638
 42
0.0
  0
VERTEX
  8
Default
 10
55.710667
 20
24.299333
 42
0.0
  0
VERTEX
  8
Default
 10
56.218667
 20
23.791333
 42
0.0
  0
VERTEX
  8
Default
 10
56.557333
 20
23.706667
 42
0.0
  0
VERTEX
  8
Default
 10
56.769
 20
23.706667
 42
0.0
  0
VERTEX
  8
Default
 10
57.107667
 20
23.791333
 42
0.0
  0
VERTEX
  8
Default
 10
57.615667
 20
24.299333
 42
0.0
  0
VERTEX
  8
Default
 10
57.700333
 20
24.638
 42
0.0
  0
VERTEX
  8
Default
 10
57.700333
 20
24.849667
 42
0.0
  0
VERTEX
  8
Default
 10
57.615667
 20
25.188333
 42
0.0
  0
VERTEX
  8
Default
 10
57.107667
 20
25.696333
 42
0.0
  0
VERTEX
  8
Default
 10
56.769
 20
25.781
 42
0.0
  0
VERTEX
  8
Default
 10
56.472667
 20
25.781
 42
0.0
  0
SEQEND
  0
POLYLINE
  8
Default
 66
     1
 10
0.0
 20
0.0
 30
0.0
 70
     0
  0
VERTEX
  8
Default
 10
64.092667
 20
25.781
 42
0.0
  0
VERTEX
  8
Default
 10
64.092667
 20
25.781
 42
0.0
  0
VERTEX
  8
Default
 10
63.838667
 20
25.696333
 42
0.0
  0
VERTEX
  8
Default
 10
63.330667
 20
25.188333
 42
0.0
  0
VERTEX
  8
Default
 10
63.246
 20
24.849667
 42
0.0
  0
VERTEX
  8
Default
 10
63.246
 20
24.638
 42
0.0
  0
VERTEX
  8
Default
 10
63.330667
 20
24.299333
 42
0.0
  0
VERTEX
  8
Default
 10
63.838667
 20
23.791333
 42
0.0
  0
VERTEX
  8
Default
 10
64.177333
 20
23.706667
 42
0.0
  0
VERTEX
  8
Default
 10
64.389
 20
23.706667
 42
0.0
  0
VERTEX
  8
Default
 10
64.727667
 20
23.791333
 42
0.0
  0
VERTEX
  8
Default
 10
65.235667
 20
24.299333
 42
0.0
  0
VERTEX
  8
Default
 10
65.320333
 20
24.638
 42
0.0
  0
VERTEX
  8
Default
 10
65.320333
 20
24.849667
 42
0.0
  0
VERTEX
  8
Default
 10
65.235667
 20
25.188333
 42
0.0
  0
VERTEX
  8
Default
 10
64.727667
 20
25.696333
 42
0.0
  0
VERTEX
  8
Default
 10
64.389
 20
25.781
 42
0.0
  0
VERTEX
  8
Default
 10
64.092667
 20
25.781
 42
0.0
  0
SEQEND
  0
POLYLINE
  8
Default
 66
     1
 10
0.0
 20
0.0
 30
0.0
 70
     0
  0
VERTEX
  8
Default
 10
108.288667
 20
24.299333
 42
0.0
  0
VERTEX
  8
Default
 10
108.288667
 20
24.299333
 42
0.0
  0
VERTEX
  8
Default
 10
108.034667
 20
24.214667
 42
0.0
  0
VERTEX
  8
Default
 10
107.526667
 20
23.706667
 42
0.0
  0
VERTEX
  8
Default
 10
107.442
 20
23.368
 42
0.0
  0
VERTEX
  8
Default
 10
107.442
 20
23.156333
 42
0.0
  0
VERTEX
  8
Default
 10
107.526667
 20
22.817667
 42
0.0
  0
VERTEX
  8
Default
 10
108.034667
 20
22.309667
 42
0.0
  0
VERTEX
  8
Default
 10
108.373333
 20
22.225
 42
0.0
  0
VERTEX
  8
Default
 10
108.585
 20
22.225
 42
0.0
  0
VERTEX
  8
Default
 10
108.923667
 20
22.309667
 42
0.0
  0
VERTEX
  8
Default
 10
109.431667
 20
22.817667
 42
0.0
  0
VERTEX
  8
Default
 10
109.516333
 20
23.156333
 42
0.0
  0
VERTEX
  8
Default
 10
109.516333
 20
23.368
 42
0.0
  0
VERTEX
  8
Default
 10
109.431667
 20
23.706667
 42
0.0
  0
VERTEX
  8
Default
 10
108.923667
 20
24.214667
 42
0.0
  0
VERTEX
  8
Default
 10
108.585
 20
24.299333
 42
0.0
  0
VERTEX
  8
Default
 10
108.288667
 20
24.299333
 42
0.0
  0
SEQEND
  0
POLYLINE
  8
Default
 66
     1
 10
0.0
 20
0.0
 30
0.0
 70
     0
  0
VERTEX
  8
Default
 10
67.987333
 20
23.537333
 42
0.0
  0
VERTEX
  8
Default
 10
67.987333
 20
23.537333
 42
0.0
  0
VERTEX
  8
Default
 10
67.987333
 20
21.420667
 42
0.0
  0
VERTEX
  8
Default
 10
70.104
 20
21.420667
 42
0.0
  0
VERTEX
  8
Default
 10
70.104
 20
23.537333
 42
0.0
  0
VERTEX
  8
Default
 10
67.987333
 20
23.537333
 42
0.0
  0
SEQEND
  0
POLYLINE
  8
Default
 66
     1
 10
0.0
 20
0.0
 30
0.0
 70
     0
  0
VERTEX
  8
Default
 10
4.868333
 20
23.198667
 42
0.0
  0
VERTEX
  8
Default
 10
4.868333
 20
23.198667
 42
0.0
  0
VERTEX
  8
Default
 10
4.614333
 20
23.114
 42
0.0
  0
VERTEX
  8
Default
 10
4.106333
 20
22.606
 42
0.0
  0
VERTEX
  8
Default
 10
4.021667
 20
22.267333
 42
0.0
  0
VERTEX
  8
Default
 10
4.021667
 20
22.055667
 42
0.0
  0
VERTEX
  8
Default
 10
4.106333
 20
21.717
 42
0.0
  0
VERTEX
  8
Default
 10
4.614333
 20
21.209
 42
0.0
  0
VERTEX
  8
Default
 10
4.953
 20
21.124333
 42
0.0
  0
VERTEX
  8
Default
 10
5.164667
 20
21.124333
 42
0.0
  0
VERTEX
  8
Default
 10
5.503333
 20
21.209
 42
0.0
  0
VERTEX
  8
Default
 10
6.011333
 20
21.717
 42
0.0
  0
VERTEX
  8
Default
 10
6.096
 20
22.055667
 42
0.0
  0
VERTEX
  8
Default
 10
6.096
 20
22.267333
 42
0.0
  0
VERTEX
  8
Default
 10
6.011333
 20
22.606
 42
0.0
  0
VERTEX
  8
Default
 10
5.503333
 20
23.114
 42
0.0
  0
VERTEX
  8
Default
 10
5.164667
 20
23.198667
 42
0.0
  0
VERTEX
  8
Default
 10
4.868333
 20
23.198667
 42
0.0
  0
SEQEND
  0
POLYLINE
  8
Default
 66
     1
 10
0.0
 20
0.0
 30
0.0
 70
     0
  0
VERTEX
  8
Default
 10
9.694333
 20
23.029333
 42
0.0
  0
VERTEX
  8
Default
 10
9.694333
 20
23.029333
 42
0.0
  0
VERTEX
  8
Default
 10
9.440333
 20
22.944667
 42
0.0
  0
VERTEX
  8
Default
 10
8.932333
 20
22.436667
 42
0.0
  0
VERTEX
  8
Default
 10
8.847667
 20
22.098
 42
0.0
  0
VERTEX
  8
Default
 10
8.847667
 20
21.886333
 42
0.0
  0
VERTEX
  8
Default
 10
8.932333
 20
21.547667
 42
0.0
  0
VERTEX
  8
Default
 10
9.440333
 20
21.039667
 42
0.0
  0
VERTEX
  8
Default
 10
9.779
 20
20.955
 42
0.0
  0
VERTEX
  8
Default
 10
9.990667
 20
20.955
 42
0.0
  0
VERTEX
  8
Default
 10
10.329333
 20
21.039667
 42
0.0
  0
VERTEX
  8
Default
 10
10.837333
 20
21.547667
 42
0.0
  0
VERTEX
  8
Default
 10
10.922
 20
21.886333
 42
0.0
  0
VERTEX
  8
Default
 10
10.922
 20
22.098
 42
0.0
  0
VERTEX
  8
Default
 10
10.837333
 20
22.436667
 42
0.0
  0
VERTEX
  8
Default
 10
10.329333
 20
22.944667
 42
0.0
  0
VERTEX
  8
Default
 10
9.990667
 20
23.029333
 42
0.0
  0
VERTEX
  8
Default
 10
9.694333
 20
23.029333
 42
0.0
  0
SEQEND
  0
POLYLINE
  8
Default
 66
     1
 10
0.0
 20
0.0
 30
0.0
 70
     0
  0
VERTEX
  8
Default
 10
94.234
 20
21.547667
 42
0.0
  0
VERTEX
  8
Default
 10
94.234
 20
21.547667
 42
0.0
  0
VERTEX
  8
Default
 10
94.234
 20
19.431
 42
0.0
  0
VERTEX
  8
Default
 10
96.350667
 20
19.431
 42
0.0
  0
VERTEX
  8
Default
 10
96.350667
 20
21.547667
 42
0.0
  0
VERTEX
  8
Default
 10
94.234
 20
21.547667
 42
0.0
  0
SEQEND
  0
POLYLINE
  8
Default
 66
     1
 10
0.0
 20
0.0
 30
0.0
 70
     0
  0
VERTEX
  8
Default
 10
97.663
 20
21.547667
 42
0.0
  0
VERTEX
  8
Default
 10
97.663
 20
21.547667
 42
0.0
  0
VERTEX
  8
Default
 10
97.409
 20
21.463
 42
0.0
  0
VERTEX
  8
Default
 10
96.901
 20
20.955
 42
0.0
  0
VERTEX
  8
Default
 10
96.816333
 20
20.616333
 42
0.0
  0
VERTEX
  8
Default
 10
96.816333
 20
20.404667
 42
0.0
  0
VERTEX
  8
Default
 10
96.901
 20
20.066
 42
0.0
  0
VERTEX
  8
Default
 10
97.409
 20
19.558
 42
0.0
  0
VERTEX
  8
Default
 10
97.747667
 20
19.473333
 42
0.0
  0
VERTEX
  8
Default
 10
97.959333
 20
19.473333
 42
0.0
  0
VERTEX
  8
Default
 10
98.298
 20
19.558
 42
0.0
  0
VERTEX
  8
Default
 10
98.806
 20
20.066
 42
0.0
  0
VERTEX
  8
Default
 10
98.890667
 20
20.404667
 42
0.0
  0
VERTEX
  8
Default
 10
98.890667
 20
20.616333
 42
0.0
  0
VERTEX
  8
Default
 10
98.806
 20
20.955
 42
0.0
  0
VERTEX
  8
Default
 10
98.298
 20
21.463
 42
0.0
  0
VERTEX
  8
Default
 10
97.959333
 20
21.547667
 42
0.0
  0
VERTEX
  8
Default
 10
97.663
 20
21.547667
 42
0.0
  0
SEQEND
  0
POLYLINE
  8
Default
 66
     1
 10
0.0
 20
0.0
 30
0.0
 70
     0
  0
VERTEX
  8
Default
 10
81.534
 20
19.388667
 42
0.0
  0
VERTEX
  8
Default
 10
81.534
 20
19.388667
 42
0.0
  0
VERTEX
  8
Default
 10
81.28
 20
19.304
 42
0.0
  0
VERTEX
  8
Default
 10
80.772
 20
18.796
 42
0.0
  0
VERTEX
  8
Default
 10
80.687333
 20
18.457333
 42
0.0
  0
VERTEX
  8
Default
 10
80.687333
 20
18.245667
 42
0.0
  0
VERTEX
  8
Default
 10
80.772
 20
17.907
 42
0.0
  0
VERTEX
  8
Default
 10
81.28
 20
17.399
 42
0.0
  0
VERTEX
  8
Default
 10
81.618667
 20
17.314333
 42
0.0
  0
VERTEX
  8
Default
 10
81.830333
 20
17.314333
 42
0.0
  0
VERTEX
  8
Default
 10
82.169
 20
17.399
 42
0.0
  0
VERTEX
  8
Default
 10
82.677
 20
17.907
 42
0.0
  0
VERTEX
  8
Default
 10
82.761667
 20
18.245667
 42
0.0
  0
VERTEX
  8
Default
 10
82.761667
 20
18.457333
 42
0.0
  0
VERTEX
  8
Default
 10
82.677
 20
18.796
 42
0.0
  0
VERTEX
  8
Default
 10
82.169
 20
19.304
 42
0.0
  0
VERTEX
  8
Default
 10
81.830333
 20
19.388667
 42
0.0
  0
VERTEX
  8
Default
 10
81.534
 20
19.388667
 42
0.0
  0
SEQEND
  0
POLYLINE
  8
Default
 66
     1
 10
0.0
 20
0.0
 30
0.0
 70
     0
  0
VERTEX
  8
Default
 10
38.269333
 20
19.05
 42
0.0
  0
VERTEX
  8
Default
 10
38.269333
 20
19.05
 42
0.0
  0
VERTEX
  8
Default
 10
38.015333
 20
18.965333
 42
0.0
  0
VERTEX
  8
Default
 10
37.507333
 20
18.457333
 42
0.0
  0
VERTEX
  8
Default
 10
37.422667
 20
18.076333
 42
0.0
  0
VERTEX
  8
Default
 10
37.465
 20
17.695333
 42
0.0
  0
VERTEX
  8
Default
 10
35.136667
 20
15.324667
 42
0.0
  0
VERTEX
  8
Default
 10
35.094333
 20
11.091333
 42
0.0
  0
VERTEX
  8
Default
 10
34.628667
 20
10.625667
 42
0.0
  0
VERTEX
  8
Default
 10
34.544
 20
10.287
 42
0.0
  0
VERTEX
  8
Default
 10
34.544
 20
10.075333
 42
0.0
  0
VERTEX
  8
Default
 10
34.628667
 20
9.736667
 42
0.0
  0
VERTEX
  8
Default
 10
35.136667
 20
9.228667
 42
0.0
  0
VERTEX
  8
Default
 10
35.475333
 20
9.144
 42
0.0
  0
VERTEX
  8
Default
 10
35.687
 20
9.144
 42
0.0
  0
VERTEX
  8
Default
 10
36.025667
 20
9.228667
 42
0.0
  0
VERTEX
  8
Default
 10
36.533667
 20
9.736667
 42
0.0
  0
VERTEX
  8
Default
 10
36.618333
 20
10.075333
 42
0.0
  0
VERTEX
  8
Default
 10
36.618333
 20
10.287
 42
0.0
  0
VERTEX
  8
Default
 10
36.533667
 20
10.625667
 42
0.0
  0
VERTEX
  8
Default
 10
36.068
 20
11.091333
 42
0.0
  0
VERTEX
  8
Default
 10
36.068
 20
14.986
 42
0.0
  0
VERTEX
  8
Default
 10
38.142333
 20
17.018
 42
0.0
  0
VERTEX
  8
Default
 10
38.523333
 20
16.975667
 42
0.0
  0
VERTEX
  8
Default
 10
38.904333
 20
17.060333
 42
0.0
  0
VERTEX
  8
Default
 10
39.412333
 20
17.568333
 42
0.0
  0
VERTEX
  8
Default
 10
39.497
 20
17.907
 42
0.0
  0
VERTEX
  8
Default
 10
39.497
 20
18.118667
 42
0.0
  0
VERTEX
  8
Default
 10
39.412333
 20
18.457333
 42
0.0
  0
VERTEX
  8
Default
 10
38.904333
 20
18.965333
 42
0.0
  0
VERTEX
  8
Default
 10
38.565667
 20
19.05
 42
0.0
  0
VERTEX
  8
Default
 10
38.269333
 20
19.05
 42
0.0
  0
SEQEND
  0
POLYLINE
  8
Default
 66
     1
 10
0.0
 20
0.0
 30
0.0
 70
     0
  0
VERTEX
  8
Default
 10
45.889333
 20
19.05
 42
0.0
  0
VERTEX
  8
Default
 10
45.889333
 20
19.05
 42
0.0
  0
VERTEX
  8
Default
 10
45.635333
 20
18.965333
 42
0.0
  0
VERTEX
  8
Default
 10
45.127333
 20
18.457333
 42
0.0
  0
VERTEX
  8
Default
 10
45.042667
 20
18.118667
 42
0.0
  0
VERTEX
  8
Default
 10
45.042667
 20
17.907
 42
0.0
  0
VERTEX
  8
Default
 10
45.127333
 20
17.568333
 42
0.0
  0
VERTEX
  8
Default
 10
45.635333
 20
17.060333
 42
0.0
  0
VERTEX
  8
Default
 10
45.974
 20
16.975667
 42
0.0
  0
VERTEX
  8
Default
 10
46.185667
 20
16.975667
 42
0.0
  0
VERTEX
  8
Default
 10
46.524333
 20
17.060333
 42
0.0
  0
VERTEX
  8
Default
 10
46.99
 20
17.526
 42
0.0
  0
VERTEX
  8
Default
 10
62.738
 20
17.526
 42
0.0
  0
VERTEX
  8
Default
 10
62.780333
 20
12.573
 42
0.0
  0
VERTEX
  8
Default
 10
63.330667
 20
12.022667
 42
0.0
  0
VERTEX
  8
Default
 10
83.185
 20
11.980333
 42
0.0
  0
VERTEX
  8
Default
 10
83.650667
 20
11.514667
 42
0.0
  0
VERTEX
  8
Default
 10
83.989333
 20
11.43
 42
0.0
  0
VERTEX
  8
Default
 10
84.201
 20
11.43
 42
0.0
  0
VERTEX
  8
Default
 10
84.539667
 20
11.514667
 42
0.0
  0
VERTEX
  8
Default
 10
85.047667
 20
12.022667
 42
0.0
  0
VERTEX
  8
Default
 10
85.132333
 20
12.361333
 42
0.0
  0
VERTEX
  8
Default
 10
85.132333
 20
12.573
 42
0.0
  0
VERTEX
  8
Default
 10
85.047667
 20
12.911667
 42
0.0
  0
VERTEX
  8
Default
 10
84.539667
 20
13.419667
 42
0.0
  0
VERTEX
  8
Default
 10
84.201
 20
13.504333
 42
0.0
  0
VERTEX
  8
Default
 10
83.989333
 20
13.504333
 42
0.0
  0
VERTEX
  8
Default
 10
83.650667
 20
13.419667
 42
0.0
  0
VERTEX
  8
Default
 10
83.185
 20
12.954
 42
0.0
  0
VERTEX
  8
Default
 10
63.711667
 20
12.954
 42
0.0
  0
VERTEX
  8
Default
 10
63.711667
 20
17.526
 42
0.0
  0
VERTEX
  8
Default
 10
64.516
 20
17.526
 42
0.0
  0
VERTEX
  8
Default
 10
64.516
 20
16.891
 42
0.0
  0
VERTEX
  8
Default
 10
66.378667
 20
16.891
 42
0.0
  0
VERTEX
  8
Default
 10
66.378667
 20
18.753667
 42
0.0
  0
VERTEX
  8
Default
 10
64.516
 20
18.753667
 42
0.0
  0
VERTEX
  8
Default
 10
64.516
 20
18.499667
 42
0.0
  0
VERTEX
  8
Default
 10
46.99
 20
18.499667
 42
0.0
  0
VERTEX
  8
Default
 10
46.524333
 20
18.965333
 42
0.0
  0
VERTEX
  8
Default
 10
46.185667
 20
19.05
 42
0.0
  0
VERTEX
  8
Default
 10
45.889333
 20
19.05
 42
0.0
  0
SEQEND
  0
POLYLINE
  8
Default
 66
     1
 10
0.0
 20
0.0
 30
0.0
 70
     0
  0
VERTEX
  8
Default
 10
72.855667
 20
18.880667
 42
0.0
  0
VERTEX
  8
Default
 10
72.855667
 20
18.880667
 42
0.0
  0
VERTEX
  8
Default
 10
72.601667
 20
18.796
 42
0.0
  0
VERTEX
  8
Default
 10
72.093667
 20
18.288
 42
0.0
  0
VERTEX
  8
Default
 10
72.009
 20
17.949333
 42
0.0
  0
VERTEX
  8
Default
 10
72.009
 20
17.737667
 42
0.0
  0
VERTEX
  8
Default
 10
72.093667
 20
17.399
 42
0.0
  0
VERTEX
  8
Default
 10
72.601667
 20
16.891
 42
0.0
  0
VERTEX
  8
Default
 10
72.940333
 20
16.806333
 42
0.0
  0
VERTEX
  8
Default
 10
73.152
 20
16.806333
 42
0.0
  0
VERTEX
  8
Default
 10
73.490667
 20
16.891
 42
0.0
  0
VERTEX
  8
Default
 10
73.998667
 20
17.399
 42
0.0
  0
VERTEX
  8
Default
 10
74.083333
 20
17.737667
 42
0.0
  0
VERTEX
  8
Default
 10
74.083333
 20
17.949333
 42
0.0
  0
VERTEX
  8
Default
 10
73.998667
 20
18.288
 42
0.0
  0
VERTEX
  8
Default
 10
73.490667
 20
18.796
 42
0.0
  0
VERTEX
  8
Default
 10
73.152
 20
18.880667
 42
0.0
  0
VERTEX
  8
Default
 10
72.855667
 20
18.880667
 42
0.0
  0
SEQEND
  0
POLYLINE
  8
Default
 66
     1
 10
0.0
 20
0.0
 30
0.0
 70
     0
  0
VERTEX
  8
Default
 10
102.319667
 20
18.542
 42
0.0
  0
VERTEX
  8
Default
 10
102.319667
 20
18.542
 42
0.0
  0
VERTEX
  8
Default
 10
102.065667
 20
18.457333
 42
0.0
  0
VERTEX
  8
Default
 10
101.557667
 20
17.949333
 42
0.0
  0
VERTEX
  8
Default
 10
101.473
 20
17.610667
 42
0.0
  0
VERTEX
  8
Default
 10
101.473
 20
17.399
 42
0.0
  0
VERTEX
  8
Default
 10
101.557667
 20
17.060333
 42
0.0
  0
VERTEX
  8
Default
 10
102.065667
 20
16.552333
 42
0.0
  0
VERTEX
  8
Default
 10
102.404333
 20
16.467667
 42
0.0
  0
VERTEX
  8
Default
 10
102.616
 20
16.467667
 42
0.0
  0
VERTEX
  8
Default
 10
102.954667
 20
16.552333
 42
0.0
  0
VERTEX
  8
Default
 10
103.462667
 20
17.060333
 42
0.0
  0
VERTEX
  8
Default
 10
103.547333
 20
17.399
 42
0.0
  0
VERTEX
  8
Default
 10
103.547333
 20
17.610667
 42
0.0
  0
VERTEX
  8
Default
 10
103.462667
 20
17.949333
 42
0.0
  0
VERTEX
  8
Default
 10
102.954667
 20
18.457333
 42
0.0
  0
VERTEX
  8
Default
 10
102.616
 20
18.542
 42
0.0
  0
VERTEX
  8
Default
 10
102.319667
 20
18.542
 42
0.0
  0
SEQEND
  0
POLYLINE
  8
Default
 66
     1
 10
0.0
 20
0.0
 30
0.0
 70
     0
  0
VERTEX
  8
Default
 10
25.611667
 20
17.568333
 42
0.0
  0
VERTEX
  8
Default
 10
25.611667
 20
17.568333
 42
0.0
  0
VERTEX
  8
Default
 10
25.188333
 20
17.399
 42
0.0
  0
VERTEX
  8
Default
 10
24.934333
 20
17.187333
 42
0.0
  0
VERTEX
  8
Default
 10
24.680333
 20
16.891
 42
0.0
  0
VERTEX
  8
Default
 10
24.553333
 20
16.425333
 42
0.0
  0
VERTEX
  8
Default
 10
24.595667
 20
16.002
 42
0.0
  0
VERTEX
  8
Default
 10
24.765
 20
15.621
 42
0.0
  0
VERTEX
  8
Default
 10
25.103667
 20
15.282333
 42
0.0
  0
VERTEX
  8
Default
 10
25.484667
 20
15.113
 42
0.0
  0
VERTEX
  8
Default
 10
26.119667
 20
15.113
 42
0.0
  0
VERTEX
  8
Default
 10
26.500667
 20
15.282333
 42
0.0
  0
VERTEX
  8
Default
 10
26.839333
 20
15.621
 42
0.0
  0
VERTEX
  8
Default
 10
27.008667
 20
16.002
 42
0.0
  0
VERTEX
  8
Default
 10
27.008667
 20
16.637
 42
0.0
  0
VERTEX
  8
Default
 10
26.839333
 20
17.018
 42
0.0
  0
VERTEX
  8
Default
 10
26.500667
 20
17.356667
 42
0.0
  0
VERTEX
  8
Default
 10
26.119667
 20
17.526
 42
0.0
  0
VERTEX
  8
Default
 10
25.611667
 20
17.568333
 42
0.0
  0
SEQEND
  0
POLYLINE
  8
Default
 66
     1
 10
0.0
 20
0.0
 30
0.0
 70
     0
  0
VERTEX
  8
Default
 10
32.173333
 20
17.568333
 42
0.0
  0
VERTEX
  8
Default
 10
32.173333
 20
17.568333
 42
0.0
  0
VERTEX
  8
Default
 10
32.173333
 20
15.070667
 42
0.0
  0
VERTEX
  8
Default
 10
34.671
 20
15.070667
 42
0.0
  0
VERTEX
  8
Default
 10
34.671
 20
17.568333
 42
0.0
  0
VERTEX
  8
Default
 10
32.173333
 20
17.568333
 42
0.0
  0
SEQEND
  0
POLYLINE
  8
Default
 66
     1
 10
0.0
 20
0.0
 30
0.0
 70
     0
  0
VERTEX
  8
Default
 10
13.589
 20
15.621
 42
0.0
  0
VERTEX
  8
Default
 10
13.589
 20
15.621
 42
0.0
  0
VERTEX
  8
Default
 10
13.589
 20
13.208
 42
0.0
  0
VERTEX
  8
Default
 10
16.002
 20
13.208
 42
0.0
  0
VERTEX
  8
Default
 10
16.002
 20
15.621
 42
0.0
  0
VERTEX
  8
Default
 10
13.589
 20
15.621
 42
0.0
  0
SEQEND
  0
POLYLINE
  8
Default
 66
     1
 10
0.0
 20
0.0
 30
0.0
 70
     0
  0
VERTEX
  8
Default
 10
17.145
 20
15.621
 42
0.0
  0
VERTEX
  8
Default
 10
17.145
 20
15.621
 42
0.0
  0
VERTEX
  8
Default
 10
16.764
 20
15.494
 42
0.0
  0
VERTEX
  8
Default
 10
16.256
 20
14.986
 42
0.0
  0
VERTEX
  8
Default
 10
16.129
 20
14.562667
 42
0.0
  0
VERTEX
  8
Default
 10
16.129
 20
14.266333
 42
0.0
  0
VERTEX
  8
Default
 10
16.256
 20
13.843
 42
0.0
  0
VERTEX
  8
Default
 10
16.764
 20
13.335
 42
0.0
  0
VERTEX
  8
Default
 10
17.187333
 20
13.208
 42
0.0
  0
VERTEX
  8
Default
 10
17.483667
 20
13.208
 42
0.0
  0
VERTEX
  8
Default
 10
17.907
 20
13.335
 42
0.0
  0
VERTEX
  8
Default
 10
18.415
 20
13.843
 42
0.0
  0
VERTEX
  8
Default
 10
18.542
 20
14.266333
 42
0.0
  0
VERTEX
  8
Default
 10
18.542
 20
14.562667
 42
0.0
  0
VERTEX
  8
Default
 10
18.415
 20
14.986
 42
0.0
  0
VERTEX
  8
Default
 10
17.907
 20
15.494
 42
0.0
  0
VERTEX
  8
Default
 10
17.483667
 20
15.621
 42
0.0
  0
VERTEX
  8
Default
 10
17.145
 20
15.621
 42
0.0
  0
SEQEND
  0
POLYLINE
  8
Default
 66
     1
 10
0.0
 20
0.0
 30
0.0
 70
     0
  0
VERTEX
  8
Default
 10
19.685
 20
15.621
 42
0.0
  0
VERTEX
  8
Default
 10
19.685
 20
15.621
 42
0.0
  0
VERTEX
  8
Default
 10
19.304
 20
15.494
 42
0.0
  0
VERTEX
  8
Default
 10
18.796
 20
14.986
 42
0.0
  0
VERTEX
  8
Default
 10
18.669
 20
14.562667
 42
0.0
  0
VERTEX
  8
Default
 10
18.669
 20
14.266333
 42
0.0
  0
VERTEX
  8
Default
 10
18.796
 20
13.843
 42
0.0
  0
VERTEX
  8
Default
 10
19.304
 20
13.335
 42
0.0
  0
VERTEX
  8
Default
 10
19.727333
 20
13.208
 42
0.0
  0
VERTEX
  8
Default
 10
20.023667
 20
13.208
 42
0.0
  0
VERTEX
  8
Default
 10
20.447
 20
13.335
 42
0.0
  0
VERTEX
  8
Default
 10
20.955
 20
13.843
 42
0.0
  0
VERTEX
  8
Default
 10
21.082
 20
14.266333
 42
0.0
  0
VERTEX
  8
Default
 10
21.082
 20
14.562667
 42
0.0
  0
VERTEX
  8
Default
 10
20.955
 20
14.986
 42
0.0
  0
VERTEX
  8
Default
 10
20.447
 20
15.494
 42
0.0
  0
VERTEX
  8
Default
 10
20.023667
 20
15.621
 42
0.0
  0
VERTEX
  8
Default
 10
19.685
 20
15.621
 42
0.0
  0
SEQEND
  0
POLYLINE
  8
Default
 66
     1
 10
0.0
 20
0.0
 30
0.0
 70
     0
  0
VERTEX
  8
Default
 10
4.868333
 20
15.578667
 42
0.0
  0
VERTEX
  8
Default
 10
4.868333
 20
15.578667
 42
0.0
  0
VERTEX
  8
Default
 10
4.614333
 20
15.494
 42
0.0
  0
VERTEX
  8
Default
 10
4.106333
 20
14.986
 42
0.0
  0
VERTEX
  8
Default
 10
4.021667
 20
14.647333
 42
0.0
  0
VERTEX
  8
Default
 10
4.021667
 20
14.435667
 42
0.0
  0
VERTEX
  8
Default
 10
4.106333
 20
14.097
 42
0.0
  0
VERTEX
  8
Default
 10
4.614333
 20
13.589
 42
0.0
  0
VERTEX
  8
Default
 10
4.953
 20
13.504333
 42
0.0
  0
VERTEX
  8
Default
 10
5.164667
 20
13.504333
 42
0.0
  0
VERTEX
  8
Default
 10
5.503333
 20
13.589
 42
0.0
  0
VERTEX
  8
Default
 10
6.011333
 20
14.097
 42
0.0
  0
VERTEX
  8
Default
 10
6.096
 20
14.435667
 42
0.0
  0
VERTEX
  8
Default
 10
6.096
 20
14.647333
 42
0.0
  0
VERTEX
  8
Default
 10
6.011333
 20
14.986
 42
0.0
  0
VERTEX
  8
Default
 10
5.503333
 20
15.494
 42
0.0
  0
VERTEX
  8
Default
 10
5.164667
 20
15.578667
 42
0.0
  0
VERTEX
  8
Default
 10
4.868333
 20
15.578667
 42
0.0
  0
SEQEND
  0
POLYLINE
  8
Default
 66
     1
 10
0.0
 20
0.0
 30
0.0
 70
     0
  0
VERTEX
  8
Default
 10
9.694333
 20
15.409333
 42
0.0
  0
VERTEX
  8
Default
 10
9.694333
 20
15.409333
 42
0.0
  0
VERTEX
  8
Default
 10
9.440333
 20
15.324667
 42
0.0
  0
VERTEX
  8
Default
 10
8.932333
 20
14.816667
 42
0.0
  0
VERTEX
  8
Default
 10
8.847667
 20
14.478
 42
0.0
  0
VERTEX
  8
Default
 10
8.847667
 20
14.266333
 42
0.0
  0
VERTEX
  8
Default
 10
8.932333
 20
13.927667
 42
0.0
  0
VERTEX
  8
Default
 10
9.440333
 20
13.419667
 42
0.0
  0
VERTEX
  8
Default
 10
9.779
 20
13.335
 42
0.0
  0
VERTEX
  8
Default
 10
9.990667
 20
13.335
 42
0.0
  0
VERTEX
  8
Default
 10
10.329333
 20
13.419667
 42
0.0
  0
VERTEX
  8
Default
 10
10.837333
 20
13.927667
 42
0.0
  0
VERTEX
  8
Default
 10
10.922
 20
14.266333
 42
0.0
  0
VERTEX
  8
Default
 10
10.922
 20
14.478
 42
0.0
  0
VERTEX
  8
Default
 10
10.837333
 20
14.816667
 42
0.0
  0
VERTEX
  8
Default
 10
10.329333
 20
15.324667
 42
0.0
  0
VERTEX
  8
Default
 10
9.990667
 20
15.409333
 42
0.0
  0
VERTEX
  8
Default
 10
9.694333
 20
15.409333
 42
0.0
  0
SEQEND
  0
POLYLINE
  8
Default
 66
     1
 10
0.0
 20
0.0
 30
0.0
 70
     0
  0
VERTEX
  8
Default
 10
64.346667
 20
15.070667
 42
0.0
  0
VERTEX
  8
Default
 10
64.346667
 20
15.070667
 42
0.0
  0
VERTEX
  8
Default
 10
64.346667
 20
13.208
 42
0.0
  0
VERTEX
  8
Default
 10
66.209333
 20
13.208
 42
0.0
  0
VERTEX
  8
Default
 10
66.209333
 20
15.070667
 42
0.0
  0
VERTEX
  8
Default
 10
64.346667
 20
15.070667
 42
0.0
  0
SEQEND
  0
POLYLINE
  8
Default
 66
     1
 10
0.0
 20
0.0
 30
0.0
 70
     0
  0
VERTEX
  8
Default
 10
38.523333
 20
14.435667
 42
0.0
  0
VERTEX
  8
Default
 10
38.523333
 20
14.435667
 42
0.0
  0
VERTEX
  8
Default
 10
38.269333
 20
14.351
 42
0.0
  0
VERTEX
  8
Default
 10
37.761333
 20
13.843
 42
0.0
  0
VERTEX
  8
Default
 10
37.676667
 20
13.504333
 42
0.0
  0
VERTEX
  8
Default
 10
37.676667
 20
13.292667
 42
0.0
  0
VERTEX
  8
Default
 10
37.761333
 20
12.954
 42
0.0
  0
VERTEX
  8
Default
 10
38.269333
 20
12.446
 42
0.0
  0
VERTEX
  8
Default
 10
38.608
 20
12.361333
 42
0.0
  0
VERTEX
  8
Default
 10
38.819667
 20
12.361333
 42
0.0
  0
VERTEX
  8
Default
 10
39.158333
 20
12.446
 42
0.0
  0
VERTEX
  8
Default
 10
39.666333
 20
12.954
 42
0.0
  0
VERTEX
  8
Default
 10
39.751
 20
13.292667
 42
0.0
  0
VERTEX
  8
Default
 10
39.751
 20
13.504333
 42
0.0
  0
VERTEX
  8
Default
 10
39.666333
 20
13.843
 42
0.0
  0
VERTEX
  8
Default
 10
39.158333
 20
14.351
 42
0.0
  0
VERTEX
  8
Default
 10
38.819667
 20
14.435667
 42
0.0
  0
VERTEX
  8
Default
 10
38.523333
 20
14.435667
 42
0.0
  0
SEQEND
  0
POLYLINE
  8
Default
 66
     1
 10
0.0
 20
0.0
 30
0.0
 70
     0
  0
VERTEX
  8
Default
 10
57.488667
 20
14.266333
 42
0.0
  0
VERTEX
  8
Default
 10
57.488667
 20
14.266333
 42
0.0
  0
VERTEX
  8
Default
 10
57.488667
 20
12.149667
 42
0.0
  0
VERTEX
  8
Default
 10
59.605333
 20
12.149667
 42
0.0
  0
VERTEX
  8
Default
 10
59.605333
 20
14.266333
 42
0.0
  0
VERTEX
  8
Default
 10
57.488667
 20
14.266333
 42
0.0
  0
SEQEND
  0
POLYLINE
  8
Default
 66
     1
 10
0.0
 20
0.0
 30
0.0
 70
     0
  0
VERTEX
  8
Default
 10
43.095333
 20
14.224
 42
0.0
  0
VERTEX
  8
Default
 10
43.095333
 20
14.224
 42
0.0
  0
VERTEX
  8
Default
 10
42.841333
 20
14.139333
 42
0.0
  0
VERTEX
  8
Default
 10
42.333333
 20
13.631333
 42
0.0
  0
VERTEX
  8
Default
 10
42.248667
 20
13.292667
 42
0.0
  0
VERTEX
  8
Default
 10
42.248667
 20
13.081
 42
0.0
  0
VERTEX
  8
Default
 10
42.333333
 20
12.742333
 42
0.0
  0
VERTEX
  8
Default
 10
42.841333
 20
12.234333
 42
0.0
  0
VERTEX
  8
Default
 10
43.18
 20
12.149667
 42
0.0
  0
VERTEX
  8
Default
 10
43.391667
 20
12.149667
 42
0.0
  0
VERTEX
  8
Default
 10
43.730333
 20
12.234333
 42
0.0
  0
VERTEX
  8
Default
 10
44.238333
 20
12.742333
 42
0.0
  0
VERTEX
  8
Default
 10
44.323
 20
13.081
 42
0.0
  0
VERTEX
  8
Default
 10
44.323
 20
13.292667
 42
0.0
  0
VERTEX
  8
Default
 10
44.238333
 20
13.631333
 42
0.0
  0
VERTEX
  8
Default
 10
43.730333
 20
14.139333
 42
0.0
  0
VERTEX
  8
Default
 10
43.391667
 20
14.224
 42
0.0
  0
VERTEX
  8
Default
 10
43.095333
 20
14.224
 42
0.0
  0
SEQEND
  0
POLYLINE
  8
Default
 66
     1
 10
0.0
 20
0.0
 30
0.0
 70
     0
  0
VERTEX
  8
Default
 10
45.635333
 20
14.224
 42
0.0
  0
VERTEX
  8
Default
 10
45.635333
 20
14.224
 42
0.0
  0
VERTEX
  8
Default
 10
45.381333
 20
14.139333
 42
0.0
  0
VERTEX
  8
Default
 10
44.873333
 20
13.631333
 42
0.0
  0
VERTEX
  8
Default
 10
44.788667
 20
13.292667
 42
0.0
  0
VERTEX
  8
Default
 10
44.788667
 20
13.081
 42
0.0
  0
VERTEX
  8
Default
 10
44.873333
 20
12.742333
 42
0.0
  0
VERTEX
  8
Default
 10
45.381333
 20
12.234333
 42
0.0
  0
VERTEX
  8
Default
 10
45.72
 20
12.149667
 42
0.0
  0
VERTEX
  8
Default
 10
45.931667
 20
12.149667
 42
0.0
  0
VERTEX
  8
Default
 10
46.270333
 20
12.234333
 42
0.0
  0
VERTEX
  8
Default
 10
46.778333
 20
12.742333
 42
0.0
  0
VERTEX
  8
Default
 10
46.863
 20
13.081
 42
0.0
  0
VERTEX
  8
Default
 10
46.863
 20
13.292667
 42
0.0
  0
VERTEX
  8
Default
 10
46.778333
 20
13.631333
 42
0.0
  0
VERTEX
  8
Default
 10
46.270333
 20
14.139333
 42
0.0
  0
VERTEX
  8
Default
 10
45.931667
 20
14.224
 42
0.0
  0
VERTEX
  8
Default
 10
45.635333
 20
14.224
 42
0.0
  0
SEQEND
  0
POLYLINE
  8
Default
 66
     1
 10
0.0
 20
0.0
 30
0.0
 70
     0
  0
VERTEX
  8
Default
 10
48.175333
 20
14.224
 42
0.0
  0
VERTEX
  8
Default
 10
48.175333
 20
14.224
 42
0.0
  0
VERTEX
  8
Default
 10
47.921333
 20
14.139333
 42
0.0
  0
VERTEX
  8
Default
 10
47.413333
 20
13.631333
 42
0.0
  0
VERTEX
  8
Default
 10
47.328667
 20
13.292667
 42
0.0
  0
VERTEX
  8
Default
 10
47.328667
 20
13.081
 42
0.0
  0
VERTEX
  8
Default
 10
47.413333
 20
12.742333
 42
0.0
  0
VERTEX
  8
Default
 10
47.921333
 20
12.234333
 42
0.0
  0
VERTEX
  8
Default
 10
48.26
 20
12.149667
 42
0.0
  0
VERTEX
  8
Default
 10
48.471667
 20
12.149667
 42
0.0
  0
VERTEX
  8
Default
 10
48.810333
 20
12.234333
 42
0.0
  0
VERTEX
  8
Default
 10
49.318333
 20
12.742333
 42
0.0
  0
VERTEX
  8
Default
 10
49.403
 20
13.081
 42
0.0
  0
VERTEX
  8
Default
 10
49.403
 20
13.292667
 42
0.0
  0
VERTEX
  8
Default
 10
49.318333
 20
13.631333
 42
0.0
  0
VERTEX
  8
Default
 10
48.810333
 20
14.139333
 42
0.0
  0
VERTEX
  8
Default
 10
48.471667
 20
14.224
 42
0.0
  0
VERTEX
  8
Default
 10
48.175333
 20
14.224
 42
0.0
  0
SEQEND
  0
POLYLINE
  8
Default
 66
     1
 10
0.0
 20
0.0
 30
0.0
 70
     0
  0
VERTEX
  8
Default
 10
50.715333
 20
14.224
 42
0.0
  0
VERTEX
  8
Default
 10
50.715333
 20
14.224
 42
0.0
  0
VERTEX
  8
Default
 10
50.461333
 20
14.139333
 42
0.0
  0
VERTEX
  8
Default
 10
49.953333
 20
13.631333
 42
0.0
  0
VERTEX
  8
Default
 10
49.868667
 20
13.292667
 42
0.0
  0
VERTEX
  8
Default
 10
49.868667
 20
13.081
 42
0.0
  0
VERTEX
  8
Default
 10
49.953333
 20
12.742333
 42
0.0
  0
VERTEX
  8
Default
 10
50.461333
 20
12.234333
 42
0.0
  0
VERTEX
  8
Default
 10
50.8
 20
12.149667
 42
0.0
  0
VERTEX
  8
Default
 10
51.011667
 20
12.149667
 42
0.0
  0
VERTEX
  8
Default
 10
51.350333
 20
12.234333
 42
0.0
  0
VERTEX
  8
Default
 10
51.858333
 20
12.742333
 42
0.0
  0
VERTEX
  8
Default
 10
51.943
 20
13.081
 42
0.0
  0
VERTEX
  8
Default
 10
51.943
 20
13.292667
 42
0.0
  0
VERTEX
  8
Default
 10
51.858333
 20
13.631333
 42
0.0
  0
VERTEX
  8
Default
 10
51.350333
 20
14.139333
 42
0.0
  0
VERTEX
  8
Default
 10
51.011667
 20
14.224
 42
0.0
  0
VERTEX
  8
Default
 10
50.715333
 20
14.224
 42
0.0
  0
SEQEND
  0
POLYLINE
  8
Default
 66
     1
 10
0.0
 20
0.0
 30
0.0
 70
     0
  0
VERTEX
  8
Default
 10
53.255333
 20
14.224
 42
0.0
  0
VERTEX
  8
Default
 10
53.255333
 20
14.224
 42
0.0
  0
VERTEX
  8
Default
 10
53.001333
 20
14.139333
 42
0.0
  0
VERTEX
  8
Default
 10
52.493333
 20
13.631333
 42
0.0
  0
VERTEX
  8
Default
 10
52.408667
 20
13.292667
 42
0.0
  0
VERTEX
  8
Default
 10
52.408667
 20
13.081
 42
0.0
  0
VERTEX
  8
Default
 10
52.493333
 20
12.742333
 42
0.0
  0
VERTEX
  8
Default
 10
53.001333
 20
12.234333
 42
0.0
  0
VERTEX
  8
Default
 10
53.34
 20
12.149667
 42
0.0
  0
VERTEX
  8
Default
 10
53.551667
 20
12.149667
 42
0.0
  0
VERTEX
  8
Default
 10
53.890333
 20
12.234333
 42
0.0
  0
VERTEX
  8
Default
 10
54.398333
 20
12.742333
 42
0.0
  0
VERTEX
  8
Default
 10
54.483
 20
13.081
 42
0.0
  0
VERTEX
  8
Default
 10
54.483
 20
13.292667
 42
0.0
  0
VERTEX
  8
Default
 10
54.398333
 20
13.631333
 42
0.0
  0
VERTEX
  8
Default
 10
53.890333
 20
14.139333
 42
0.0
  0
VERTEX
  8
Default
 10
53.551667
 20
14.224
 42
0.0
  0
VERTEX
  8
Default
 10
53.255333
 20
14.224
 42
0.0
  0
SEQEND
  0
POLYLINE
  8
Default
 66
     1
 10
0.0
 20
0.0
 30
0.0
 70
     0
  0
VERTEX
  8
Default
 10
55.795333
 20
14.224
 42
0.0
  0
VERTEX
  8
Default
 10
55.795333
 20
14.224
 42
0.0
  0
VERTEX
  8
Default
 10
55.541333
 20
14.139333
 42
0.0
  0
VERTEX
  8
Default
 10
55.033333
 20
13.631333
 42
0.0
  0
VERTEX
  8
Default
 10
54.948667
 20
13.292667
 42
0.0
  0
VERTEX
  8
Default
 10
54.948667
 20
13.081
 42
0.0
  0
VERTEX
  8
Default
 10
55.033333
 20
12.742333
 42
0.0
  0
VERTEX
  8
Default
 10
55.541333
 20
12.234333
 42
0.0
  0
VERTEX
  8
Default
 10
55.88
 20
12.149667
 42
0.0
  0
VERTEX
  8
Default
 10
56.091667
 20
12.149667
 42
0.0
  0
VERTEX
  8
Default
 10
56.430333
 20
12.234333
 42
0.0
  0
VERTEX
  8
Default
 10
56.938333
 20
12.742333
 42
0.0
  0
VERTEX
  8
Default
 10
57.023
 20
13.081
 42
0.0
  0
VERTEX
  8
Default
 10
57.023
 20
13.292667
 42
0.0
  0
VERTEX
  8
Default
 10
56.938333
 20
13.631333
 42
0.0
  0
VERTEX
  8
Default
 10
56.430333
 20
14.139333
 42
0.0
  0
VERTEX
  8
Default
 10
56.091667
 20
14.224
 42
0.0
  0
VERTEX
  8
Default
 10
55.795333
 20
14.224
 42
0.0
  0
SEQEND
  0
POLYLINE
  8
Default
 66
     1
 10
0.0
 20
0.0
 30
0.0
 70
     0
  0
VERTEX
  8
Default
 10
37.634333
 20
11.895667
 42
0.0
  0
VERTEX
  8
Default
 10
37.634333
 20
11.895667
 42
0.0
  0
VERTEX
  8
Default
 10
37.634333
 20
9.779
 42
0.0
  0
VERTEX
  8
Default
 10
39.751
 20
9.779
 42
0.0
  0
VERTEX
  8
Default
 10
39.751
 20
11.895667
 42
0.0
  0
VERTEX
  8
Default
 10
37.634333
 20
11.895667
 42
0.0
  0
SEQEND
  0
POLYLINE
  8
Default
 66
     1
 10
0.0
 20
0.0
 30
0.0
 70
     0
  0
VERTEX
  8
Default
 10
81.534
 20
11.768667
 42
0.0
  0
VERTEX
  8
Default
 10
81.534
 20
11.768667
 42
0.0
  0
VERTEX
  8
Default
 10
81.28
 20
11.684
 42
0.0
  0
VERTEX
  8
Default
 10
80.772
 20
11.176
 42
0.0
  0
VERTEX
  8
Default
 10
80.687333
 20
10.837333
 42
0.0
  0
VERTEX
  8
Default
 10
80.687333
 20
10.625667
 42
0.0
  0
VERTEX
  8
Default
 10
80.772
 20
10.287
 42
0.0
  0
VERTEX
  8
Default
 10
81.28
 20
9.779
 42
0.0
  0
VERTEX
  8
Default
 10
81.618667
 20
9.694333
 42
0.0
  0
VERTEX
  8
Default
 10
81.830333
 20
9.694333
 42
0.0
  0
VERTEX
  8
Default
 10
82.169
 20
9.779
 42
0.0
  0
VERTEX
  8
Default
 10
82.677
 20
10.287
 42
0.0
  0
VERTEX
  8
Default
 10
82.761667
 20
10.625667
 42
0.0
  0
VERTEX
  8
Default
 10
82.761667
 20
10.837333
 42
0.0
  0
VERTEX
  8
Default
 10
82.677
 20
11.176
 42
0.0
  0
VERTEX
  8
Default
 10
82.169
 20
11.684
 42
0.0
  0
VERTEX
  8
Default
 10
81.830333
 20
11.768667
 42
0.0
  0
VERTEX
  8
Default
 10
81.534
 20
11.768667
 42
0.0
  0
SEQEND
  0
POLYLINE
  8
Default
 66
     1
 10
0.0
 20
0.0
 30
0.0
 70
     0
  0
VERTEX
  8
Default
 10
49.868667
 20
10.710333
 42
0.0
  0
VERTEX
  8
Default
 10
49.868667
 20
10.710333
 42
0.0
  0
VERTEX
  8
Default
 10
49.614667
 20
10.625667
 42
0.0
  0
VERTEX
  8
Default
 10
49.106667
 20
10.117667
 42
0.0
  0
VERTEX
  8
Default
 10
49.022
 20
9.779
 42
0.0
  0
VERTEX
  8
Default
 10
49.022
 20
9.567333
 42
0.0
  0
VERTEX
  8
Default
 10
49.106667
 20
9.228667
 42
0.0
  0
VERTEX
  8
Default
 10
49.614667
 20
8.720667
 42
0.0
  0
VERTEX
  8
Default
 10
49.995667
 20
8.636
 42
0.0
  0
VERTEX
  8
Default
 10
50.376667
 20
8.678333
 42
0.0
  0
VERTEX
  8
Default
 10
51.646667
 20
7.450667
 42
0.0
  0
VERTEX
  8
Default
 10
61.806667
 20
7.408333
 42
0.0
  0
VERTEX
  8
Default
 10
63.161333
 20
6.096
 42
0.0
  0
VERTEX
  8
Default
 10
64.389
 20
6.053667
 42
0.0
  0
VERTEX
  8
Default
 10
64.854667
 20
5.588
 42
0.0
  0
VERTEX
  8
Default
 10
65.193333
 20
5.503333
 42
0.0
  0
VERTEX
  8
Default
 10
65.405
 20
5.503333
 42
0.0
  0
VERTEX
  8
Default
 10
65.743667
 20
5.588
 42
0.0
  0
VERTEX
  8
Default
 10
66.251667
 20
6.096
 42
0.0
  0
VERTEX
  8
Default
 10
66.336333
 20
6.434667
 42
0.0
  0
VERTEX
  8
Default
 10
66.336333
 20
6.646333
 42
0.0
  0
VERTEX
  8
Default
 10
66.251667
 20
6.985
 42
0.0
  0
VERTEX
  8
Default
 10
65.743667
 20
7.493
 42
0.0
  0
VERTEX
  8
Default
 10
65.405
 20
7.577667
 42
0.0
  0
VERTEX
  8
Default
 10
65.193333
 20
7.577667
 42
0.0
  0
VERTEX
  8
Default
 10
64.854667
 20
7.493
 42
0.0
  0
VERTEX
  8
Default
 10
64.389
 20
7.027333
 42
0.0
  0
VERTEX
  8
Default
 10
63.542333
 20
7.027333
 42
0.0
  0
VERTEX
  8
Default
 10
62.187667
 20
8.339667
 42
0.0
  0
VERTEX
  8
Default
 10
52.027667
 20
8.382
 42
0.0
  0
VERTEX
  8
Default
 10
51.054
 20
9.313333
 42
0.0
  0
VERTEX
  8
Default
 10
51.096333
 20
9.736667
 42
0.0
  0
VERTEX
  8
Default
 10
51.011667
 20
10.117667
 42
0.0
  0
VERTEX
  8
Default
 10
50.503667
 20
10.625667
 42
0.0
  0
VERTEX
  8
Default
 10
50.165
 20
10.710333
 42
0.0
  0
VERTEX
  8
Default
 10
49.868667
 20
10.710333
 42
0.0
  0
SEQEND
  0
POLYLINE
  8
Default
 66
     1
 10
0.0
 20
0.0
 30
0.0
 70
     0
  0
VERTEX
  8
Default
 10
27.559
 20
10.244667
 42
0.0
  0
VERTEX
  8
Default
 10
27.559
 20
10.244667
 42
0.0
  0
VERTEX
  8
Default
 10
27.305
 20
10.16
 42
0.0
  0
VERTEX
  8
Default
 10
26.797
 20
9.652
 42
0.0
  0
VERTEX
  8
Default
 10
26.712333
 20
9.313333
 42
0.0
  0
VERTEX
  8
Default
 10
26.712333
 20
9.101667
 42
0.0
  0
VERTEX
  8
Default
 10
26.797
 20
8.763
 42
0.0
  0
VERTEX
  8
Default
 10
27.305
 20
8.255
 42
0.0
  0
VERTEX
  8
Default
 10
27.643667
 20
8.170333
 42
0.0
  0
VERTEX
  8
Default
 10
27.855333
 20
8.170333
 42
0.0
  0
VERTEX
  8
Default
 10
28.194
 20
8.255
 42
0.0
  0
VERTEX
  8
Default
 10
28.702
 20
8.763
 42
0.0
  0
VERTEX
  8
Default
 10
28.786667
 20
9.101667
 42
0.0
  0
VERTEX
  8
Default
 10
28.786667
 20
9.313333
 42
0.0
  0
VERTEX
  8
Default
 10
28.702
 20
9.652
 42
0.0
  0
VERTEX
  8
Default
 10
28.194
 20
10.16
 42
0.0
  0
VERTEX
  8
Default
 10
27.855333
 20
10.244667
 42
0.0
  0
VERTEX
  8
Default
 10
27.559
 20
10.244667
 42
0.0
  0
SEQEND
  0
POLYLINE
  8
Default
 66
     1
 10
0.0
 20
0.0
 30
0.0
 70
     0
  0
VERTEX
  8
Default
 10
3.513667
 20
10.202333
 42
0.0
  0
VERTEX
  8
Default
 10
3.513667
 20
10.202333
 42
0.0
  0
VERTEX
  8
Default
 10
3.259667
 20
10.117667
 42
0.0
  0
VERTEX
  8
Default
 10
2.751667
 20
9.609667
 42
0.0
  0
VERTEX
  8
Default
 10
2.667
 20
9.271
 42
0.0
  0
VERTEX
  8
Default
 10
2.667
 20
9.059333
 42
0.0
  0
VERTEX
  8
Default
 10
2.751667
 20
8.720667
 42
0.0
  0
VERTEX
  8
Default
 10
3.259667
 20
8.212667
 42
0.0
  0
VERTEX
  8
Default
 10
3.598333
 20
8.128
 42
0.0
  0
VERTEX
  8
Default
 10
3.81
 20
8.128
 42
0.0
  0
VERTEX
  8
Default
 10
4.148667
 20
8.212667
 42
0.0
  0
VERTEX
  8
Default
 10
4.656667
 20
8.720667
 42
0.0
  0
VERTEX
  8
Default
 10
4.741333
 20
9.059333
 42
0.0
  0
VERTEX
  8
Default
 10
4.741333
 20
9.271
 42
0.0
  0
VERTEX
  8
Default
 10
4.656667
 20
9.609667
 42
0.0
  0
VERTEX
  8
Default
 10
4.148667
 20
10.117667
 42
0.0
  0
VERTEX
  8
Default
 10
3.81
 20
10.202333
 42
0.0
  0
VERTEX
  8
Default
 10
3.513667
 20
10.202333
 42
0.0
  0
SEQEND
  0
POLYLINE
  8
Default
 66
     1
 10
0.0
 20
0.0
 30
0.0
 70
     0
  0
VERTEX
  8
Default
 10
11.133667
 20
10.202333
 42
0.0
  0
VERTEX
  8
Default
 10
11.133667
 20
10.202333
 42
0.0
  0
VERTEX
  8
Default
 10
10.879667
 20
10.117667
 42
0.0
  0
VERTEX
  8
Default
 10
10.371667
 20
9.609667
 42
0.0
  0
VERTEX
  8
Default
 10
10.287
 20
9.271
 42
0.0
  0
VERTEX
  8
Default
 10
10.287
 20
9.059333
 42
0.0
  0
VERTEX
  8
Default
 10
10.371667
 20
8.720667
 42
0.0
  0
VERTEX
  8
Default
 10
10.879667
 20
8.212667
 42
0.0
  0
VERTEX
  8
Default
 10
11.218333
 20
8.128
 42
0.0
  0
VERTEX
  8
Default
 10
11.43
 20
8.128
 42
0.0
  0
VERTEX
  8
Default
 10
11.768667
 20
8.212667
 42
0.0
  0
VERTEX
  8
Default
 10
12.276667
 20
8.720667
 42
0.0
  0
VERTEX
  8
Default
 10
12.361333
 20
9.059333
 42
0.0
  0
VERTEX
  8
Default
 10
12.361333
 20
9.271
 42
0.0
  0
VERTEX
  8
Default
 10
12.276667
 20
9.609667
 42
0.0
  0
VERTEX
  8
Default
 10
11.768667
 20
10.117667
 42
0.0
  0
VERTEX
  8
Default
 10
11.43
 20
10.202333
 42
0.0
  0
VERTEX
  8
Default
 10
11.133667
 20
10.202333
 42
0.0
  0
SEQEND
  0
POLYLINE
  8
Default
 66
     1
 10
0.0
 20
0.0
 30
0.0
 70
     0
  0
VERTEX
  8
Default
 10
19.177
 20
10.16
 42
0.0
  0
VERTEX
  8
Default
 10
19.177
 20
10.16
 42
0.0
  0
VERTEX
  8
Default
 10
19.177
 20
8.297333
 42
0.0
  0
VERTEX
  8
Default
 10
21.039667
 20
8.297333
 42
0.0
  0
VERTEX
  8
Default
 10
21.039667
 20
10.16
 42
0.0
  0
VERTEX
  8
Default
 10
19.177
 20
10.16
 42
0.0
  0
SEQEND
  0
POLYLINE
  8
Default
 66
     1
 10
0.0
 20
0.0
 30
0.0
 70
     0
  0
VERTEX
  8
Default
 10
43.095333
 20
6.604
 42
0.0
  0
VERTEX
  8
Default
 10
43.095333
 20
6.604
 42
0.0
  0
VERTEX
  8
Default
 10
42.841333
 20
6.519333
 42
0.0
  0
VERTEX
  8
Default
 10
42.333333
 20
6.011333
 42
0.0
  0
VERTEX
  8
Default
 10
42.248667
 20
5.672667
 42
0.0
  0
VERTEX
  8
Default
 10
42.248667
 20
5.461
 42
0.0
  0
VERTEX
  8
Default
 10
42.333333
 20
5.122333
 42
0.0
  0
VERTEX
  8
Default
 10
42.841333
 20
4.614333
 42
0.0
  0
VERTEX
  8
Default
 10
43.18
 20
4.529667
 42
0.0
  0
VERTEX
  8
Default
 10
43.391667
 20
4.529667
 42
0.0
  0
VERTEX
  8
Default
 10
43.730333
 20
4.614333
 42
0.0
  0
VERTEX
  8
Default
 10
44.238333
 20
5.122333
 42
0.0
  0
VERTEX
  8
Default
 10
44.323
 20
5.461
 42
0.0
  0
VERTEX
  8
Default
 10
44.323
 20
5.672667
 42
0.0
  0
VERTEX
  8
Default
 10
44.238333
 20
6.011333
 42
0.0
  0
VERTEX
  8
Default
 10
43.730333
 20
6.519333
 42
0.0
  0
VERTEX
  8
Default
 10
43.391667
 20
6.604
 42
0.0
  0
VERTEX
  8
Default
 10
43.095333
 20
6.604
 42
0.0
  0
SEQEND
  0
POLYLINE
  8
Default
 66
     1
 10
0.0
 20
0.0
 30
0.0
 70
     0
  0
VERTEX
  8
Default
 10
45.635333
 20
6.604
 42
0.0
  0
VERTEX
  8
Default
 10
45.635333
 20
6.604
 42
0.0
  0
VERTEX
  8
Default
 10
45.381333
 20
6.519333
 42
0.0
  0
VERTEX
  8
Default
 10
44.873333
 20
6.011333
 42
0.0
  0
VERTEX
  8
Default
 10
44.788667
 20
5.672667
 42
0.0
  0
VERTEX
  8
Default
 10
44.788667
 20
5.461
 42
0.0
  0
VERTEX
  8
Default
 10
44.873333
 20
5.122333
 42
0.0
  0
VERTEX
  8
Default
 10
45.381333
 20
4.614333
 42
0.0
  0
VERTEX
  8
Default
 10
45.72
 20
4.529667
 42
0.0
  0
VERTEX
  8
Default
 10
45.931667
 20
4.529667
 42
0.0
  0
VERTEX
  8
Default
 10
46.270333
 20
4.614333
 42
0.0
  0
VERTEX
  8
Default
 10
46.778333
 20
5.122333
 42
0.0
  0
VERTEX
  8
Default
 10
46.863
 20
5.461
 42
0.0
  0
VERTEX
  8
Default
 10
46.863
 20
5.672667
 42
0.0
  0
VERTEX
  8
Default
 10
46.778333
 20
6.011333
 42
0.0
  0
VERTEX
  8
Default
 10
46.270333
 20
6.519333
 42
0.0
  0
VERTEX
  8
Default
 10
45.931667
 20
6.604
 42
0.0
  0
VERTEX
  8
Default
 10
45.635333
 20
6.604
 42
0.0
  0
SEQEND
  0
POLYLINE
  8
Default
 66
     1
 10
0.0
 20
0.0
 30
0.0
 70
     0
  0
VERTEX
  8
Default
 10
48.175333
 20
6.604
 42
0.0
  0
VERTEX
  8
Default
 10
48.175333
 20
6.604
 42
0.0
  0
VERTEX
  8
Default
 10
47.921333
 20
6.519333
 42
0.0
  0
VERTEX
  8
Default
 10
47.413333
 20
6.011333
 42
0.0
  0
VERTEX
  8
Default
 10
47.328667
 20
5.672667
 42
0.0
  0
VERTEX
  8
Default
 10
47.328667
 20
5.461
 42
0.0
  0
VERTEX
  8
Default
 10
47.413333
 20
5.122333
 42
0.0
  0
VERTEX
  8
Default
 10
47.921333
 20
4.614333
 42
0.0
  0
VERTEX
  8
Default
 10
48.26
 20
4.529667
 42
0.0
  0
VERTEX
  8
Default
 10
48.471667
 20
4.529667
 42
0.0
  0
VERTEX
  8
Default
 10
48.810333
 20
4.614333
 42
0.0
  0
VERTEX
  8
Default
 10
49.318333
 20
5.122333
 42
0.0
  0
VERTEX
  8
Default
 10
49.403
 20
5.461
 42
0.0
  0
VERTEX
  8
Default
 10
49.403
 20
5.672667
 42
0.0
  0
VERTEX
  8
Default
 10
49.318333
 20
6.011333
 42
0.0
  0
VERTEX
  8
Default
 10
48.810333
 20
6.519333
 42
0.0
  0
VERTEX
  8
Default
 10
48.471667
 20
6.604
 42
0.0
  0
VERTEX
  8
Default
 10
48.175333
 20
6.604
 42
0.0
  0
SEQEND
  0
POLYLINE
  8
Default
 66
     1
 10
0.0
 20
0.0
 30
0.0
 70
     0
  0
VERTEX
  8
Default
 10
50.715333
 20
6.604
 42
0.0
  0
VERTEX
  8
Default
 10
50.715333
 20
6.604
 42
0.0
  0
VERTEX
  8
Default
 10
50.461333
 20
6.519333
 42
0.0
  0
VERTEX
  8
Default
 10
49.953333
 20
6.011333
 42
0.0
  0
VERTEX
  8
Default
 10
49.868667
 20
5.672667
 42
0.0
  0
VERTEX
  8
Default
 10
49.868667
 20
5.461
 42
0.0
  0
VERTEX
  8
Default
 10
49.953333
 20
5.122333
 42
0.0
  0
VERTEX
  8
Default
 10
50.461333
 20
4.614333
 42
0.0
  0
VERTEX
  8
Default
 10
50.8
 20
4.529667
 42
0.0
  0
VERTEX
  8
Default
 10
51.011667
 20
4.529667
 42
0.0
  0
VERTEX
  8
Default
 10
51.350333
 20
4.614333
 42
0.0
  0
VERTEX
  8
Default
 10
51.858333
 20
5.122333
 42
0.0
  0
VERTEX
  8
Default
 10
51.943
 20
5.461
 42
0.0
  0
VERTEX
  8
Default
 10
51.943
 20
5.672667
 42
0.0
  0
VERTEX
  8
Default
 10
51.858333
 20
6.011333
 42
0.0
  0
VERTEX
  8
Default
 10
51.350333
 20
6.519333
 42
0.0
  0
VERTEX
  8
Default
 10
51.011667
 20
6.604
 42
0.0
  0
VERTEX
  8
Default
 10
50.715333
 20
6.604
 42
0.0
  0
SEQEND
  0
POLYLINE
  8
Default
 66
     1
 10
0.0
 20
0.0
 30
0.0
 70
     0
  0
VERTEX
  8
Default
 10
53.255333
 20
6.604
 42
0.0
  0
VERTEX
  8
Default
 10
53.255333
 20
6.604
 42
0.0
  0
VERTEX
  8
Default
 10
53.001333
 20
6.519333
 42
0.0
  0
VERTEX
  8
Default
 10
52.493333
 20
6.011333
 42
0.0
  0
VERTEX
  8
Default
 10
52.408667
 20
5.672667
 42
0.0
  0
VERTEX
  8
Default
 10
52.408667
 20
5.461
 42
0.0
  0
VERTEX
  8
Default
 10
52.493333
 20
5.122333
 42
0.0
  0
VERTEX
  8
Default
 10
53.001333
 20
4.614333
 42
0.0
  0
VERTEX
  8
Default
 10
53.34
 20
4.529667
 42
0.0
  0
VERTEX
  8
Default
 10
53.551667
 20
4.529667
 42
0.0
  0
VERTEX
  8
Default
 10
53.890333
 20
4.614333
 42
0.0
  0
VERTEX
  8
Default
 10
54.398333
 20
5.122333
 42
0.0
  0
VERTEX
  8
Default
 10
54.483
 20
5.461
 42
0.0
  0
VERTEX
  8
Default
 10
54.483
 20
5.672667
 42
0.0
  0
VERTEX
  8
Default
 10
54.398333
 20
6.011333
 42
0.0
  0
VERTEX
  8
Default
 10
53.890333
 20
6.519333
 42
0.0
  0
VERTEX
  8
Default
 10
53.551667
 20
6.604
 42
0.0
  0
VERTEX
  8
Default
 10
53.255333
 20
6.604
 42
0.0
  0
SEQEND
  0
POLYLINE
  8
Default
 66
     1
 10
0.0
 20
0.0
 30
0.0
 70
     0
  0
VERTEX
  8
Default
 10
55.795333
 20
6.604
 42
0.0
  0
VERTEX
  8
Default
 10
55.795333
 20
6.604
 42
0.0
  0
VERTEX
  8
Default
 10
55.541333
 20
6.519333
 42
0.0
  0
VERTEX
  8
Default
 10
55.033333
 20
6.011333
 42
0.0
  0
VERTEX
  8
Default
 10
54.948667
 20
5.672667
 42
0.0
  0
VERTEX
  8
Default
 10
54.948667
 20
5.461
 42
0.0
  0
VERTEX
  8
Default
 10
55.033333
 20
5.122333
 42
0.0
  0
VERTEX
  8
Default
 10
55.541333
 20
4.614333
 42
0.0
  0
VERTEX
  8
Default
 10
55.88
 20
4.529667
 42
0.0
  0
VERTEX
  8
Default
 10
56.091667
 20
4.529667
 42
0.0
  0
VERTEX
  8
Default
 10
56.430333
 20
4.614333
 42
0.0
  0
VERTEX
  8
Default
 10
56.938333
 20
5.122333
 42
0.0
  0
VERTEX
  8
Default
 10
57.023
 20
5.461
 42
0.0
  0
VERTEX
  8
Default
 10
57.023
 20
5.672667
 42
0.0
  0
VERTEX
  8
Default
 10
56.938333
 20
6.011333
 42
0.0
  0
VERTEX
  8
Default
 10
56.430333
 20
6.519333
 42
0.0
  0
VERTEX
  8
Default
 10
56.091667
 20
6.604
 42
0.0
  0
VERTEX
  8
Default
 10
55.795333
 20
6.604
 42
0.0
  0
SEQEND
  0
POLYLINE
  8
Default
 66
     1
 10
0.0
 20
0.0
 30
0.0
 70
     0
  0
VERTEX
  8
Default
 10
58.335333
 20
6.604
 42
0.0
  0
VERTEX
  8
Default
 10
58.335333
 20
6.604
 42
0.0
  0
VERTEX
  8
Default
 10
58.081333
 20
6.519333
 42
0.0
  0
VERTEX
  8
Default
 10
57.573333
 20
6.011333
 42
0.0
  0
VERTEX
  8
Default
 10
57.488667
 20
5.672667
 42
0.0
  0
VERTEX
  8
Default
 10
57.488667
 20
5.461
 42
0.0
  0
VERTEX
  8
Default
 10
57.573333
 20
5.122333
 42
0.0
  0
VERTEX
  8
Default
 10
58.081333
 20
4.614333
 42
0.0
  0
VERTEX
  8
Default
 10
58.42
 20
4.529667
 42
0.0
  0
VERTEX
  8
Default
 10
58.631667
 20
4.529667
 42
0.0
  0
VERTEX
  8
Default
 10
58.970333
 20
4.614333
 42
0.0
  0
VERTEX
  8
Default
 10
59.478333
 20
5.122333
 42
0.0
  0
VERTEX
  8
Default
 10
59.563
 20
5.461
 42
0.0
  0
VERTEX
  8
Default
 10
59.563
 20
5.672667
 42
0.0
  0
VERTEX
  8
Default
 10
59.478333
 20
6.011333
 42
0.0
  0
VERTEX
  8
Default
 10
58.970333
 20
6.519333
 42
0.0
  0
VERTEX
  8
Default
 10
58.631667
 20
6.604
 42
0.0
  0
VERTEX
  8
Default
 10
58.335333
 20
6.604
 42
0.0
  0
SEQEND
  0
POLYLINE
  8
Default
 66
     1
 10
0.0
 20
0.0
 30
0.0
 70
     0
  0
VERTEX
  8
Default
 10
43.264667
 20
3.852333
 42
0.0
  0
VERTEX
  8
Default
 10
43.264667
 20
3.852333
 42
0.0
  0
VERTEX
  8
Default
 10
43.010667
 20
3.767667
 42
0.0
  0
VERTEX
  8
Default
 10
42.502667
 20
3.259667
 42
0.0
  0
VERTEX
  8
Default
 10
42.418
 20
2.921
 42
0.0
  0
VERTEX
  8
Default
 10
42.418
 20
2.709333
 42
0.0
  0
VERTEX
  8
Default
 10
42.502667
 20
2.370667
 42
0.0
  0
VERTEX
  8
Default
 10
43.010667
 20
1.862667
 42
0.0
  0
VERTEX
  8
Default
 10
43.349333
 20
1.778
 42
0.0
  0
VERTEX
  8
Default
 10
43.561
 20
1.778
 42
0.0
  0
VERTEX
  8
Default
 10
43.899667
 20
1.862667
 42
0.0
  0
VERTEX
  8
Default
 10
44.365333
 20
2.328333
 42
0.0
  0
VERTEX
  8
Default
 10
52.451
 20
2.328333
 42
0.0
  0
VERTEX
  8
Default
 10
52.916667
 20
1.862667
 42
0.0
  0
VERTEX
  8
Default
 10
53.255333
 20
1.778
 42
0.0
  0
VERTEX
  8
Default
 10
53.467
 20
1.778
 42
0.0
  0
VERTEX
  8
Default
 10
53.805667
 20
1.862667
 42
0.0
  0
VERTEX
  8
Default
 10
54.313667
 20
2.370667
 42
0.0
  0
VERTEX
  8
Default
 10
54.398333
 20
2.709333
 42
0.0
  0
VERTEX
  8
Default
 10
54.398333
 20
2.921
 42
0.0
  0
VERTEX
  8
Default
 10
54.313667
 20
3.259667
 42
0.0
  0
VERTEX
  8
Default
 10
53.805667
 20
3.767667
 42
0.0
  0
VERTEX
  8
Default
 10
53.467
 20
3.852333
 42
0.0
  0
VERTEX
  8
Default
 10
53.255333
 20
3.852333
 42
0.0
  0
VERTEX
  8
Default
 10
52.916667
 20
3.767667
 42
0.0
  0
VERTEX
  8
Default
 10
52.451
 20
3.302
 42
0.0
  0
VERTEX
  8
Default
 10
44.365333
 20
3.302
 42
0.0
  0
VERTEX
  8
Default
 10
43.899667
 20
3.767667
 42
0.0
  0
VERTEX
  8
Default
 10
43.561
 20
3.852333
 42
0.0
  0
VERTEX
  8
Default
 10
43.264667
 20
3.852333
 42
0.0
  0
SEQEND
  0
ENDSEC
  0
EOF
