  0
SECTION
  2
HEADER
  9
$ACADVER
  1
AC1009
  9
$EXTMAX
 10
112.352668762207
 20
44.3230018615723
 30
0.0
  9
$EXTMIN
 10
4.1486668586731
 20
0.5926669836044
 30
0.0
  9
$INSUNITS
 70
     4
  9
$LUNITS
 70
     2
  9
$LUPREC
 70
     4
  9
$MEASUREMENT
 70
     1
  0
ENDSEC
  0
SECTION
  2
TABLES
  0
TABLE
  2
LAYER
 70
     1
  0
LAYER
  2
0
 70
     0
 62
     7
  6
Continuous
  0
LAYER
  2
Default
 70
     0
 62
    70
  6
Continuous
  0
ENDTAB
  0
TABLE
  2
APPID
 70
     1
  0
APPID
  2
ACAD
 70
     0
  0
ENDTAB
  0
ENDSEC
  0
SECTION
  2
ENTITIES
  0
POLYLINE
  8
Default
 66
     1
 10
0.0
 20
0.0
 30
0.0
 70
     0
  0
VERTEX
  8
Default
 10
4.487333
 20
44.323
 42
0.0
  0
VERTEX
  8
Default
 10
4.487333
 20
44.323
 42
0.0
  0
VERTEX
  8
Default
 10
4.318
 20
44.238333
 42
0.0
  0
VERTEX
  8
Default
 10
4.148667
 20
44.026667
 42
0.0
  0
VERTEX
  8
Default
 10
4.148667
 20
23.071667
 42
0.0
  0
VERTEX
  8
Default
 10
4.402667
 20
22.817667
 42
0.0
  0
VERTEX
  8
Default
 10
5.630333
 20
22.775333
 42
0.0
  0
VERTEX
  8
Default
 10
6.053667
 20
22.352
 42
0.0
  0
VERTEX
  8
Default
 10
6.096
 20
13.97
 42
0.0
  0
VERTEX
  8
Default
 10
6.35
 20
13.716
 42
0.0
  0
VERTEX
  8
Default
 10
32.723667
 20
13.716
 42
0.0
  0
VERTEX
  8
Default
 10
32.723667
 20
11.599333
 42
0.0
  0
VERTEX
  8
Default
 10
32.342667
 20
11.176
 42
0.0
  0
VERTEX
  8
Default
 10
32.258
 20
10.837333
 42
0.0
  0
VERTEX
  8
Default
 10
32.258
 20
10.625667
 42
0.0
  0
VERTEX
  8
Default
 10
32.342667
 20
10.287
 42
0.0
  0
VERTEX
  8
Default
 10
32.850667
 20
9.779
 42
0.0
  0
VERTEX
  8
Default
 10
33.189333
 20
9.694333
 42
0.0
  0
VERTEX
  8
Default
 10
33.401
 20
9.694333
 42
0.0
  0
VERTEX
  8
Default
 10
33.739667
 20
9.779
 42
0.0
  0
VERTEX
  8
Default
 10
34.205333
 20
10.244667
 42
0.0
  0
VERTEX
  8
Default
 10
54.017333
 20
10.244667
 42
0.0
  0
VERTEX
  8
Default
 10
54.059667
 20
5.376333
 42
0.0
  0
VERTEX
  8
Default
 10
54.313667
 20
5.122333
 42
0.0
  0
VERTEX
  8
Default
 10
55.583667
 20
5.08
 42
0.0
  0
VERTEX
  8
Default
 10
56.049333
 20
4.614333
 42
0.0
  0
VERTEX
  8
Default
 10
56.388
 20
4.529667
 42
0.0
  0
VERTEX
  8
Default
 10
56.599667
 20
4.529667
 42
0.0
  0
VERTEX
  8
Default
 10
56.938333
 20
4.614333
 42
0.0
  0
VERTEX
  8
Default
 10
57.446333
 20
5.122333
 42
0.0
  0
VERTEX
  8
Default
 10
57.531
 20
5.461
 42
0.0
  0
VERTEX
  8
Default
 10
57.531
 20
5.672667
 42
0.0
  0
VERTEX
  8
Default
 10
57.446333
 20
6.011333
 42
0.0
  0
VERTEX
  8
Default
 10
56.938333
 20
6.519333
 42
0.0
  0
VERTEX
  8
Default
 10
56.599667
 20
6.604
 42
0.0
  0
VERTEX
  8
Default
 10
56.388
 20
6.604
 42
0.0
  0
VERTEX
  8
Default
 10
56.049333
 20
6.519333
 42
0.0
  0
VERTEX
  8
Default
 10
55.583667
 20
6.053667
 42
0.0
  0
VERTEX
  8
Default
 10
54.991
 20
6.053667
 42
0.0
  0
VERTEX
  8
Default
 10
54.991
 20
24.257
 42
0.0
  0
VERTEX
  8
Default
 10
57.446333
 20
24.257
 42
0.0
  0
VERTEX
  8
Default
 10
57.912
 20
23.791333
 42
0.0
  0
VERTEX
  8
Default
 10
58.250667
 20
23.706667
 42
0.0
  0
VERTEX
  8
Default
 10
58.462333
 20
23.706667
 42
0.0
  0
VERTEX
  8
Default
 10
58.801
 20
23.791333
 42
0.0
  0
VERTEX
  8
Default
 10
59.309
 20
24.299333
 42
0.0
  0
VERTEX
  8
Default
 10
59.393667
 20
24.638
 42
0.0
  0
VERTEX
  8
Default
 10
59.393667
 20
24.849667
 42
0.0
  0
VERTEX
  8
Default
 10
59.309
 20
25.188333
 42
0.0
  0
VERTEX
  8
Default
 10
58.843333
 20
25.654
 42
0.0
  0
VERTEX
  8
Default
 10
58.843333
 20
26.416
 42
0.0
  0
VERTEX
  8
Default
 10
60.833
 20
28.363333
 42
0.0
  0
VERTEX
  8
Default
 10
61.214
 20
28.321
 42
0.0
  0
VERTEX
  8
Default
 10
61.595
 20
28.405667
 42
0.0
  0
VERTEX
  8
Default
 10
62.103
 20
28.913667
 42
0.0
  0
VERTEX
  8
Default
 10
62.187667
 20
29.252333
 42
0.0
  0
VERTEX
  8
Default
 10
62.187667
 20
29.464
 42
0.0
  0
VERTEX
  8
Default
 10
62.103
 20
29.802667
 42
0.0
  0
VERTEX
  8
Default
 10
61.595
 20
30.310667
 42
0.0
  0
VERTEX
  8
Default
 10
61.256333
 20
30.395333
 42
0.0
  0
VERTEX
  8
Default
 10
61.044667
 20
30.395333
 42
0.0
  0
VERTEX
  8
Default
 10
60.706
 20
30.310667
 42
0.0
  0
VERTEX
  8
Default
 10
60.198
 20
29.802667
 42
0.0
  0
VERTEX
  8
Default
 10
60.113333
 20
29.421667
 42
0.0
  0
VERTEX
  8
Default
 10
60.155667
 20
29.040667
 42
0.0
  0
VERTEX
  8
Default
 10
57.912
 20
26.754667
 42
0.0
  0
VERTEX
  8
Default
 10
57.869667
 20
25.654
 42
0.0
  0
VERTEX
  8
Default
 10
57.446333
 20
25.230667
 42
0.0
  0
VERTEX
  8
Default
 10
54.313667
 20
25.188333
 42
0.0
  0
VERTEX
  8
Default
 10
54.059667
 20
24.934333
 42
0.0
  0
VERTEX
  8
Default
 10
54.017333
 20
11.218333
 42
0.0
  0
VERTEX
  8
Default
 10
45.635333
 20
11.218333
 42
0.0
  0
VERTEX
  8
Default
 10
45.593
 20
19.515667
 42
0.0
  0
VERTEX
  8
Default
 10
44.661667
 20
20.447
 42
0.0
  0
VERTEX
  8
Default
 10
31.411333
 20
20.489333
 42
0.0
  0
VERTEX
  8
Default
 10
31.411333
 20
28.829
 42
0.0
  0
VERTEX
  8
Default
 10
31.877
 20
29.294667
 42
0.0
  0
VERTEX
  8
Default
 10
31.961667
 20
29.633333
 42
0.0
  0
VERTEX
  8
Default
 10
31.961667
 20
29.845
 42
0.0
  0
VERTEX
  8
Default
 10
31.877
 20
30.183667
 42
0.0
  0
VERTEX
  8
Default
 10
31.369
 20
30.691667
 42
0.0
  0
VERTEX
  8
Default
 10
31.030333
 20
30.776333
 42
0.0
  0
VERTEX
  8
Default
 10
30.818667
 20
30.776333
 42
0.0
  0
VERTEX
  8
Default
 10
30.48
 20
30.691667
 42
0.0
  0
VERTEX
  8
Default
 10
29.972
 20
30.183667
 42
0.0
  0
VERTEX
  8
Default
 10
29.887333
 20
29.845
 42
0.0
  0
VERTEX
  8
Default
 10
29.887333
 20
29.633333
 42
0.0
  0
VERTEX
  8
Default
 10
29.972
 20
29.294667
 42
0.0
  0
VERTEX
  8
Default
 10
30.437667
 20
28.829
 42
0.0
  0
VERTEX
  8
Default
 10
30.48
 20
19.812
 42
0.0
  0
VERTEX
  8
Default
 10
30.734
 20
19.558
 42
0.0
  0
VERTEX
  8
Default
 10
44.280667
 20
19.515667
 42
0.0
  0
VERTEX
  8
Default
 10
44.661667
 20
19.177
 42
0.0
  0
VERTEX
  8
Default
 10
44.661667
 20
11.218333
 42
0.0
  0
VERTEX
  8
Default
 10
34.205333
 20
11.218333
 42
0.0
  0
VERTEX
  8
Default
 10
33.697333
 20
11.726333
 42
0.0
  0
VERTEX
  8
Default
 10
33.655
 20
14.181667
 42
0.0
  0
VERTEX
  8
Default
 10
33.189333
 20
14.647333
 42
0.0
  0
VERTEX
  8
Default
 10
7.027333
 20
14.689667
 42
0.0
  0
VERTEX
  8
Default
 10
7.027333
 20
22.352
 42
0.0
  0
VERTEX
  8
Default
 10
7.493
 20
22.817667
 42
0.0
  0
VERTEX
  8
Default
 10
7.577667
 20
23.156333
 42
0.0
  0
VERTEX
  8
Default
 10
7.577667
 20
23.368
 42
0.0
  0
VERTEX
  8
Default
 10
7.493
 20
23.706667
 42
0.0
  0
VERTEX
  8
Default
 10
6.985
 20
24.214667
 42
0.0
  0
VERTEX
  8
Default
 10
6.646333
 20
24.299333
 42
0.0
  0
VERTEX
  8
Default
 10
6.434667
 20
24.299333
 42
0.0
  0
VERTEX
  8
Default
 10
6.096
 20
24.214667
 42
0.0
  0
VERTEX
  8
Default
 10
5.630333
 20
23.749
 42
0.0
  0
VERTEX
  8
Default
 10
5.08
 20
23.749
 42
0.0
  0
VERTEX
  8
Default
 10
5.08
 20
43.349333
 42
0.0
  0
VERTEX
  8
Default
 10
74.252667
 20
43.349333
 42
0.0
  0
VERTEX
  8
Default
 10
74.295
 20
18.330333
 42
0.0
  0
VERTEX
  8
Default
 10
75.014667
 20
17.610667
 42
0.0
  0
VERTEX
  8
Default
 10
75.226333
 20
17.526
 42
0.0
  0
VERTEX
  8
Default
 10
75.649667
 20
17.526
 42
0.0
  0
VERTEX
  8
Default
 10
76.115333
 20
17.060333
 42
0.0
  0
VERTEX
  8
Default
 10
76.454
 20
16.975667
 42
0.0
  0
VERTEX
  8
Default
 10
76.665667
 20
16.975667
 42
0.0
  0
VERTEX
  8
Default
 10
77.004333
 20
17.060333
 42
0.0
  0
VERTEX
  8
Default
 10
77.512333
 20
17.568333
 42
0.0
  0
VERTEX
  8
Default
 10
77.597
 20
17.907
 42
0.0
  0
VERTEX
  8
Default
 10
77.597
 20
18.118667
 42
0.0
  0
VERTEX
  8
Default
 10
77.512333
 20
18.457333
 42
0.0
  0
VERTEX
  8
Default
 10
77.004333
 20
18.965333
 42
0.0
  0
VERTEX
  8
Default
 10
76.665667
 20
19.05
 42
0.0
  0
VERTEX
  8
Default
 10
76.454
 20
19.05
 42
0.0
  0
VERTEX
  8
Default
 10
76.115333
 20
18.965333
 42
0.0
  0
VERTEX
  8
Default
 10
75.649667
 20
18.499667
 42
0.0
  0
VERTEX
  8
Default
 10
75.438
 20
18.499667
 42
0.0
  0
VERTEX
  8
Default
 10
75.226333
 20
18.753667
 42
0.0
  0
VERTEX
  8
Default
 10
75.226333
 20
44.026667
 42
0.0
  0
VERTEX
  8
Default
 10
74.972333
 20
44.280667
 42
0.0
  0
VERTEX
  8
Default
 10
4.487333
 20
44.323
 42
0.0
  0
SEQEND
  0
POLYLINE
  8
Default
 66
     1
 10
0.0
 20
0.0
 30
0.0
 70
     0
  0
VERTEX
  8
Default
 10
81.407
 20
42.968333
 42
0.0
  0
VERTEX
  8
Default
 10
81.407
 20
42.968333
 42
0.0
  0
VERTEX
  8
Default
 10
80.983667
 20
42.799
 42
0.0
  0
VERTEX
  8
Default
 10
80.729667
 20
42.587333
 42
0.0
  0
VERTEX
  8
Default
 10
80.475667
 20
42.291
 42
0.0
  0
VERTEX
  8
Default
 10
80.348667
 20
41.825333
 42
0.0
  0
VERTEX
  8
Default
 10
80.391
 20
41.402
 42
0.0
  0
VERTEX
  8
Default
 10
80.560333
 20
41.021
 42
0.0
  0
VERTEX
  8
Default
 10
80.899
 20
40.682333
 42
0.0
  0
VERTEX
  8
Default
 10
81.28
 20
40.513
 42
0.0
  0
VERTEX
  8
Default
 10
81.915
 20
40.513
 42
0.0
  0
VERTEX
  8
Default
 10
82.296
 20
40.682333
 42
0.0
  0
VERTEX
  8
Default
 10
82.677
 20
41.063333
 42
0.0
  0
VERTEX
  8
Default
 10
82.719333
 20
41.232667
 42
0.0
  0
VERTEX
  8
Default
 10
83.523667
 20
41.232667
 42
0.0
  0
VERTEX
  8
Default
 10
83.523667
 20
34.967333
 42
0.0
  0
VERTEX
  8
Default
 10
77.724
 20
34.967333
 42
0.0
  0
VERTEX
  8
Default
 10
77.385333
 20
35.094333
 42
0.0
  0
VERTEX
  8
Default
 10
77.131333
 20
35.094333
 42
0.0
  0
VERTEX
  8
Default
 10
76.792667
 20
35.009667
 42
0.0
  0
VERTEX
  8
Default
 10
76.284667
 20
34.501667
 42
0.0
  0
VERTEX
  8
Default
 10
76.2
 20
34.163
 42
0.0
  0
VERTEX
  8
Default
 10
76.2
 20
33.951333
 42
0.0
  0
VERTEX
  8
Default
 10
76.284667
 20
33.612667
 42
0.0
  0
VERTEX
  8
Default
 10
76.792667
 20
33.104667
 42
0.0
  0
VERTEX
  8
Default
 10
77.131333
 20
33.02
 42
0.0
  0
VERTEX
  8
Default
 10
77.343
 20
33.02
 42
0.0
  0
VERTEX
  8
Default
 10
77.681667
 20
33.104667
 42
0.0
  0
VERTEX
  8
Default
 10
78.189667
 20
33.612667
 42
0.0
  0
VERTEX
  8
Default
 10
78.274333
 20
33.993667
 42
0.0
  0
VERTEX
  8
Default
 10
84.201
 20
34.036
 42
0.0
  0
VERTEX
  8
Default
 10
84.455
 20
34.29
 42
0.0
  0
VERTEX
  8
Default
 10
84.455
 20
41.91
 42
0.0
  0
VERTEX
  8
Default
 10
84.201
 20
42.164
 42
0.0
  0
VERTEX
  8
Default
 10
82.719333
 20
42.206333
 42
0.0
  0
VERTEX
  8
Default
 10
82.677
 20
42.375667
 42
0.0
  0
VERTEX
  8
Default
 10
82.296
 20
42.756667
 42
0.0
  0
VERTEX
  8
Default
 10
81.915
 20
42.926
 42
0.0
  0
VERTEX
  8
Default
 10
81.407
 20
42.968333
 42
0.0
  0
SEQEND
  0
POLYLINE
  8
Default
 66
     1
 10
0.0
 20
0.0
 30
0.0
 70
     0
  0
VERTEX
  8
Default
 10
89.027
 20
42.968333
 42
0.0
  0
VERTEX
  8
Default
 10
89.027
 20
42.968333
 42
0.0
  0
VERTEX
  8
Default
 10
88.603667
 20
42.799
 42
0.0
  0
VERTEX
  8
Default
 10
88.349667
 20
42.587333
 42
0.0
  0
VERTEX
  8
Default
 10
88.095667
 20
42.291
 42
0.0
  0
VERTEX
  8
Default
 10
87.968667
 20
41.825333
 42
0.0
  0
VERTEX
  8
Default
 10
88.011
 20
41.402
 42
0.0
  0
VERTEX
  8
Default
 10
88.180333
 20
41.021
 42
0.0
  0
VERTEX
  8
Default
 10
88.519
 20
40.682333
 42
0.0
  0
VERTEX
  8
Default
 10
88.9
 20
40.513
 42
0.0
  0
VERTEX
  8
Default
 10
89.281
 20
40.470667
 42
0.0
  0
VERTEX
  8
Default
 10
89.704333
 20
40.555333
 42
0.0
  0
VERTEX
  8
Default
 10
90.085333
 20
40.216667
 42
0.0
  0
VERTEX
  8
Default
 10
92.456
 20
40.174333
 42
0.0
  0
VERTEX
  8
Default
 10
92.456
 20
39.581667
 42
0.0
  0
VERTEX
  8
Default
 10
94.572667
 20
39.581667
 42
0.0
  0
VERTEX
  8
Default
 10
94.572667
 20
41.698333
 42
0.0
  0
VERTEX
  8
Default
 10
92.456
 20
41.698333
 42
0.0
  0
VERTEX
  8
Default
 10
92.456
 20
41.148
 42
0.0
  0
VERTEX
  8
Default
 10
90.424
 20
41.190333
 42
0.0
  0
VERTEX
  8
Default
 10
90.424
 20
41.402
 42
0.0
  0
VERTEX
  8
Default
 10
90.424
 20
42.037
 42
0.0
  0
VERTEX
  8
Default
 10
90.254667
 20
42.418
 42
0.0
  0
VERTEX
  8
Default
 10
89.916
 20
42.756667
 42
0.0
  0
VERTEX
  8
Default
 10
89.535
 20
42.926
 42
0.0
  0
VERTEX
  8
Default
 10
89.027
 20
42.968333
 42
0.0
  0
SEQEND
  0
POLYLINE
  8
Default
 66
     1
 10
0.0
 20
0.0
 30
0.0
 70
     0
  0
VERTEX
  8
Default
 10
8.89
 20
42.926
 42
0.0
  0
VERTEX
  8
Default
 10
8.89
 20
42.926
 42
0.0
  0
VERTEX
  8
Default
 10
8.720667
 20
42.841333
 42
0.0
  0
VERTEX
  8
Default
 10
8.551333
 20
42.629667
 42
0.0
  0
VERTEX
  8
Default
 10
8.551333
 20
36.449
 42
0.0
  0
VERTEX
  8
Default
 10
8.805333
 20
36.195
 42
0.0
  0
VERTEX
  8
Default
 10
14.351
 20
36.195
 42
0.0
  0
VERTEX
  8
Default
 10
14.605
 20
36.449
 42
0.0
  0
VERTEX
  8
Default
 10
14.647333
 20
38.735
 42
0.0
  0
VERTEX
  8
Default
 10
18.669
 20
38.735
 42
0.0
  0
VERTEX
  8
Default
 10
18.669
 20
38.142333
 42
0.0
  0
VERTEX
  8
Default
 10
18.288
 20
37.846
 42
0.0
  0
VERTEX
  8
Default
 10
18.034
 20
37.422667
 42
0.0
  0
VERTEX
  8
Default
 10
17.991667
 20
36.999333
 42
0.0
  0
VERTEX
  8
Default
 10
18.076333
 20
36.660667
 42
0.0
  0
VERTEX
  8
Default
 10
18.372667
 20
36.279667
 42
0.0
  0
VERTEX
  8
Default
 10
18.796
 20
35.983333
 42
0.0
  0
VERTEX
  8
Default
 10
19.219333
 20
35.941
 42
0.0
  0
VERTEX
  8
Default
 10
19.219333
 20
21.547667
 42
0.0
  0
VERTEX
  8
Default
 10
18.669
 20
21.547667
 42
0.0
  0
VERTEX
  8
Default
 10
18.669
 20
19.431
 42
0.0
  0
VERTEX
  8
Default
 10
20.785667
 20
19.431
 42
0.0
  0
VERTEX
  8
Default
 10
20.785667
 20
21.547667
 42
0.0
  0
VERTEX
  8
Default
 10
20.193
 20
21.547667
 42
0.0
  0
VERTEX
  8
Default
 10
20.193
 20
36.110333
 42
0.0
  0
VERTEX
  8
Default
 10
25.188333
 20
36.110333
 42
0.0
  0
VERTEX
  8
Default
 10
25.188333
 20
35.517667
 42
0.0
  0
VERTEX
  8
Default
 10
27.305
 20
35.517667
 42
0.0
  0
VERTEX
  8
Default
 10
27.305
 20
37.634333
 42
0.0
  0
VERTEX
  8
Default
 10
25.188333
 20
37.634333
 42
0.0
  0
VERTEX
  8
Default
 10
25.188333
 20
37.084
 42
0.0
  0
VERTEX
  8
Default
 10
20.32
 20
37.084
 42
0.0
  0
VERTEX
  8
Default
 10
20.277667
 20
37.465
 42
0.0
  0
VERTEX
  8
Default
 10
20.023667
 20
37.888333
 42
0.0
  0
VERTEX
  8
Default
 10
19.685
 20
38.142333
 42
0.0
  0
VERTEX
  8
Default
 10
19.600333
 20
39.412333
 42
0.0
  0
VERTEX
  8
Default
 10
19.346333
 20
39.666333
 42
0.0
  0
VERTEX
  8
Default
 10
13.97
 20
39.666333
 42
0.0
  0
VERTEX
  8
Default
 10
13.716
 20
39.412333
 42
0.0
  0
VERTEX
  8
Default
 10
13.673667
 20
37.126333
 42
0.0
  0
VERTEX
  8
Default
 10
9.482667
 20
37.126333
 42
0.0
  0
VERTEX
  8
Default
 10
9.482667
 20
41.952333
 42
0.0
  0
VERTEX
  8
Default
 10
45.677667
 20
41.952333
 42
0.0
  0
VERTEX
  8
Default
 10
45.677667
 20
38.269333
 42
0.0
  0
VERTEX
  8
Default
 10
45.212
 20
37.803667
 42
0.0
  0
VERTEX
  8
Default
 10
45.127333
 20
37.465
 42
0.0
  0
VERTEX
  8
Default
 10
45.127333
 20
37.253333
 42
0.0
  0
VERTEX
  8
Default
 10
45.212
 20
36.914667
 42
0.0
  0
VERTEX
  8
Default
 10
45.72
 20
36.406667
 42
0.0
  0
VERTEX
  8
Default
 10
46.058667
 20
36.322
 42
0.0
  0
VERTEX
  8
Default
 10
46.270333
 20
36.322
 42
0.0
  0
VERTEX
  8
Default
 10
46.609
 20
36.406667
 42
0.0
  0
VERTEX
  8
Default
 10
47.074667
 20
36.872333
 42
0.0
  0
VERTEX
  8
Default
 10
53.509333
 20
36.872333
 42
0.0
  0
VERTEX
  8
Default
 10
53.509333
 20
35.729333
 42
0.0
  0
VERTEX
  8
Default
 10
52.916667
 20
35.729333
 42
0.0
  0
VERTEX
  8
Default
 10
52.916667
 20
33.612667
 42
0.0
  0
VERTEX
  8
Default
 10
53.509333
 20
33.612667
 42
0.0
  0
VERTEX
  8
Default
 10
53.509333
 20
26.839333
 42
0.0
  0
VERTEX
  8
Default
 10
52.324
 20
25.611667
 42
0.0
  0
VERTEX
  8
Default
 10
52.281667
 20
22.987
 42
0.0
  0
VERTEX
  8
Default
 10
47.032333
 20
22.987
 42
0.0
  0
VERTEX
  8
Default
 10
47.032333
 20
23.537333
 42
0.0
  0
VERTEX
  8
Default
 10
44.915667
 20
23.537333
 42
0.0
  0
VERTEX
  8
Default
 10
44.915667
 20
21.420667
 42
0.0
  0
VERTEX
  8
Default
 10
47.032333
 20
21.420667
 42
0.0
  0
VERTEX
  8
Default
 10
47.032333
 20
22.013333
 42
0.0
  0
VERTEX
  8
Default
 10
52.705
 20
22.055667
 42
0.0
  0
VERTEX
  8
Default
 10
53.213
 20
22.563667
 42
0.0
  0
VERTEX
  8
Default
 10
53.255333
 20
25.230667
 42
0.0
  0
VERTEX
  8
Default
 10
54.440667
 20
26.458333
 42
0.0
  0
VERTEX
  8
Default
 10
54.483
 20
33.612667
 42
0.0
  0
VERTEX
  8
Default
 10
55.033333
 20
33.612667
 42
0.0
  0
VERTEX
  8
Default
 10
55.033333
 20
35.729333
 42
0.0
  0
VERTEX
  8
Default
 10
54.483
 20
35.729333
 42
0.0
  0
VERTEX
  8
Default
 10
54.483
 20
38.184667
 42
0.0
  0
VERTEX
  8
Default
 10
71.247
 20
38.184667
 42
0.0
  0
VERTEX
  8
Default
 10
71.247
 20
14.097
 42
0.0
  0
VERTEX
  8
Default
 10
70.781333
 20
13.631333
 42
0.0
  0
VERTEX
  8
Default
 10
70.696667
 20
13.292667
 42
0.0
  0
VERTEX
  8
Default
 10
70.696667
 20
13.081
 42
0.0
  0
VERTEX
  8
Default
 10
70.781333
 20
12.742333
 42
0.0
  0
VERTEX
  8
Default
 10
71.289333
 20
12.234333
 42
0.0
  0
VERTEX
  8
Default
 10
71.628
 20
12.149667
 42
0.0
  0
VERTEX
  8
Default
 10
71.839667
 20
12.149667
 42
0.0
  0
VERTEX
  8
Default
 10
72.178333
 20
12.234333
 42
0.0
  0
VERTEX
  8
Default
 10
72.644
 20
12.7
 42
0.0
  0
VERTEX
  8
Default
 10
75.565
 20
12.7
 42
0.0
  0
VERTEX
  8
Default
 10
75.903667
 20
12.446
 42
0.0
  0
VERTEX
  8
Default
 10
76.157667
 20
12.361333
 42
0.0
  0
VERTEX
  8
Default
 10
76.411667
 20
12.361333
 42
0.0
  0
VERTEX
  8
Default
 10
76.750333
 20
12.446
 42
0.0
  0
VERTEX
  8
Default
 10
77.216
 20
12.911667
 42
0.0
  0
VERTEX
  8
Default
 10
79.629
 20
12.954
 42
0.0
  0
VERTEX
  8
Default
 10
79.883
 20
13.208
 42
0.0
  0
VERTEX
  8
Default
 10
79.925333
 20
19.346333
 42
0.0
  0
VERTEX
  8
Default
 10
99.779667
 20
19.346333
 42
0.0
  0
VERTEX
  8
Default
 10
99.779667
 20
15.621
 42
0.0
  0
VERTEX
  8
Default
 10
99.017667
 20
15.621
 42
0.0
  0
VERTEX
  8
Default
 10
99.017667
 20
13.208
 42
0.0
  0
VERTEX
  8
Default
 10
101.430667
 20
13.208
 42
0.0
  0
VERTEX
  8
Default
 10
101.430667
 20
15.621
 42
0.0
  0
VERTEX
  8
Default
 10
100.753333
 20
15.621
 42
0.0
  0
VERTEX
  8
Default
 10
100.753333
 20
39.920333
 42
0.0
  0
VERTEX
  8
Default
 10
101.219
 20
40.343667
 42
0.0
  0
VERTEX
  8
Default
 10
103.462667
 20
40.343667
 42
0.0
  0
VERTEX
  8
Default
 10
103.759
 20
39.962667
 42
0.0
  0
VERTEX
  8
Default
 10
104.182333
 20
39.708667
 42
0.0
  0
VERTEX
  8
Default
 10
104.817333
 20
39.708667
 42
0.0
  0
VERTEX
  8
Default
 10
105.240667
 20
39.962667
 42
0.0
  0
VERTEX
  8
Default
 10
105.537
 20
40.343667
 42
0.0
  0
VERTEX
  8
Default
 10
105.875667
 20
40.343667
 42
0.0
  0
VERTEX
  8
Default
 10
105.875667
 20
35.517667
 42
0.0
  0
VERTEX
  8
Default
 10
103.124
 20
32.723667
 42
0.0
  0
VERTEX
  8
Default
 10
103.081667
 20
31.707667
 42
0.0
  0
VERTEX
  8
Default
 10
102.362
 20
31.707667
 42
0.0
  0
VERTEX
  8
Default
 10
102.362
 20
29.294667
 42
0.0
  0
VERTEX
  8
Default
 10
104.775
 20
29.294667
 42
0.0
  0
VERTEX
  8
Default
 10
104.775
 20
31.707667
 42
0.0
  0
VERTEX
  8
Default
 10
104.055333
 20
31.707667
 42
0.0
  0
VERTEX
  8
Default
 10
104.055333
 20
32.342667
 42
0.0
  0
VERTEX
  8
Default
 10
106.807
 20
35.136667
 42
0.0
  0
VERTEX
  8
Default
 10
106.807
 20
41.021
 42
0.0
  0
VERTEX
  8
Default
 10
106.553
 20
41.275
 42
0.0
  0
VERTEX
  8
Default
 10
105.537
 20
41.359667
 42
0.0
  0
VERTEX
  8
Default
 10
105.240667
 20
41.698333
 42
0.0
  0
VERTEX
  8
Default
 10
104.817333
 20
41.952333
 42
0.0
  0
VERTEX
  8
Default
 10
104.182333
 20
41.952333
 42
0.0
  0
VERTEX
  8
Default
 10
103.759
 20
41.698333
 42
0.0
  0
VERTEX
  8
Default
 10
103.462667
 20
41.359667
 42
0.0
  0
VERTEX
  8
Default
 10
100.753333
 20
41.275
 42
0.0
  0
VERTEX
  8
Default
 10
100.499333
 20
41.063333
 42
0.0
  0
VERTEX
  8
Default
 10
100.499333
 20
40.978667
 42
0.0
  0
VERTEX
  8
Default
 10
99.822
 20
40.259
 42
0.0
  0
VERTEX
  8
Default
 10
99.779667
 20
20.32
 42
0.0
  0
VERTEX
  8
Default
 10
79.248
 20
20.277667
 42
0.0
  0
VERTEX
  8
Default
 10
78.994
 20
20.023667
 42
0.0
  0
VERTEX
  8
Default
 10
78.951667
 20
13.885333
 42
0.0
  0
VERTEX
  8
Default
 10
77.216
 20
13.885333
 42
0.0
  0
VERTEX
  8
Default
 10
76.750333
 20
14.351
 42
0.0
  0
VERTEX
  8
Default
 10
76.411667
 20
14.435667
 42
0.0
  0
VERTEX
  8
Default
 10
76.2
 20
14.435667
 42
0.0
  0
VERTEX
  8
Default
 10
75.861333
 20
14.351
 42
0.0
  0
VERTEX
  8
Default
 10
75.438
 20
13.97
 42
0.0
  0
VERTEX
  8
Default
 10
75.311
 20
13.673667
 42
0.0
  0
VERTEX
  8
Default
 10
72.644
 20
13.673667
 42
0.0
  0
VERTEX
  8
Default
 10
72.220667
 20
14.097
 42
0.0
  0
VERTEX
  8
Default
 10
72.178333
 20
38.862
 42
0.0
  0
VERTEX
  8
Default
 10
71.924333
 20
39.116
 42
0.0
  0
VERTEX
  8
Default
 10
53.805667
 20
39.116
 42
0.0
  0
VERTEX
  8
Default
 10
53.551667
 20
38.862
 42
0.0
  0
VERTEX
  8
Default
 10
53.509333
 20
37.846
 42
0.0
  0
VERTEX
  8
Default
 10
47.074667
 20
37.846
 42
0.0
  0
VERTEX
  8
Default
 10
46.651333
 20
38.269333
 42
0.0
  0
VERTEX
  8
Default
 10
46.609
 20
42.629667
 42
0.0
  0
VERTEX
  8
Default
 10
46.355
 20
42.883667
 42
0.0
  0
VERTEX
  8
Default
 10
8.89
 20
42.926
 42
0.0
  0
SEQEND
  0
POLYLINE
  8
Default
 66
     1
 10
0.0
 20
0.0
 30
0.0
 70
     0
  0
VERTEX
  8
Default
 10
11.006667
 20
41.444333
 42
0.0
  0
VERTEX
  8
Default
 10
11.006667
 20
41.444333
 42
0.0
  0
VERTEX
  8
Default
 10
10.837333
 20
41.359667
 42
0.0
  0
VERTEX
  8
Default
 10
10.668
 20
41.148
 42
0.0
  0
VERTEX
  8
Default
 10
10.625667
 20
39.243
 42
0.0
  0
VERTEX
  8
Default
 10
10.16
 20
38.777333
 42
0.0
  0
VERTEX
  8
Default
 10
10.075333
 20
38.438667
 42
0.0
  0
VERTEX
  8
Default
 10
10.075333
 20
38.227
 42
0.0
  0
VERTEX
  8
Default
 10
10.16
 20
37.888333
 42
0.0
  0
VERTEX
  8
Default
 10
10.668
 20
37.380333
 42
0.0
  0
VERTEX
  8
Default
 10
11.006667
 20
37.295667
 42
0.0
  0
VERTEX
  8
Default
 10
11.218333
 20
37.295667
 42
0.0
  0
VERTEX
  8
Default
 10
11.557
 20
37.380333
 42
0.0
  0
VERTEX
  8
Default
 10
12.065
 20
37.888333
 42
0.0
  0
VERTEX
  8
Default
 10
12.149667
 20
38.227
 42
0.0
  0
VERTEX
  8
Default
 10
12.149667
 20
38.438667
 42
0.0
  0
VERTEX
  8
Default
 10
12.065
 20
38.777333
 42
0.0
  0
VERTEX
  8
Default
 10
11.599333
 20
39.243
 42
0.0
  0
VERTEX
  8
Default
 10
11.599333
 20
40.470667
 42
0.0
  0
VERTEX
  8
Default
 10
43.137667
 20
40.470667
 42
0.0
  0
VERTEX
  8
Default
 10
43.137667
 20
38.269333
 42
0.0
  0
VERTEX
  8
Default
 10
42.672
 20
37.803667
 42
0.0
  0
VERTEX
  8
Default
 10
42.587333
 20
37.465
 42
0.0
  0
VERTEX
  8
Default
 10
42.587333
 20
37.253333
 42
0.0
  0
VERTEX
  8
Default
 10
42.672
 20
36.914667
 42
0.0
  0
VERTEX
  8
Default
 10
43.18
 20
36.406667
 42
0.0
  0
VERTEX
  8
Default
 10
43.518667
 20
36.322
 42
0.0
  0
VERTEX
  8
Default
 10
43.730333
 20
36.322
 42
0.0
  0
VERTEX
  8
Default
 10
44.069
 20
36.406667
 42
0.0
  0
VERTEX
  8
Default
 10
44.577
 20
36.914667
 42
0.0
  0
VERTEX
  8
Default
 10
44.661667
 20
37.253333
 42
0.0
  0
VERTEX
  8
Default
 10
44.661667
 20
37.465
 42
0.0
  0
VERTEX
  8
Default
 10
44.577
 20
37.803667
 42
0.0
  0
VERTEX
  8
Default
 10
44.111333
 20
38.269333
 42
0.0
  0
VERTEX
  8
Default
 10
44.069
 20
41.148
 42
0.0
  0
VERTEX
  8
Default
 10
43.815
 20
41.402
 42
0.0
  0
VERTEX
  8
Default
 10
11.006667
 20
41.444333
 42
0.0
  0
SEQEND
  0
POLYLINE
  8
Default
 66
     1
 10
0.0
 20
0.0
 30
0.0
 70
     0
  0
VERTEX
  8
Default
 10
26.035
 20
40.174333
 42
0.0
  0
VERTEX
  8
Default
 10
26.035
 20
40.174333
 42
0.0
  0
VERTEX
  8
Default
 10
25.781
 20
40.089667
 42
0.0
  0
VERTEX
  8
Default
 10
25.273
 20
39.581667
 42
0.0
  0
VERTEX
  8
Default
 10
25.188333
 20
39.243
 42
0.0
  0
VERTEX
  8
Default
 10
25.188333
 20
39.031333
 42
0.0
  0
VERTEX
  8
Default
 10
25.273
 20
38.692667
 42
0.0
  0
VERTEX
  8
Default
 10
25.781
 20
38.184667
 42
0.0
  0
VERTEX
  8
Default
 10
26.119667
 20
38.1
 42
0.0
  0
VERTEX
  8
Default
 10
26.331333
 20
38.1
 42
0.0
  0
VERTEX
  8
Default
 10
26.67
 20
38.184667
 42
0.0
  0
VERTEX
  8
Default
 10
27.135667
 20
38.650333
 42
0.0
  0
VERTEX
  8
Default
 10
27.897667
 20
38.650333
 42
0.0
  0
VERTEX
  8
Default
 10
27.897667
 20
34.967333
 42
0.0
  0
VERTEX
  8
Default
 10
22.225
 20
34.925
 42
0.0
  0
VERTEX
  8
Default
 10
21.971
 20
34.671
 42
0.0
  0
VERTEX
  8
Default
 10
21.971
 20
18.161
 42
0.0
  0
VERTEX
  8
Default
 10
22.225
 20
17.907
 42
0.0
  0
VERTEX
  8
Default
 10
32.385
 20
17.864667
 42
0.0
  0
VERTEX
  8
Default
 10
32.850667
 20
17.399
 42
0.0
  0
VERTEX
  8
Default
 10
33.189333
 20
17.314333
 42
0.0
  0
VERTEX
  8
Default
 10
33.401
 20
17.314333
 42
0.0
  0
VERTEX
  8
Default
 10
33.739667
 20
17.399
 42
0.0
  0
VERTEX
  8
Default
 10
34.247667
 20
17.907
 42
0.0
  0
VERTEX
  8
Default
 10
34.332333
 20
18.245667
 42
0.0
  0
VERTEX
  8
Default
 10
34.332333
 20
18.457333
 42
0.0
  0
VERTEX
  8
Default
 10
34.247667
 20
18.796
 42
0.0
  0
VERTEX
  8
Default
 10
33.739667
 20
19.304
 42
0.0
  0
VERTEX
  8
Default
 10
33.401
 20
19.388667
 42
0.0
  0
VERTEX
  8
Default
 10
33.189333
 20
19.388667
 42
0.0
  0
VERTEX
  8
Default
 10
32.850667
 20
19.304
 42
0.0
  0
VERTEX
  8
Default
 10
32.385
 20
18.838333
 42
0.0
  0
VERTEX
  8
Default
 10
22.902333
 20
18.838333
 42
0.0
  0
VERTEX
  8
Default
 10
22.902333
 20
33.993667
 42
0.0
  0
VERTEX
  8
Default
 10
28.575
 20
34.036
 42
0.0
  0
VERTEX
  8
Default
 10
28.829
 20
34.29
 42
0.0
  0
VERTEX
  8
Default
 10
28.871333
 20
36.872333
 42
0.0
  0
VERTEX
  8
Default
 10
29.845
 20
36.872333
 42
0.0
  0
VERTEX
  8
Default
 10
29.845
 20
36.322
 42
0.0
  0
VERTEX
  8
Default
 10
31.961667
 20
36.322
 42
0.0
  0
VERTEX
  8
Default
 10
31.961667
 20
36.872333
 42
0.0
  0
VERTEX
  8
Default
 10
32.554333
 20
36.872333
 42
0.0
  0
VERTEX
  8
Default
 10
33.02
 20
36.406667
 42
0.0
  0
VERTEX
  8
Default
 10
33.358667
 20
36.322
 42
0.0
  0
VERTEX
  8
Default
 10
33.570333
 20
36.322
 42
0.0
  0
VERTEX
  8
Default
 10
33.909
 20
36.406667
 42
0.0
  0
VERTEX
  8
Default
 10
34.417
 20
36.914667
 42
0.0
  0
VERTEX
  8
Default
 10
34.501667
 20
37.253333
 42
0.0
  0
VERTEX
  8
Default
 10
34.501667
 20
37.465
 42
0.0
  0
VERTEX
  8
Default
 10
34.417
 20
37.803667
 42
0.0
  0
VERTEX
  8
Default
 10
33.909
 20
38.311667
 42
0.0
  0
VERTEX
  8
Default
 10
33.570333
 20
38.396333
 42
0.0
  0
VERTEX
  8
Default
 10
33.358667
 20
38.396333
 42
0.0
  0
VERTEX
  8
Default
 10
33.02
 20
38.311667
 42
0.0
  0
VERTEX
  8
Default
 10
32.554333
 20
37.846
 42
0.0
  0
VERTEX
  8
Default
 10
31.961667
 20
37.846
 42
0.0
  0
VERTEX
  8
Default
 10
31.961667
 20
38.438667
 42
0.0
  0
VERTEX
  8
Default
 10
29.845
 20
38.438667
 42
0.0
  0
VERTEX
  8
Default
 10
29.845
 20
37.846
 42
0.0
  0
VERTEX
  8
Default
 10
28.871333
 20
37.846
 42
0.0
  0
VERTEX
  8
Default
 10
28.829
 20
39.327667
 42
0.0
  0
VERTEX
  8
Default
 10
28.575
 20
39.581667
 42
0.0
  0
VERTEX
  8
Default
 10
27.135667
 20
39.624
 42
0.0
  0
VERTEX
  8
Default
 10
26.67
 20
40.089667
 42
0.0
  0
VERTEX
  8
Default
 10
26.331333
 20
40.174333
 42
0.0
  0
VERTEX
  8
Default
 10
26.035
 20
40.174333
 42
0.0
  0
SEQEND
  0
POLYLINE
  8
Default
 66
     1
 10
0.0
 20
0.0
 30
0.0
 70
     0
  0
VERTEX
  8
Default
 10
103.335667
 20
39.497
 42
0.0
  0
VERTEX
  8
Default
 10
103.335667
 20
39.497
 42
0.0
  0
VERTEX
  8
Default
 10
103.335667
 20
38.862
 42
0.0
  0
VERTEX
  8
Default
 10
102.362
 20
38.819667
 42
0.0
  0
VERTEX
  8
Default
 10
101.007333
 20
37.465
 42
0.0
  0
VERTEX
  8
Default
 10
101.007333
 20
28.194
 42
0.0
  0
VERTEX
  8
Default
 10
101.261333
 20
27.94
 42
0.0
  0
VERTEX
  8
Default
 10
106.383667
 20
27.897667
 42
0.0
  0
VERTEX
  8
Default
 10
106.426
 20
19.981333
 42
0.0
  0
VERTEX
  8
Default
 10
106.68
 20
19.727333
 42
0.0
  0
VERTEX
  8
Default
 10
111.209667
 20
19.685
 42
0.0
  0
VERTEX
  8
Default
 10
111.209667
 20
10.202333
 42
0.0
  0
VERTEX
  8
Default
 10
110.871
 20
10.117667
 42
0.0
  0
VERTEX
  8
Default
 10
110.363
 20
9.609667
 42
0.0
  0
VERTEX
  8
Default
 10
110.278333
 20
9.271
 42
0.0
  0
VERTEX
  8
Default
 10
110.278333
 20
9.059333
 42
0.0
  0
VERTEX
  8
Default
 10
110.363
 20
8.720667
 42
0.0
  0
VERTEX
  8
Default
 10
110.871
 20
8.212667
 42
0.0
  0
VERTEX
  8
Default
 10
111.209667
 20
8.128
 42
0.0
  0
VERTEX
  8
Default
 10
111.421333
 20
8.128
 42
0.0
  0
VERTEX
  8
Default
 10
111.76
 20
8.212667
 42
0.0
  0
VERTEX
  8
Default
 10
112.268
 20
8.720667
 42
0.0
  0
VERTEX
  8
Default
 10
112.352667
 20
9.101667
 42
0.0
  0
VERTEX
  8
Default
 10
112.310333
 20
9.440333
 42
0.0
  0
VERTEX
  8
Default
 10
112.183333
 20
9.736667
 42
0.0
  0
VERTEX
  8
Default
 10
112.141
 20
20.362333
 42
0.0
  0
VERTEX
  8
Default
 10
111.887
 20
20.616333
 42
0.0
  0
VERTEX
  8
Default
 10
107.357333
 20
20.658667
 42
0.0
  0
VERTEX
  8
Default
 10
107.315
 20
28.575
 42
0.0
  0
VERTEX
  8
Default
 10
107.061
 20
28.829
 42
0.0
  0
VERTEX
  8
Default
 10
101.938667
 20
28.871333
 42
0.0
  0
VERTEX
  8
Default
 10
101.938667
 20
37.126333
 42
0.0
  0
VERTEX
  8
Default
 10
102.743
 20
37.888333
 42
0.0
  0
VERTEX
  8
Default
 10
103.335667
 20
37.888333
 42
0.0
  0
VERTEX
  8
Default
 10
103.335667
 20
37.126333
 42
0.0
  0
VERTEX
  8
Default
 10
105.706333
 20
37.126333
 42
0.0
  0
VERTEX
  8
Default
 10
105.706333
 20
39.497
 42
0.0
  0
VERTEX
  8
Default
 10
103.335667
 20
39.497
 42
0.0
  0
SEQEND
  0
POLYLINE
  8
Default
 66
     1
 10
0.0
 20
0.0
 30
0.0
 70
     0
  0
VERTEX
  8
Default
 10
93.302667
 20
39.158333
 42
0.0
  0
VERTEX
  8
Default
 10
93.302667
 20
39.158333
 42
0.0
  0
VERTEX
  8
Default
 10
93.048667
 20
39.073667
 42
0.0
  0
VERTEX
  8
Default
 10
92.583
 20
38.608
 42
0.0
  0
VERTEX
  8
Default
 10
90.508667
 20
38.565667
 42
0.0
  0
VERTEX
  8
Default
 10
89.704333
 20
37.803667
 42
0.0
  0
VERTEX
  8
Default
 10
89.281
 20
37.888333
 42
0.0
  0
VERTEX
  8
Default
 10
88.9
 20
37.846
 42
0.0
  0
VERTEX
  8
Default
 10
88.519
 20
37.676667
 42
0.0
  0
VERTEX
  8
Default
 10
88.180333
 20
37.338
 42
0.0
  0
VERTEX
  8
Default
 10
88.011
 20
36.957
 42
0.0
  0
VERTEX
  8
Default
 10
88.011
 20
36.322
 42
0.0
  0
VERTEX
  8
Default
 10
88.180333
 20
35.941
 42
0.0
  0
VERTEX
  8
Default
 10
88.519
 20
35.602333
 42
0.0
  0
VERTEX
  8
Default
 10
88.9
 20
35.433
 42
0.0
  0
VERTEX
  8
Default
 10
89.535
 20
35.433
 42
0.0
  0
VERTEX
  8
Default
 10
89.916
 20
35.602333
 42
0.0
  0
VERTEX
  8
Default
 10
90.254667
 20
35.941
 42
0.0
  0
VERTEX
  8
Default
 10
90.424
 20
36.322
 42
0.0
  0
VERTEX
  8
Default
 10
90.466333
 20
36.703
 42
0.0
  0
VERTEX
  8
Default
 10
90.381667
 20
37.126333
 42
0.0
  0
VERTEX
  8
Default
 10
90.847333
 20
37.634333
 42
0.0
  0
VERTEX
  8
Default
 10
92.583
 20
37.634333
 42
0.0
  0
VERTEX
  8
Default
 10
93.048667
 20
37.168667
 42
0.0
  0
VERTEX
  8
Default
 10
93.387333
 20
37.084
 42
0.0
  0
VERTEX
  8
Default
 10
93.599
 20
37.084
 42
0.0
  0
VERTEX
  8
Default
 10
93.937667
 20
37.168667
 42
0.0
  0
VERTEX
  8
Default
 10
94.445667
 20
37.676667
 42
0.0
  0
VERTEX
  8
Default
 10
94.530333
 20
38.015333
 42
0.0
  0
VERTEX
  8
Default
 10
94.530333
 20
38.227
 42
0.0
  0
VERTEX
  8
Default
 10
94.445667
 20
38.565667
 42
0.0
  0
VERTEX
  8
Default
 10
93.937667
 20
39.073667
 42
0.0
  0
VERTEX
  8
Default
 10
93.599
 20
39.158333
 42
0.0
  0
VERTEX
  8
Default
 10
93.302667
 20
39.158333
 42
0.0
  0
SEQEND
  0
POLYLINE
  8
Default
 66
     1
 10
0.0
 20
0.0
 30
0.0
 70
     0
  0
VERTEX
  8
Default
 10
35.814
 20
38.396333
 42
0.0
  0
VERTEX
  8
Default
 10
35.814
 20
38.396333
 42
0.0
  0
VERTEX
  8
Default
 10
35.56
 20
38.311667
 42
0.0
  0
VERTEX
  8
Default
 10
35.052
 20
37.803667
 42
0.0
  0
VERTEX
  8
Default
 10
34.967333
 20
37.465
 42
0.0
  0
VERTEX
  8
Default
 10
34.967333
 20
37.253333
 42
0.0
  0
VERTEX
  8
Default
 10
35.052
 20
36.914667
 42
0.0
  0
VERTEX
  8
Default
 10
35.56
 20
36.406667
 42
0.0
  0
VERTEX
  8
Default
 10
35.898667
 20
36.322
 42
0.0
  0
VERTEX
  8
Default
 10
36.110333
 20
36.322
 42
0.0
  0
VERTEX
  8
Default
 10
36.449
 20
36.406667
 42
0.0
  0
VERTEX
  8
Default
 10
36.914667
 20
36.872333
 42
0.0
  0
VERTEX
  8
Default
 10
37.634333
 20
36.872333
 42
0.0
  0
VERTEX
  8
Default
 10
38.1
 20
36.406667
 42
0.0
  0
VERTEX
  8
Default
 10
38.438667
 20
36.322
 42
0.0
  0
VERTEX
  8
Default
 10
38.650333
 20
36.322
 42
0.0
  0
VERTEX
  8
Default
 10
38.989
 20
36.406667
 42
0.0
  0
VERTEX
  8
Default
 10
39.497
 20
36.914667
 42
0.0
  0
VERTEX
  8
Default
 10
39.581667
 20
37.253333
 42
0.0
  0
VERTEX
  8
Default
 10
39.581667
 20
37.465
 42
0.0
  0
VERTEX
  8
Default
 10
39.497
 20
37.803667
 42
0.0
  0
VERTEX
  8
Default
 10
38.989
 20
38.311667
 42
0.0
  0
VERTEX
  8
Default
 10
38.650333
 20
38.396333
 42
0.0
  0
VERTEX
  8
Default
 10
38.438667
 20
38.396333
 42
0.0
  0
VERTEX
  8
Default
 10
38.1
 20
38.311667
 42
0.0
  0
VERTEX
  8
Default
 10
37.634333
 20
37.846
 42
0.0
  0
VERTEX
  8
Default
 10
36.914667
 20
37.846
 42
0.0
  0
VERTEX
  8
Default
 10
36.449
 20
38.311667
 42
0.0
  0
VERTEX
  8
Default
 10
36.110333
 20
38.396333
 42
0.0
  0
VERTEX
  8
Default
 10
35.814
 20
38.396333
 42
0.0
  0
SEQEND
  0
POLYLINE
  8
Default
 66
     1
 10
0.0
 20
0.0
 30
0.0
 70
     0
  0
VERTEX
  8
Default
 10
40.894
 20
38.396333
 42
0.0
  0
VERTEX
  8
Default
 10
40.894
 20
38.396333
 42
0.0
  0
VERTEX
  8
Default
 10
40.64
 20
38.311667
 42
0.0
  0
VERTEX
  8
Default
 10
40.132
 20
37.803667
 42
0.0
  0
VERTEX
  8
Default
 10
40.047333
 20
37.465
 42
0.0
  0
VERTEX
  8
Default
 10
40.047333
 20
37.253333
 42
0.0
  0
VERTEX
  8
Default
 10
40.132
 20
36.914667
 42
0.0
  0
VERTEX
  8
Default
 10
40.597667
 20
36.449
 42
0.0
  0
VERTEX
  8
Default
 10
40.597667
 20
35.644667
 42
0.0
  0
VERTEX
  8
Default
 10
35.814
 20
35.602333
 42
0.0
  0
VERTEX
  8
Default
 10
35.56
 20
35.348333
 42
0.0
  0
VERTEX
  8
Default
 10
35.517667
 20
31.961667
 42
0.0
  0
VERTEX
  8
Default
 10
24.849667
 20
31.961667
 42
0.0
  0
VERTEX
  8
Default
 10
24.511
 20
32.215667
 42
0.0
  0
VERTEX
  8
Default
 10
24.257
 20
32.300333
 42
0.0
  0
VERTEX
  8
Default
 10
24.003
 20
32.300333
 42
0.0
  0
VERTEX
  8
Default
 10
23.664333
 20
32.215667
 42
0.0
  0
VERTEX
  8
Default
 10
23.156333
 20
31.707667
 42
0.0
  0
VERTEX
  8
Default
 10
23.071667
 20
31.369
 42
0.0
  0
VERTEX
  8
Default
 10
23.071667
 20
31.157333
 42
0.0
  0
VERTEX
  8
Default
 10
23.156333
 20
30.818667
 42
0.0
  0
VERTEX
  8
Default
 10
23.664333
 20
30.310667
 42
0.0
  0
VERTEX
  8
Default
 10
24.003
 20
30.226
 42
0.0
  0
VERTEX
  8
Default
 10
24.214667
 20
30.226
 42
0.0
  0
VERTEX
  8
Default
 10
24.553333
 20
30.310667
 42
0.0
  0
VERTEX
  8
Default
 10
24.976667
 20
30.691667
 42
0.0
  0
VERTEX
  8
Default
 10
25.103667
 20
30.988
 42
0.0
  0
VERTEX
  8
Default
 10
35.517667
 20
30.988
 42
0.0
  0
VERTEX
  8
Default
 10
35.517667
 20
30.649333
 42
0.0
  0
VERTEX
  8
Default
 10
35.052
 20
30.183667
 42
0.0
  0
VERTEX
  8
Default
 10
34.967333
 20
29.845
 42
0.0
  0
VERTEX
  8
Default
 10
34.967333
 20
29.633333
 42
0.0
  0
VERTEX
  8
Default
 10
35.052
 20
29.294667
 42
0.0
  0
VERTEX
  8
Default
 10
35.56
 20
28.786667
 42
0.0
  0
VERTEX
  8
Default
 10
35.898667
 20
28.702
 42
0.0
  0
VERTEX
  8
Default
 10
36.110333
 20
28.702
 42
0.0
  0
VERTEX
  8
Default
 10
36.449
 20
28.786667
 42
0.0
  0
VERTEX
  8
Default
 10
36.957
 20
29.294667
 42
0.0
  0
VERTEX
  8
Default
 10
37.041667
 20
29.633333
 42
0.0
  0
VERTEX
  8
Default
 10
37.041667
 20
29.845
 42
0.0
  0
VERTEX
  8
Default
 10
36.957
 20
30.183667
 42
0.0
  0
VERTEX
  8
Default
 10
36.491333
 20
30.649333
 42
0.0
  0
VERTEX
  8
Default
 10
36.491333
 20
30.988
 42
0.0
  0
VERTEX
  8
Default
 10
45.677667
 20
30.988
 42
0.0
  0
VERTEX
  8
Default
 10
45.677667
 20
30.649333
 42
0.0
  0
VERTEX
  8
Default
 10
45.212
 20
30.183667
 42
0.0
  0
VERTEX
  8
Default
 10
45.127333
 20
29.845
 42
0.0
  0
VERTEX
  8
Default
 10
45.127333
 20
29.633333
 42
0.0
  0
VERTEX
  8
Default
 10
45.212
 20
29.294667
 42
0.0
  0
VERTEX
  8
Default
 10
45.72
 20
28.786667
 42
0.0
  0
VERTEX
  8
Default
 10
46.058667
 20
28.702
 42
0.0
  0
VERTEX
  8
Default
 10
46.270333
 20
28.702
 42
0.0
  0
VERTEX
  8
Default
 10
46.609
 20
28.786667
 42
0.0
  0
VERTEX
  8
Default
 10
47.117
 20
29.294667
 42
0.0
  0
VERTEX
  8
Default
 10
47.201667
 20
29.633333
 42
0.0
  0
VERTEX
  8
Default
 10
47.201667
 20
29.845
 42
0.0
  0
VERTEX
  8
Default
 10
47.117
 20
30.183667
 42
0.0
  0
VERTEX
  8
Default
 10
46.651333
 20
30.649333
 42
0.0
  0
VERTEX
  8
Default
 10
46.609
 20
31.665333
 42
0.0
  0
VERTEX
  8
Default
 10
46.355
 20
31.919333
 42
0.0
  0
VERTEX
  8
Default
 10
36.491333
 20
31.961667
 42
0.0
  0
VERTEX
  8
Default
 10
36.491333
 20
34.671
 42
0.0
  0
VERTEX
  8
Default
 10
41.275
 20
34.713333
 42
0.0
  0
VERTEX
  8
Default
 10
41.529
 20
34.967333
 42
0.0
  0
VERTEX
  8
Default
 10
41.571333
 20
36.449
 42
0.0
  0
VERTEX
  8
Default
 10
42.037
 20
36.914667
 42
0.0
  0
VERTEX
  8
Default
 10
42.121667
 20
37.253333
 42
0.0
  0
VERTEX
  8
Default
 10
42.121667
 20
37.465
 42
0.0
  0
VERTEX
  8
Default
 10
42.037
 20
37.803667
 42
0.0
  0
VERTEX
  8
Default
 10
41.529
 20
38.311667
 42
0.0
  0
VERTEX
  8
Default
 10
41.190333
 20
38.396333
 42
0.0
  0
VERTEX
  8
Default
 10
40.894
 20
38.396333
 42
0.0
  0
SEQEND
  0
POLYLINE
  8
Default
 66
     1
 10
0.0
 20
0.0
 30
0.0
 70
     0
  0
VERTEX
  8
Default
 10
15.409333
 20
38.311667
 42
0.0
  0
VERTEX
  8
Default
 10
15.409333
 20
38.311667
 42
0.0
  0
VERTEX
  8
Default
 10
15.409333
 20
35.941
 42
0.0
  0
VERTEX
  8
Default
 10
16.129
 20
35.941
 42
0.0
  0
VERTEX
  8
Default
 10
16.129
 20
32.215667
 42
0.0
  0
VERTEX
  8
Default
 10
15.917333
 20
32.131
 42
0.0
  0
VERTEX
  8
Default
 10
15.536333
 20
31.707667
 42
0.0
  0
VERTEX
  8
Default
 10
15.451667
 20
31.369
 42
0.0
  0
VERTEX
  8
Default
 10
15.451667
 20
31.157333
 42
0.0
  0
VERTEX
  8
Default
 10
15.536333
 20
30.818667
 42
0.0
  0
VERTEX
  8
Default
 10
16.044333
 20
30.310667
 42
0.0
  0
VERTEX
  8
Default
 10
16.383
 20
30.226
 42
0.0
  0
VERTEX
  8
Default
 10
16.594667
 20
30.226
 42
0.0
  0
VERTEX
  8
Default
 10
16.933333
 20
30.310667
 42
0.0
  0
VERTEX
  8
Default
 10
17.441333
 20
30.818667
 42
0.0
  0
VERTEX
  8
Default
 10
17.526
 20
31.157333
 42
0.0
  0
VERTEX
  8
Default
 10
17.526
 20
31.369
 42
0.0
  0
VERTEX
  8
Default
 10
17.441333
 20
31.707667
 42
0.0
  0
VERTEX
  8
Default
 10
17.102667
 20
32.088667
 42
0.0
  0
VERTEX
  8
Default
 10
17.102667
 20
35.941
 42
0.0
  0
VERTEX
  8
Default
 10
17.78
 20
35.941
 42
0.0
  0
VERTEX
  8
Default
 10
17.78
 20
38.311667
 42
0.0
  0
VERTEX
  8
Default
 10
15.409333
 20
38.311667
 42
0.0
  0
SEQEND
  0
POLYLINE
  8
Default
 66
     1
 10
0.0
 20
0.0
 30
0.0
 70
     0
  0
VERTEX
  8
Default
 10
60.96
 20
38.015333
 42
0.0
  0
VERTEX
  8
Default
 10
60.96
 20
38.015333
 42
0.0
  0
VERTEX
  8
Default
 10
60.706
 20
37.930667
 42
0.0
  0
VERTEX
  8
Default
 10
60.240333
 20
37.465
 42
0.0
  0
VERTEX
  8
Default
 10
58.631667
 20
37.422667
 42
0.0
  0
VERTEX
  8
Default
 10
56.853667
 20
35.687
 42
0.0
  0
VERTEX
  8
Default
 10
56.472667
 20
35.729333
 42
0.0
  0
VERTEX
  8
Default
 10
56.091667
 20
35.644667
 42
0.0
  0
VERTEX
  8
Default
 10
55.583667
 20
35.136667
 42
0.0
  0
VERTEX
  8
Default
 10
55.499
 20
34.798
 42
0.0
  0
VERTEX
  8
Default
 10
55.499
 20
34.586333
 42
0.0
  0
VERTEX
  8
Default
 10
55.583667
 20
34.247667
 42
0.0
  0
VERTEX
  8
Default
 10
56.091667
 20
33.739667
 42
0.0
  0
VERTEX
  8
Default
 10
56.430333
 20
33.655
 42
0.0
  0
VERTEX
  8
Default
 10
56.642
 20
33.655
 42
0.0
  0
VERTEX
  8
Default
 10
56.980667
 20
33.739667
 42
0.0
  0
VERTEX
  8
Default
 10
57.446333
 20
34.205333
 42
0.0
  0
VERTEX
  8
Default
 10
62.949667
 20
34.205333
 42
0.0
  0
VERTEX
  8
Default
 10
62.949667
 20
18.203333
 42
0.0
  0
VERTEX
  8
Default
 10
61.214
 20
16.51
 42
0.0
  0
VERTEX
  8
Default
 10
56.642
 20
16.467667
 42
0.0
  0
VERTEX
  8
Default
 10
56.049333
 20
15.875
 42
0.0
  0
VERTEX
  8
Default
 10
56.007
 20
14.266333
 42
0.0
  0
VERTEX
  8
Default
 10
55.414333
 20
14.266333
 42
0.0
  0
VERTEX
  8
Default
 10
55.414333
 20
12.149667
 42
0.0
  0
VERTEX
  8
Default
 10
57.531
 20
12.149667
 42
0.0
  0
VERTEX
  8
Default
 10
57.531
 20
12.7
 42
0.0
  0
VERTEX
  8
Default
 10
58.123667
 20
12.7
 42
0.0
  0
VERTEX
  8
Default
 10
58.589333
 20
12.234333
 42
0.0
  0
VERTEX
  8
Default
 10
58.928
 20
12.149667
 42
0.0
  0
VERTEX
  8
Default
 10
59.139667
 20
12.149667
 42
0.0
  0
VERTEX
  8
Default
 10
59.478333
 20
12.234333
 42
0.0
  0
VERTEX
  8
Default
 10
59.986333
 20
12.742333
 42
0.0
  0
VERTEX
  8
Default
 10
60.071
 20
13.081
 42
0.0
  0
VERTEX
  8
Default
 10
60.071
 20
13.292667
 42
0.0
  0
VERTEX
  8
Default
 10
59.986333
 20
13.631333
 42
0.0
  0
VERTEX
  8
Default
 10
59.478333
 20
14.139333
 42
0.0
  0
VERTEX
  8
Default
 10
59.139667
 20
14.224
 42
0.0
  0
VERTEX
  8
Default
 10
58.928
 20
14.224
 42
0.0
  0
VERTEX
  8
Default
 10
58.589333
 20
14.139333
 42
0.0
  0
VERTEX
  8
Default
 10
58.123667
 20
13.673667
 42
0.0
  0
VERTEX
  8
Default
 10
57.531
 20
13.673667
 42
0.0
  0
VERTEX
  8
Default
 10
57.531
 20
14.266333
 42
0.0
  0
VERTEX
  8
Default
 10
56.980667
 20
14.266333
 42
0.0
  0
VERTEX
  8
Default
 10
56.980667
 20
15.536333
 42
0.0
  0
VERTEX
  8
Default
 10
61.595
 20
15.578667
 42
0.0
  0
VERTEX
  8
Default
 10
63.881
 20
17.864667
 42
0.0
  0
VERTEX
  8
Default
 10
63.881
 20
34.755667
 42
0.0
  0
VERTEX
  8
Default
 10
63.5
 20
35.136667
 42
0.0
  0
VERTEX
  8
Default
 10
57.700333
 20
35.179
 42
0.0
  0
VERTEX
  8
Default
 10
58.970333
 20
36.491333
 42
0.0
  0
VERTEX
  8
Default
 10
60.240333
 20
36.491333
 42
0.0
  0
VERTEX
  8
Default
 10
60.706
 20
36.025667
 42
0.0
  0
VERTEX
  8
Default
 10
61.044667
 20
35.941
 42
0.0
  0
VERTEX
  8
Default
 10
61.256333
 20
35.941
 42
0.0
  0
VERTEX
  8
Default
 10
61.595
 20
36.025667
 42
0.0
  0
VERTEX
  8
Default
 10
62.103
 20
36.533667
 42
0.0
  0
VERTEX
  8
Default
 10
62.187667
 20
36.872333
 42
0.0
  0
VERTEX
  8
Default
 10
62.187667
 20
37.084
 42
0.0
  0
VERTEX
  8
Default
 10
62.103
 20
37.422667
 42
0.0
  0
VERTEX
  8
Default
 10
61.595
 20
37.930667
 42
0.0
  0
VERTEX
  8
Default
 10
61.256333
 20
38.015333
 42
0.0
  0
VERTEX
  8
Default
 10
60.96
 20
38.015333
 42
0.0
  0
SEQEND
  0
POLYLINE
  8
Default
 66
     1
 10
0.0
 20
0.0
 30
0.0
 70
     0
  0
VERTEX
  8
Default
 10
81.407
 20
37.888333
 42
0.0
  0
VERTEX
  8
Default
 10
81.407
 20
37.888333
 42
0.0
  0
VERTEX
  8
Default
 10
80.983667
 20
37.719
 42
0.0
  0
VERTEX
  8
Default
 10
80.729667
 20
37.507333
 42
0.0
  0
VERTEX
  8
Default
 10
80.475667
 20
37.211
 42
0.0
  0
VERTEX
  8
Default
 10
80.475667
 20
37.126333
 42
0.0
  0
VERTEX
  8
Default
 10
78.147333
 20
37.126333
 42
0.0
  0
VERTEX
  8
Default
 10
77.681667
 20
37.549667
 42
0.0
  0
VERTEX
  8
Default
 10
77.343
 20
37.634333
 42
0.0
  0
VERTEX
  8
Default
 10
77.131333
 20
37.634333
 42
0.0
  0
VERTEX
  8
Default
 10
76.792667
 20
37.549667
 42
0.0
  0
VERTEX
  8
Default
 10
76.284667
 20
37.041667
 42
0.0
  0
VERTEX
  8
Default
 10
76.2
 20
36.703
 42
0.0
  0
VERTEX
  8
Default
 10
76.2
 20
36.491333
 42
0.0
  0
VERTEX
  8
Default
 10
76.284667
 20
36.152667
 42
0.0
  0
VERTEX
  8
Default
 10
76.792667
 20
35.644667
 42
0.0
  0
VERTEX
  8
Default
 10
77.131333
 20
35.56
 42
0.0
  0
VERTEX
  8
Default
 10
77.343
 20
35.56
 42
0.0
  0
VERTEX
  8
Default
 10
77.681667
 20
35.644667
 42
0.0
  0
VERTEX
  8
Default
 10
78.189667
 20
36.152667
 42
0.0
  0
VERTEX
  8
Default
 10
80.475667
 20
36.152667
 42
0.0
  0
VERTEX
  8
Default
 10
80.518
 20
35.983333
 42
0.0
  0
VERTEX
  8
Default
 10
80.899
 20
35.602333
 42
0.0
  0
VERTEX
  8
Default
 10
81.28
 20
35.433
 42
0.0
  0
VERTEX
  8
Default
 10
81.915
 20
35.433
 42
0.0
  0
VERTEX
  8
Default
 10
82.296
 20
35.602333
 42
0.0
  0
VERTEX
  8
Default
 10
82.634667
 20
35.941
 42
0.0
  0
VERTEX
  8
Default
 10
82.804
 20
36.322
 42
0.0
  0
VERTEX
  8
Default
 10
82.804
 20
36.957
 42
0.0
  0
VERTEX
  8
Default
 10
82.634667
 20
37.338
 42
0.0
  0
VERTEX
  8
Default
 10
82.296
 20
37.676667
 42
0.0
  0
VERTEX
  8
Default
 10
81.915
 20
37.846
 42
0.0
  0
VERTEX
  8
Default
 10
81.407
 20
37.888333
 42
0.0
  0
SEQEND
  0
POLYLINE
  8
Default
 66
     1
 10
0.0
 20
0.0
 30
0.0
 70
     0
  0
VERTEX
  8
Default
 10
93.302667
 20
36.618333
 42
0.0
  0
VERTEX
  8
Default
 10
93.302667
 20
36.618333
 42
0.0
  0
VERTEX
  8
Default
 10
93.048667
 20
36.533667
 42
0.0
  0
VERTEX
  8
Default
 10
92.540667
 20
36.025667
 42
0.0
  0
VERTEX
  8
Default
 10
92.456
 20
35.687
 42
0.0
  0
VERTEX
  8
Default
 10
92.456
 20
35.433
 42
0.0
  0
VERTEX
  8
Default
 10
89.704333
 20
32.723667
 42
0.0
  0
VERTEX
  8
Default
 10
89.281
 20
32.808333
 42
0.0
  0
VERTEX
  8
Default
 10
88.9
 20
32.766
 42
0.0
  0
VERTEX
  8
Default
 10
88.519
 20
32.596667
 42
0.0
  0
VERTEX
  8
Default
 10
88.180333
 20
32.258
 42
0.0
  0
VERTEX
  8
Default
 10
88.011
 20
31.877
 42
0.0
  0
VERTEX
  8
Default
 10
88.011
 20
31.242
 42
0.0
  0
VERTEX
  8
Default
 10
88.180333
 20
30.861
 42
0.0
  0
VERTEX
  8
Default
 10
88.519
 20
30.522333
 42
0.0
  0
VERTEX
  8
Default
 10
88.9
 20
30.353
 42
0.0
  0
VERTEX
  8
Default
 10
89.535
 20
30.353
 42
0.0
  0
VERTEX
  8
Default
 10
89.916
 20
30.522333
 42
0.0
  0
VERTEX
  8
Default
 10
90.254667
 20
30.861
 42
0.0
  0
VERTEX
  8
Default
 10
90.424
 20
31.242
 42
0.0
  0
VERTEX
  8
Default
 10
90.424
 20
31.792333
 42
0.0
  0
VERTEX
  8
Default
 10
90.381667
 20
32.088667
 42
0.0
  0
VERTEX
  8
Default
 10
93.006333
 20
34.671
 42
0.0
  0
VERTEX
  8
Default
 10
93.345
 20
34.544
 42
0.0
  0
VERTEX
  8
Default
 10
93.599
 20
34.544
 42
0.0
  0
VERTEX
  8
Default
 10
93.937667
 20
34.628667
 42
0.0
  0
VERTEX
  8
Default
 10
94.445667
 20
35.136667
 42
0.0
  0
VERTEX
  8
Default
 10
94.530333
 20
35.475333
 42
0.0
  0
VERTEX
  8
Default
 10
94.530333
 20
35.687
 42
0.0
  0
VERTEX
  8
Default
 10
94.445667
 20
36.025667
 42
0.0
  0
VERTEX
  8
Default
 10
93.937667
 20
36.533667
 42
0.0
  0
VERTEX
  8
Default
 10
93.599
 20
36.618333
 42
0.0
  0
VERTEX
  8
Default
 10
93.302667
 20
36.618333
 42
0.0
  0
SEQEND
  0
POLYLINE
  8
Default
 66
     1
 10
0.0
 20
0.0
 30
0.0
 70
     0
  0
VERTEX
  8
Default
 10
81.407
 20
32.808333
 42
0.0
  0
VERTEX
  8
Default
 10
81.407
 20
32.808333
 42
0.0
  0
VERTEX
  8
Default
 10
80.983667
 20
32.639
 42
0.0
  0
VERTEX
  8
Default
 10
80.729667
 20
32.427333
 42
0.0
  0
VERTEX
  8
Default
 10
80.475667
 20
32.131
 42
0.0
  0
VERTEX
  8
Default
 10
80.475667
 20
32.046333
 42
0.0
  0
VERTEX
  8
Default
 10
78.316667
 20
32.046333
 42
0.0
  0
VERTEX
  8
Default
 10
78.316667
 20
32.596667
 42
0.0
  0
VERTEX
  8
Default
 10
76.2
 20
32.596667
 42
0.0
  0
VERTEX
  8
Default
 10
76.2
 20
30.48
 42
0.0
  0
VERTEX
  8
Default
 10
78.316667
 20
30.48
 42
0.0
  0
VERTEX
  8
Default
 10
78.316667
 20
31.072667
 42
0.0
  0
VERTEX
  8
Default
 10
80.475667
 20
31.072667
 42
0.0
  0
VERTEX
  8
Default
 10
80.518
 20
30.903333
 42
0.0
  0
VERTEX
  8
Default
 10
80.899
 20
30.522333
 42
0.0
  0
VERTEX
  8
Default
 10
81.28
 20
30.353
 42
0.0
  0
VERTEX
  8
Default
 10
81.915
 20
30.353
 42
0.0
  0
VERTEX
  8
Default
 10
82.296
 20
30.522333
 42
0.0
  0
VERTEX
  8
Default
 10
82.634667
 20
30.861
 42
0.0
  0
VERTEX
  8
Default
 10
82.804
 20
31.242
 42
0.0
  0
VERTEX
  8
Default
 10
82.804
 20
31.877
 42
0.0
  0
VERTEX
  8
Default
 10
82.634667
 20
32.258
 42
0.0
  0
VERTEX
  8
Default
 10
82.296
 20
32.596667
 42
0.0
  0
VERTEX
  8
Default
 10
81.915
 20
32.766
 42
0.0
  0
VERTEX
  8
Default
 10
81.407
 20
32.808333
 42
0.0
  0
SEQEND
  0
POLYLINE
  8
Default
 66
     1
 10
0.0
 20
0.0
 30
0.0
 70
     0
  0
VERTEX
  8
Default
 10
6.35
 20
31.919333
 42
0.0
  0
VERTEX
  8
Default
 10
6.35
 20
31.919333
 42
0.0
  0
VERTEX
  8
Default
 10
6.096
 20
31.834667
 42
0.0
  0
VERTEX
  8
Default
 10
5.588
 20
31.326667
 42
0.0
  0
VERTEX
  8
Default
 10
5.503333
 20
30.988
 42
0.0
  0
VERTEX
  8
Default
 10
5.503333
 20
30.776333
 42
0.0
  0
VERTEX
  8
Default
 10
5.588
 20
30.437667
 42
0.0
  0
VERTEX
  8
Default
 10
6.096
 20
29.929667
 42
0.0
  0
VERTEX
  8
Default
 10
6.434667
 20
29.845
 42
0.0
  0
VERTEX
  8
Default
 10
6.646333
 20
29.845
 42
0.0
  0
VERTEX
  8
Default
 10
6.985
 20
29.929667
 42
0.0
  0
VERTEX
  8
Default
 10
7.450667
 20
30.395333
 42
0.0
  0
VERTEX
  8
Default
 10
10.16
 20
30.395333
 42
0.0
  0
VERTEX
  8
Default
 10
10.16
 20
29.760333
 42
0.0
  0
VERTEX
  8
Default
 10
10.625667
 20
29.760333
 42
0.0
  0
VERTEX
  8
Default
 10
10.668
 20
25.230667
 42
0.0
  0
VERTEX
  8
Default
 10
11.176
 20
24.722667
 42
0.0
  0
VERTEX
  8
Default
 10
11.599333
 20
24.680333
 42
0.0
  0
VERTEX
  8
Default
 10
11.599333
 20
24.172333
 42
0.0
  0
VERTEX
  8
Default
 10
13.462
 20
24.172333
 42
0.0
  0
VERTEX
  8
Default
 10
13.462
 20
26.035
 42
0.0
  0
VERTEX
  8
Default
 10
11.599333
 20
26.035
 42
0.0
  0
VERTEX
  8
Default
 10
11.599333
 20
29.760333
 42
0.0
  0
VERTEX
  8
Default
 10
12.022667
 20
29.760333
 42
0.0
  0
VERTEX
  8
Default
 10
12.022667
 20
31.623
 42
0.0
  0
VERTEX
  8
Default
 10
10.16
 20
31.623
 42
0.0
  0
VERTEX
  8
Default
 10
10.16
 20
31.369
 42
0.0
  0
VERTEX
  8
Default
 10
7.450667
 20
31.369
 42
0.0
  0
VERTEX
  8
Default
 10
6.985
 20
31.834667
 42
0.0
  0
VERTEX
  8
Default
 10
6.646333
 20
31.919333
 42
0.0
  0
VERTEX
  8
Default
 10
6.35
 20
31.919333
 42
0.0
  0
SEQEND
  0
POLYLINE
  8
Default
 66
     1
 10
0.0
 20
0.0
 30
0.0
 70
     0
  0
VERTEX
  8
Default
 10
105.918
 20
31.665333
 42
0.0
  0
VERTEX
  8
Default
 10
105.918
 20
31.665333
 42
0.0
  0
VERTEX
  8
Default
 10
105.621667
 20
31.538333
 42
0.0
  0
VERTEX
  8
Default
 10
105.283
 20
31.326667
 42
0.0
  0
VERTEX
  8
Default
 10
105.029
 20
30.945667
 42
0.0
  0
VERTEX
  8
Default
 10
104.944333
 20
30.607
 42
0.0
  0
VERTEX
  8
Default
 10
104.986667
 20
30.183667
 42
0.0
  0
VERTEX
  8
Default
 10
105.198333
 20
29.760333
 42
0.0
  0
VERTEX
  8
Default
 10
105.452333
 20
29.548667
 42
0.0
  0
VERTEX
  8
Default
 10
105.791
 20
29.379333
 42
0.0
  0
VERTEX
  8
Default
 10
106.426
 20
29.379333
 42
0.0
  0
VERTEX
  8
Default
 10
106.849333
 20
29.633333
 42
0.0
  0
VERTEX
  8
Default
 10
107.145667
 20
30.014333
 42
0.0
  0
VERTEX
  8
Default
 10
109.474
 20
30.014333
 42
0.0
  0
VERTEX
  8
Default
 10
109.474
 20
23.071667
 42
0.0
  0
VERTEX
  8
Default
 10
109.008333
 20
22.606
 42
0.0
  0
VERTEX
  8
Default
 10
108.923667
 20
22.267333
 42
0.0
  0
VERTEX
  8
Default
 10
108.923667
 20
22.055667
 42
0.0
  0
VERTEX
  8
Default
 10
109.008333
 20
21.717
 42
0.0
  0
VERTEX
  8
Default
 10
109.516333
 20
21.209
 42
0.0
  0
VERTEX
  8
Default
 10
109.855
 20
21.124333
 42
0.0
  0
VERTEX
  8
Default
 10
110.066667
 20
21.124333
 42
0.0
  0
VERTEX
  8
Default
 10
110.405333
 20
21.209
 42
0.0
  0
VERTEX
  8
Default
 10
110.913333
 20
21.717
 42
0.0
  0
VERTEX
  8
Default
 10
110.998
 20
22.055667
 42
0.0
  0
VERTEX
  8
Default
 10
110.998
 20
22.267333
 42
0.0
  0
VERTEX
  8
Default
 10
110.913333
 20
22.606
 42
0.0
  0
VERTEX
  8
Default
 10
110.447667
 20
23.071667
 42
0.0
  0
VERTEX
  8
Default
 10
110.405333
 20
30.691667
 42
0.0
  0
VERTEX
  8
Default
 10
110.151333
 20
30.945667
 42
0.0
  0
VERTEX
  8
Default
 10
107.145667
 20
31.030333
 42
0.0
  0
VERTEX
  8
Default
 10
106.849333
 20
31.369
 42
0.0
  0
VERTEX
  8
Default
 10
106.426
 20
31.623
 42
0.0
  0
VERTEX
  8
Default
 10
105.918
 20
31.665333
 42
0.0
  0
SEQEND
  0
POLYLINE
  8
Default
 66
     1
 10
0.0
 20
0.0
 30
0.0
 70
     0
  0
VERTEX
  8
Default
 10
33.274
 20
30.776333
 42
0.0
  0
VERTEX
  8
Default
 10
33.274
 20
30.776333
 42
0.0
  0
VERTEX
  8
Default
 10
33.02
 20
30.691667
 42
0.0
  0
VERTEX
  8
Default
 10
32.512
 20
30.183667
 42
0.0
  0
VERTEX
  8
Default
 10
32.427333
 20
29.845
 42
0.0
  0
VERTEX
  8
Default
 10
32.427333
 20
29.633333
 42
0.0
  0
VERTEX
  8
Default
 10
32.512
 20
29.294667
 42
0.0
  0
VERTEX
  8
Default
 10
32.977667
 20
28.829
 42
0.0
  0
VERTEX
  8
Default
 10
32.977667
 20
26.077333
 42
0.0
  0
VERTEX
  8
Default
 10
32.512
 20
25.611667
 42
0.0
  0
VERTEX
  8
Default
 10
32.427333
 20
25.273
 42
0.0
  0
VERTEX
  8
Default
 10
32.427333
 20
25.061333
 42
0.0
  0
VERTEX
  8
Default
 10
32.512
 20
24.722667
 42
0.0
  0
VERTEX
  8
Default
 10
33.02
 20
24.214667
 42
0.0
  0
VERTEX
  8
Default
 10
33.358667
 20
24.13
 42
0.0
  0
VERTEX
  8
Default
 10
33.570333
 20
24.13
 42
0.0
  0
VERTEX
  8
Default
 10
33.909
 20
24.214667
 42
0.0
  0
VERTEX
  8
Default
 10
34.417
 20
24.722667
 42
0.0
  0
VERTEX
  8
Default
 10
34.501667
 20
25.061333
 42
0.0
  0
VERTEX
  8
Default
 10
34.501667
 20
25.273
 42
0.0
  0
VERTEX
  8
Default
 10
34.417
 20
25.611667
 42
0.0
  0
VERTEX
  8
Default
 10
33.951333
 20
26.077333
 42
0.0
  0
VERTEX
  8
Default
 10
33.951333
 20
28.829
 42
0.0
  0
VERTEX
  8
Default
 10
34.417
 20
29.294667
 42
0.0
  0
VERTEX
  8
Default
 10
34.501667
 20
29.633333
 42
0.0
  0
VERTEX
  8
Default
 10
34.501667
 20
29.845
 42
0.0
  0
VERTEX
  8
Default
 10
34.417
 20
30.183667
 42
0.0
  0
VERTEX
  8
Default
 10
33.909
 20
30.691667
 42
0.0
  0
VERTEX
  8
Default
 10
33.570333
 20
30.776333
 42
0.0
  0
VERTEX
  8
Default
 10
33.274
 20
30.776333
 42
0.0
  0
SEQEND
  0
POLYLINE
  8
Default
 66
     1
 10
0.0
 20
0.0
 30
0.0
 70
     0
  0
VERTEX
  8
Default
 10
38.354
 20
30.776333
 42
0.0
  0
VERTEX
  8
Default
 10
38.354
 20
30.776333
 42
0.0
  0
VERTEX
  8
Default
 10
38.1
 20
30.691667
 42
0.0
  0
VERTEX
  8
Default
 10
37.592
 20
30.183667
 42
0.0
  0
VERTEX
  8
Default
 10
37.507333
 20
29.845
 42
0.0
  0
VERTEX
  8
Default
 10
37.507333
 20
29.633333
 42
0.0
  0
VERTEX
  8
Default
 10
37.592
 20
29.294667
 42
0.0
  0
VERTEX
  8
Default
 10
38.057667
 20
28.829
 42
0.0
  0
VERTEX
  8
Default
 10
38.057667
 20
26.077333
 42
0.0
  0
VERTEX
  8
Default
 10
37.592
 20
25.611667
 42
0.0
  0
VERTEX
  8
Default
 10
37.507333
 20
25.273
 42
0.0
  0
VERTEX
  8
Default
 10
37.507333
 20
25.061333
 42
0.0
  0
VERTEX
  8
Default
 10
37.592
 20
24.722667
 42
0.0
  0
VERTEX
  8
Default
 10
38.1
 20
24.214667
 42
0.0
  0
VERTEX
  8
Default
 10
38.438667
 20
24.13
 42
0.0
  0
VERTEX
  8
Default
 10
38.650333
 20
24.13
 42
0.0
  0
VERTEX
  8
Default
 10
38.989
 20
24.214667
 42
0.0
  0
VERTEX
  8
Default
 10
39.497
 20
24.722667
 42
0.0
  0
VERTEX
  8
Default
 10
39.581667
 20
25.061333
 42
0.0
  0
VERTEX
  8
Default
 10
39.581667
 20
25.273
 42
0.0
  0
VERTEX
  8
Default
 10
39.497
 20
25.611667
 42
0.0
  0
VERTEX
  8
Default
 10
39.031333
 20
26.077333
 42
0.0
  0
VERTEX
  8
Default
 10
39.031333
 20
28.829
 42
0.0
  0
VERTEX
  8
Default
 10
39.454667
 20
29.252333
 42
0.0
  0
VERTEX
  8
Default
 10
40.174333
 20
29.252333
 42
0.0
  0
VERTEX
  8
Default
 10
40.64
 20
28.786667
 42
0.0
  0
VERTEX
  8
Default
 10
40.978667
 20
28.702
 42
0.0
  0
VERTEX
  8
Default
 10
41.190333
 20
28.702
 42
0.0
  0
VERTEX
  8
Default
 10
41.529
 20
28.786667
 42
0.0
  0
VERTEX
  8
Default
 10
42.037
 20
29.294667
 42
0.0
  0
VERTEX
  8
Default
 10
42.121667
 20
29.633333
 42
0.0
  0
VERTEX
  8
Default
 10
42.121667
 20
29.845
 42
0.0
  0
VERTEX
  8
Default
 10
42.037
 20
30.183667
 42
0.0
  0
VERTEX
  8
Default
 10
41.529
 20
30.691667
 42
0.0
  0
VERTEX
  8
Default
 10
41.190333
 20
30.776333
 42
0.0
  0
VERTEX
  8
Default
 10
40.978667
 20
30.776333
 42
0.0
  0
VERTEX
  8
Default
 10
40.64
 20
30.691667
 42
0.0
  0
VERTEX
  8
Default
 10
40.174333
 20
30.226
 42
0.0
  0
VERTEX
  8
Default
 10
39.454667
 20
30.226
 42
0.0
  0
VERTEX
  8
Default
 10
38.989
 20
30.691667
 42
0.0
  0
VERTEX
  8
Default
 10
38.650333
 20
30.776333
 42
0.0
  0
VERTEX
  8
Default
 10
38.354
 20
30.776333
 42
0.0
  0
SEQEND
  0
POLYLINE
  8
Default
 66
     1
 10
0.0
 20
0.0
 30
0.0
 70
     0
  0
VERTEX
  8
Default
 10
43.434
 20
30.776333
 42
0.0
  0
VERTEX
  8
Default
 10
43.434
 20
30.776333
 42
0.0
  0
VERTEX
  8
Default
 10
43.18
 20
30.691667
 42
0.0
  0
VERTEX
  8
Default
 10
42.672
 20
30.183667
 42
0.0
  0
VERTEX
  8
Default
 10
42.587333
 20
29.845
 42
0.0
  0
VERTEX
  8
Default
 10
42.587333
 20
29.633333
 42
0.0
  0
VERTEX
  8
Default
 10
42.672
 20
29.294667
 42
0.0
  0
VERTEX
  8
Default
 10
43.137667
 20
28.829
 42
0.0
  0
VERTEX
  8
Default
 10
43.18
 20
24.849667
 42
0.0
  0
VERTEX
  8
Default
 10
43.434
 20
24.595667
 42
0.0
  0
VERTEX
  8
Default
 10
45.042667
 20
24.553333
 42
0.0
  0
VERTEX
  8
Default
 10
45.508333
 20
24.087667
 42
0.0
  0
VERTEX
  8
Default
 10
45.847
 20
24.003
 42
0.0
  0
VERTEX
  8
Default
 10
46.058667
 20
24.003
 42
0.0
  0
VERTEX
  8
Default
 10
46.397333
 20
24.087667
 42
0.0
  0
VERTEX
  8
Default
 10
46.863
 20
24.553333
 42
0.0
  0
VERTEX
  8
Default
 10
49.741667
 20
24.553333
 42
0.0
  0
VERTEX
  8
Default
 10
49.784
 20
24.299333
 42
0.0
  0
VERTEX
  8
Default
 10
50.292
 20
23.791333
 42
0.0
  0
VERTEX
  8
Default
 10
50.630667
 20
23.706667
 42
0.0
  0
VERTEX
  8
Default
 10
50.842333
 20
23.706667
 42
0.0
  0
VERTEX
  8
Default
 10
51.181
 20
23.791333
 42
0.0
  0
VERTEX
  8
Default
 10
51.689
 20
24.299333
 42
0.0
  0
VERTEX
  8
Default
 10
51.773667
 20
24.638
 42
0.0
  0
VERTEX
  8
Default
 10
51.773667
 20
24.849667
 42
0.0
  0
VERTEX
  8
Default
 10
51.689
 20
25.188333
 42
0.0
  0
VERTEX
  8
Default
 10
51.181
 20
25.696333
 42
0.0
  0
VERTEX
  8
Default
 10
50.842333
 20
25.781
 42
0.0
  0
VERTEX
  8
Default
 10
50.588333
 20
25.781
 42
0.0
  0
VERTEX
  8
Default
 10
50.334333
 20
25.696333
 42
0.0
  0
VERTEX
  8
Default
 10
50.080333
 20
25.527
 42
0.0
  0
VERTEX
  8
Default
 10
46.863
 20
25.527
 42
0.0
  0
VERTEX
  8
Default
 10
46.397333
 20
25.992667
 42
0.0
  0
VERTEX
  8
Default
 10
46.058667
 20
26.077333
 42
0.0
  0
VERTEX
  8
Default
 10
45.847
 20
26.077333
 42
0.0
  0
VERTEX
  8
Default
 10
45.508333
 20
25.992667
 42
0.0
  0
VERTEX
  8
Default
 10
45.042667
 20
25.527
 42
0.0
  0
VERTEX
  8
Default
 10
44.111333
 20
25.527
 42
0.0
  0
VERTEX
  8
Default
 10
44.111333
 20
28.829
 42
0.0
  0
VERTEX
  8
Default
 10
44.577
 20
29.294667
 42
0.0
  0
VERTEX
  8
Default
 10
44.661667
 20
29.633333
 42
0.0
  0
VERTEX
  8
Default
 10
44.661667
 20
29.845
 42
0.0
  0
VERTEX
  8
Default
 10
44.577
 20
30.183667
 42
0.0
  0
VERTEX
  8
Default
 10
44.069
 20
30.691667
 42
0.0
  0
VERTEX
  8
Default
 10
43.730333
 20
30.776333
 42
0.0
  0
VERTEX
  8
Default
 10
43.434
 20
30.776333
 42
0.0
  0
SEQEND
  0
POLYLINE
  8
Default
 66
     1
 10
0.0
 20
0.0
 30
0.0
 70
     0
  0
VERTEX
  8
Default
 10
104.944333
 20
23.029333
 42
0.0
  0
VERTEX
  8
Default
 10
104.944333
 20
23.029333
 42
0.0
  0
VERTEX
  8
Default
 10
104.690333
 20
22.944667
 42
0.0
  0
VERTEX
  8
Default
 10
104.182333
 20
22.436667
 42
0.0
  0
VERTEX
  8
Default
 10
104.097667
 20
22.055667
 42
0.0
  0
VERTEX
  8
Default
 10
104.14
 20
21.674667
 42
0.0
  0
VERTEX
  8
Default
 10
102.362
 20
19.854333
 42
0.0
  0
VERTEX
  8
Default
 10
102.319667
 20
12.996333
 42
0.0
  0
VERTEX
  8
Default
 10
98.171
 20
12.996333
 42
0.0
  0
VERTEX
  8
Default
 10
98.171
 20
13.335
 42
0.0
  0
VERTEX
  8
Default
 10
98.382667
 20
13.419667
 42
0.0
  0
VERTEX
  8
Default
 10
98.763667
 20
13.843
 42
0.0
  0
VERTEX
  8
Default
 10
98.890667
 20
14.266333
 42
0.0
  0
VERTEX
  8
Default
 10
98.890667
 20
14.562667
 42
0.0
  0
VERTEX
  8
Default
 10
98.763667
 20
14.986
 42
0.0
  0
VERTEX
  8
Default
 10
98.255667
 20
15.494
 42
0.0
  0
VERTEX
  8
Default
 10
97.832333
 20
15.621
 42
0.0
  0
VERTEX
  8
Default
 10
97.536
 20
15.621
 42
0.0
  0
VERTEX
  8
Default
 10
97.112667
 20
15.494
 42
0.0
  0
VERTEX
  8
Default
 10
96.604667
 20
14.986
 42
0.0
  0
VERTEX
  8
Default
 10
96.477667
 20
14.562667
 42
0.0
  0
VERTEX
  8
Default
 10
96.477667
 20
14.266333
 42
0.0
  0
VERTEX
  8
Default
 10
96.604667
 20
13.843
 42
0.0
  0
VERTEX
  8
Default
 10
96.985667
 20
13.419667
 42
0.0
  0
VERTEX
  8
Default
 10
97.197333
 20
13.335
 42
0.0
  0
VERTEX
  8
Default
 10
97.239667
 20
12.319
 42
0.0
  0
VERTEX
  8
Default
 10
97.493667
 20
12.065
 42
0.0
  0
VERTEX
  8
Default
 10
102.785333
 20
12.065
 42
0.0
  0
VERTEX
  8
Default
 10
103.251
 20
12.530667
 42
0.0
  0
VERTEX
  8
Default
 10
103.293333
 20
19.473333
 42
0.0
  0
VERTEX
  8
Default
 10
104.775
 20
20.997333
 42
0.0
  0
VERTEX
  8
Default
 10
105.198333
 20
20.955
 42
0.0
  0
VERTEX
  8
Default
 10
105.579333
 20
21.039667
 42
0.0
  0
VERTEX
  8
Default
 10
106.087333
 20
21.547667
 42
0.0
  0
VERTEX
  8
Default
 10
106.172
 20
21.886333
 42
0.0
  0
VERTEX
  8
Default
 10
106.172
 20
22.098
 42
0.0
  0
VERTEX
  8
Default
 10
106.087333
 20
22.436667
 42
0.0
  0
VERTEX
  8
Default
 10
105.579333
 20
22.944667
 42
0.0
  0
VERTEX
  8
Default
 10
105.240667
 20
23.029333
 42
0.0
  0
VERTEX
  8
Default
 10
104.944333
 20
23.029333
 42
0.0
  0
SEQEND
  0
POLYLINE
  8
Default
 66
     1
 10
0.0
 20
0.0
 30
0.0
 70
     0
  0
VERTEX
  8
Default
 10
16.975667
 20
21.547667
 42
0.0
  0
VERTEX
  8
Default
 10
16.975667
 20
21.547667
 42
0.0
  0
VERTEX
  8
Default
 10
16.721667
 20
21.463
 42
0.0
  0
VERTEX
  8
Default
 10
16.213667
 20
20.955
 42
0.0
  0
VERTEX
  8
Default
 10
16.129
 20
20.616333
 42
0.0
  0
VERTEX
  8
Default
 10
16.129
 20
20.404667
 42
0.0
  0
VERTEX
  8
Default
 10
16.213667
 20
20.066
 42
0.0
  0
VERTEX
  8
Default
 10
16.679333
 20
19.600333
 42
0.0
  0
VERTEX
  8
Default
 10
16.679333
 20
16.891
 42
0.0
  0
VERTEX
  8
Default
 10
13.758333
 20
16.891
 42
0.0
  0
VERTEX
  8
Default
 10
13.504333
 20
17.187333
 42
0.0
  0
VERTEX
  8
Default
 10
13.546667
 20
17.568333
 42
0.0
  0
VERTEX
  8
Default
 10
13.462
 20
17.949333
 42
0.0
  0
VERTEX
  8
Default
 10
12.954
 20
18.457333
 42
0.0
  0
VERTEX
  8
Default
 10
12.615333
 20
18.542
 42
0.0
  0
VERTEX
  8
Default
 10
12.403667
 20
18.542
 42
0.0
  0
VERTEX
  8
Default
 10
12.065
 20
18.457333
 42
0.0
  0
VERTEX
  8
Default
 10
11.557
 20
17.949333
 42
0.0
  0
VERTEX
  8
Default
 10
11.472333
 20
17.610667
 42
0.0
  0
VERTEX
  8
Default
 10
11.472333
 20
17.399
 42
0.0
  0
VERTEX
  8
Default
 10
11.557
 20
17.060333
 42
0.0
  0
VERTEX
  8
Default
 10
12.065
 20
16.552333
 42
0.0
  0
VERTEX
  8
Default
 10
12.446
 20
16.467667
 42
0.0
  0
VERTEX
  8
Default
 10
12.827
 20
16.51
 42
0.0
  0
VERTEX
  8
Default
 10
13.419667
 20
15.959667
 42
0.0
  0
VERTEX
  8
Default
 10
42.164
 20
15.959667
 42
0.0
  0
VERTEX
  8
Default
 10
42.418
 20
16.213667
 42
0.0
  0
VERTEX
  8
Default
 10
42.460333
 20
16.933333
 42
0.0
  0
VERTEX
  8
Default
 10
42.926
 20
17.399
 42
0.0
  0
VERTEX
  8
Default
 10
43.010667
 20
17.737667
 42
0.0
  0
VERTEX
  8
Default
 10
43.010667
 20
17.949333
 42
0.0
  0
VERTEX
  8
Default
 10
42.926
 20
18.288
 42
0.0
  0
VERTEX
  8
Default
 10
42.418
 20
18.796
 42
0.0
  0
VERTEX
  8
Default
 10
42.079333
 20
18.880667
 42
0.0
  0
VERTEX
  8
Default
 10
41.867667
 20
18.880667
 42
0.0
  0
VERTEX
  8
Default
 10
41.529
 20
18.796
 42
0.0
  0
VERTEX
  8
Default
 10
41.021
 20
18.288
 42
0.0
  0
VERTEX
  8
Default
 10
40.936333
 20
17.949333
 42
0.0
  0
VERTEX
  8
Default
 10
40.936333
 20
17.737667
 42
0.0
  0
VERTEX
  8
Default
 10
41.021
 20
17.399
 42
0.0
  0
VERTEX
  8
Default
 10
41.486667
 20
16.933333
 42
0.0
  0
VERTEX
  8
Default
 10
41.486667
 20
16.891
 42
0.0
  0
VERTEX
  8
Default
 10
17.653
 20
16.891
 42
0.0
  0
VERTEX
  8
Default
 10
17.653
 20
19.600333
 42
0.0
  0
VERTEX
  8
Default
 10
18.118667
 20
20.066
 42
0.0
  0
VERTEX
  8
Default
 10
18.203333
 20
20.404667
 42
0.0
  0
VERTEX
  8
Default
 10
18.203333
 20
20.616333
 42
0.0
  0
VERTEX
  8
Default
 10
18.118667
 20
20.955
 42
0.0
  0
VERTEX
  8
Default
 10
17.610667
 20
21.463
 42
0.0
  0
VERTEX
  8
Default
 10
17.272
 20
21.547667
 42
0.0
  0
VERTEX
  8
Default
 10
16.975667
 20
21.547667
 42
0.0
  0
SEQEND
  0
POLYLINE
  8
Default
 66
     1
 10
0.0
 20
0.0
 30
0.0
 70
     0
  0
VERTEX
  8
Default
 10
68.749333
 20
19.05
 42
0.0
  0
VERTEX
  8
Default
 10
68.749333
 20
19.05
 42
0.0
  0
VERTEX
  8
Default
 10
68.495333
 20
18.965333
 42
0.0
  0
VERTEX
  8
Default
 10
67.987333
 20
18.457333
 42
0.0
  0
VERTEX
  8
Default
 10
67.902667
 20
18.118667
 42
0.0
  0
VERTEX
  8
Default
 10
67.902667
 20
17.907
 42
0.0
  0
VERTEX
  8
Default
 10
67.987333
 20
17.568333
 42
0.0
  0
VERTEX
  8
Default
 10
68.495333
 20
17.060333
 42
0.0
  0
VERTEX
  8
Default
 10
68.834
 20
16.975667
 42
0.0
  0
VERTEX
  8
Default
 10
69.045667
 20
16.975667
 42
0.0
  0
VERTEX
  8
Default
 10
69.384333
 20
17.060333
 42
0.0
  0
VERTEX
  8
Default
 10
69.892333
 20
17.568333
 42
0.0
  0
VERTEX
  8
Default
 10
69.977
 20
17.907
 42
0.0
  0
VERTEX
  8
Default
 10
69.977
 20
18.118667
 42
0.0
  0
VERTEX
  8
Default
 10
69.892333
 20
18.457333
 42
0.0
  0
VERTEX
  8
Default
 10
69.384333
 20
18.965333
 42
0.0
  0
VERTEX
  8
Default
 10
69.045667
 20
19.05
 42
0.0
  0
VERTEX
  8
Default
 10
68.749333
 20
19.05
 42
0.0
  0
SEQEND
  0
POLYLINE
  8
Default
 66
     1
 10
0.0
 20
0.0
 30
0.0
 70
     0
  0
VERTEX
  8
Default
 10
81.491667
 20
18.965333
 42
0.0
  0
VERTEX
  8
Default
 10
81.491667
 20
18.965333
 42
0.0
  0
VERTEX
  8
Default
 10
81.322333
 20
18.880667
 42
0.0
  0
VERTEX
  8
Default
 10
81.153
 20
18.669
 42
0.0
  0
VERTEX
  8
Default
 10
81.110667
 20
17.568333
 42
0.0
  0
VERTEX
  8
Default
 10
80.348667
 20
17.568333
 42
0.0
  0
VERTEX
  8
Default
 10
80.348667
 20
15.070667
 42
0.0
  0
VERTEX
  8
Default
 10
82.846333
 20
15.070667
 42
0.0
  0
VERTEX
  8
Default
 10
82.846333
 20
17.568333
 42
0.0
  0
VERTEX
  8
Default
 10
82.084333
 20
17.568333
 42
0.0
  0
VERTEX
  8
Default
 10
82.084333
 20
17.991667
 42
0.0
  0
VERTEX
  8
Default
 10
94.657333
 20
17.991667
 42
0.0
  0
VERTEX
  8
Default
 10
94.657333
 20
15.494
 42
0.0
  0
VERTEX
  8
Default
 10
94.445667
 20
15.409333
 42
0.0
  0
VERTEX
  8
Default
 10
94.064667
 20
14.986
 42
0.0
  0
VERTEX
  8
Default
 10
93.937667
 20
14.562667
 42
0.0
  0
VERTEX
  8
Default
 10
93.937667
 20
14.266333
 42
0.0
  0
VERTEX
  8
Default
 10
94.064667
 20
13.843
 42
0.0
  0
VERTEX
  8
Default
 10
94.445667
 20
13.419667
 42
0.0
  0
VERTEX
  8
Default
 10
94.657333
 20
13.335
 42
0.0
  0
VERTEX
  8
Default
 10
94.657333
 20
10.16
 42
0.0
  0
VERTEX
  8
Default
 10
93.98
 20
10.16
 42
0.0
  0
VERTEX
  8
Default
 10
93.98
 20
8.297333
 42
0.0
  0
VERTEX
  8
Default
 10
95.842667
 20
8.297333
 42
0.0
  0
VERTEX
  8
Default
 10
95.842667
 20
10.16
 42
0.0
  0
VERTEX
  8
Default
 10
95.631
 20
10.16
 42
0.0
  0
VERTEX
  8
Default
 10
95.631
 20
13.335
 42
0.0
  0
VERTEX
  8
Default
 10
95.842667
 20
13.419667
 42
0.0
  0
VERTEX
  8
Default
 10
96.223667
 20
13.843
 42
0.0
  0
VERTEX
  8
Default
 10
96.350667
 20
14.266333
 42
0.0
  0
VERTEX
  8
Default
 10
96.350667
 20
14.562667
 42
0.0
  0
VERTEX
  8
Default
 10
96.223667
 20
14.986
 42
0.0
  0
VERTEX
  8
Default
 10
95.842667
 20
15.409333
 42
0.0
  0
VERTEX
  8
Default
 10
95.631
 20
15.494
 42
0.0
  0
VERTEX
  8
Default
 10
95.588667
 20
18.669
 42
0.0
  0
VERTEX
  8
Default
 10
95.334667
 20
18.923
 42
0.0
  0
VERTEX
  8
Default
 10
81.491667
 20
18.965333
 42
0.0
  0
SEQEND
  0
POLYLINE
  8
Default
 66
     1
 10
0.0
 20
0.0
 30
0.0
 70
     0
  0
VERTEX
  8
Default
 10
48.641
 20
18.753667
 42
0.0
  0
VERTEX
  8
Default
 10
48.641
 20
18.753667
 42
0.0
  0
VERTEX
  8
Default
 10
48.641
 20
16.891
 42
0.0
  0
VERTEX
  8
Default
 10
49.233667
 20
16.891
 42
0.0
  0
VERTEX
  8
Default
 10
49.233667
 20
15.070667
 42
0.0
  0
VERTEX
  8
Default
 10
48.810333
 20
15.070667
 42
0.0
  0
VERTEX
  8
Default
 10
48.810333
 20
13.208
 42
0.0
  0
VERTEX
  8
Default
 10
50.673
 20
13.208
 42
0.0
  0
VERTEX
  8
Default
 10
50.673
 20
15.070667
 42
0.0
  0
VERTEX
  8
Default
 10
50.207333
 20
15.070667
 42
0.0
  0
VERTEX
  8
Default
 10
50.207333
 20
16.891
 42
0.0
  0
VERTEX
  8
Default
 10
50.503667
 20
16.891
 42
0.0
  0
VERTEX
  8
Default
 10
50.503667
 20
18.753667
 42
0.0
  0
VERTEX
  8
Default
 10
48.641
 20
18.753667
 42
0.0
  0
SEQEND
  0
POLYLINE
  8
Default
 66
     1
 10
0.0
 20
0.0
 30
0.0
 70
     0
  0
VERTEX
  8
Default
 10
89.027
 20
17.568333
 42
0.0
  0
VERTEX
  8
Default
 10
89.027
 20
17.568333
 42
0.0
  0
VERTEX
  8
Default
 10
88.603667
 20
17.399
 42
0.0
  0
VERTEX
  8
Default
 10
88.349667
 20
17.187333
 42
0.0
  0
VERTEX
  8
Default
 10
88.095667
 20
16.891
 42
0.0
  0
VERTEX
  8
Default
 10
87.968667
 20
16.425333
 42
0.0
  0
VERTEX
  8
Default
 10
88.011
 20
16.002
 42
0.0
  0
VERTEX
  8
Default
 10
88.180333
 20
15.621
 42
0.0
  0
VERTEX
  8
Default
 10
88.561333
 20
15.24
 42
0.0
  0
VERTEX
  8
Default
 10
88.730667
 20
15.197667
 42
0.0
  0
VERTEX
  8
Default
 10
88.730667
 20
11.260667
 42
0.0
  0
VERTEX
  8
Default
 10
87.587667
 20
10.16
 42
0.0
  0
VERTEX
  8
Default
 10
87.460667
 20
10.244667
 42
0.0
  0
VERTEX
  8
Default
 10
87.164333
 20
10.244667
 42
0.0
  0
VERTEX
  8
Default
 10
86.825667
 20
10.16
 42
0.0
  0
VERTEX
  8
Default
 10
86.36
 20
9.694333
 42
0.0
  0
VERTEX
  8
Default
 10
80.560333
 20
9.694333
 42
0.0
  0
VERTEX
  8
Default
 10
80.433333
 20
9.863667
 42
0.0
  0
VERTEX
  8
Default
 10
80.475667
 20
10.244667
 42
0.0
  0
VERTEX
  8
Default
 10
80.391
 20
10.625667
 42
0.0
  0
VERTEX
  8
Default
 10
79.883
 20
11.133667
 42
0.0
  0
VERTEX
  8
Default
 10
79.544333
 20
11.218333
 42
0.0
  0
VERTEX
  8
Default
 10
79.332667
 20
11.218333
 42
0.0
  0
VERTEX
  8
Default
 10
78.994
 20
11.133667
 42
0.0
  0
VERTEX
  8
Default
 10
78.528333
 20
10.668
 42
0.0
  0
VERTEX
  8
Default
 10
77.385333
 20
10.668
 42
0.0
  0
VERTEX
  8
Default
 10
77.385333
 20
11.895667
 42
0.0
  0
VERTEX
  8
Default
 10
75.268667
 20
11.895667
 42
0.0
  0
VERTEX
  8
Default
 10
75.268667
 20
9.779
 42
0.0
  0
VERTEX
  8
Default
 10
76.792667
 20
9.736667
 42
0.0
  0
VERTEX
  8
Default
 10
78.528333
 20
9.694333
 42
0.0
  0
VERTEX
  8
Default
 10
78.994
 20
9.228667
 42
0.0
  0
VERTEX
  8
Default
 10
79.375
 20
9.144
 42
0.0
  0
VERTEX
  8
Default
 10
79.756
 20
9.186333
 42
0.0
  0
VERTEX
  8
Default
 10
80.221667
 20
8.763
 42
0.0
  0
VERTEX
  8
Default
 10
86.36
 20
8.720667
 42
0.0
  0
VERTEX
  8
Default
 10
86.825667
 20
8.255
 42
0.0
  0
VERTEX
  8
Default
 10
87.164333
 20
8.170333
 42
0.0
  0
VERTEX
  8
Default
 10
87.376
 20
8.170333
 42
0.0
  0
VERTEX
  8
Default
 10
87.714667
 20
8.255
 42
0.0
  0
VERTEX
  8
Default
 10
88.222667
 20
8.763
 42
0.0
  0
VERTEX
  8
Default
 10
88.307333
 20
9.144
 42
0.0
  0
VERTEX
  8
Default
 10
88.265
 20
9.482667
 42
0.0
  0
VERTEX
  8
Default
 10
89.662
 20
10.922
 42
0.0
  0
VERTEX
  8
Default
 10
89.704333
 20
15.197667
 42
0.0
  0
VERTEX
  8
Default
 10
89.873667
 20
15.24
 42
0.0
  0
VERTEX
  8
Default
 10
90.254667
 20
15.621
 42
0.0
  0
VERTEX
  8
Default
 10
90.424
 20
16.002
 42
0.0
  0
VERTEX
  8
Default
 10
90.424
 20
16.637
 42
0.0
  0
VERTEX
  8
Default
 10
90.254667
 20
17.018
 42
0.0
  0
VERTEX
  8
Default
 10
89.916
 20
17.356667
 42
0.0
  0
VERTEX
  8
Default
 10
89.535
 20
17.526
 42
0.0
  0
VERTEX
  8
Default
 10
89.027
 20
17.568333
 42
0.0
  0
SEQEND
  0
POLYLINE
  8
Default
 66
     1
 10
0.0
 20
0.0
 30
0.0
 70
     0
  0
VERTEX
  8
Default
 10
109.770333
 20
15.578667
 42
0.0
  0
VERTEX
  8
Default
 10
109.770333
 20
15.578667
 42
0.0
  0
VERTEX
  8
Default
 10
109.516333
 20
15.494
 42
0.0
  0
VERTEX
  8
Default
 10
109.050667
 20
15.028333
 42
0.0
  0
VERTEX
  8
Default
 10
105.918
 20
15.028333
 42
0.0
  0
VERTEX
  8
Default
 10
105.579333
 20
15.324667
 42
0.0
  0
VERTEX
  8
Default
 10
105.240667
 20
15.409333
 42
0.0
  0
VERTEX
  8
Default
 10
105.029
 20
15.409333
 42
0.0
  0
VERTEX
  8
Default
 10
104.690333
 20
15.324667
 42
0.0
  0
VERTEX
  8
Default
 10
104.182333
 20
14.816667
 42
0.0
  0
VERTEX
  8
Default
 10
104.097667
 20
14.478
 42
0.0
  0
VERTEX
  8
Default
 10
104.097667
 20
14.266333
 42
0.0
  0
VERTEX
  8
Default
 10
104.182333
 20
13.927667
 42
0.0
  0
VERTEX
  8
Default
 10
104.648
 20
13.462
 42
0.0
  0
VERTEX
  8
Default
 10
104.648
 20
11.387667
 42
0.0
  0
VERTEX
  8
Default
 10
96.562333
 20
11.345333
 42
0.0
  0
VERTEX
  8
Default
 10
96.308333
 20
11.091333
 42
0.0
  0
VERTEX
  8
Default
 10
96.266
 20
7.789333
 42
0.0
  0
VERTEX
  8
Default
 10
67.225333
 20
7.747
 42
0.0
  0
VERTEX
  8
Default
 10
67.013667
 20
7.577667
 42
0.0
  0
VERTEX
  8
Default
 10
66.251667
 20
6.561667
 42
0.0
  0
VERTEX
  8
Default
 10
65.743667
 20
6.053667
 42
0.0
  0
VERTEX
  8
Default
 10
65.024
 20
6.053667
 42
0.0
  0
VERTEX
  8
Default
 10
64.558333
 20
6.519333
 42
0.0
  0
VERTEX
  8
Default
 10
64.219667
 20
6.604
 42
0.0
  0
VERTEX
  8
Default
 10
64.008
 20
6.604
 42
0.0
  0
VERTEX
  8
Default
 10
63.669333
 20
6.519333
 42
0.0
  0
VERTEX
  8
Default
 10
63.161333
 20
6.011333
 42
0.0
  0
VERTEX
  8
Default
 10
63.076667
 20
5.672667
 42
0.0
  0
VERTEX
  8
Default
 10
63.076667
 20
5.461
 42
0.0
  0
VERTEX
  8
Default
 10
63.161333
 20
5.122333
 42
0.0
  0
VERTEX
  8
Default
 10
63.669333
 20
4.614333
 42
0.0
  0
VERTEX
  8
Default
 10
64.008
 20
4.529667
 42
0.0
  0
VERTEX
  8
Default
 10
64.219667
 20
4.529667
 42
0.0
  0
VERTEX
  8
Default
 10
64.558333
 20
4.614333
 42
0.0
  0
VERTEX
  8
Default
 10
65.024
 20
5.08
 42
0.0
  0
VERTEX
  8
Default
 10
65.743667
 20
5.08
 42
0.0
  0
VERTEX
  8
Default
 10
66.209333
 20
4.614333
 42
0.0
  0
VERTEX
  8
Default
 10
66.548
 20
4.529667
 42
0.0
  0
VERTEX
  8
Default
 10
66.759667
 20
4.529667
 42
0.0
  0
VERTEX
  8
Default
 10
67.098333
 20
4.614333
 42
0.0
  0
VERTEX
  8
Default
 10
67.606333
 20
5.122333
 42
0.0
  0
VERTEX
  8
Default
 10
67.691
 20
5.461
 42
0.0
  0
VERTEX
  8
Default
 10
67.691
 20
5.672667
 42
0.0
  0
VERTEX
  8
Default
 10
67.606333
 20
6.011333
 42
0.0
  0
VERTEX
  8
Default
 10
67.31
 20
6.35
 42
0.0
  0
VERTEX
  8
Default
 10
67.648667
 20
6.815667
 42
0.0
  0
VERTEX
  8
Default
 10
96.943333
 20
6.858
 42
0.0
  0
VERTEX
  8
Default
 10
97.197333
 20
7.112
 42
0.0
  0
VERTEX
  8
Default
 10
97.239667
 20
10.414
 42
0.0
  0
VERTEX
  8
Default
 10
105.325333
 20
10.456333
 42
0.0
  0
VERTEX
  8
Default
 10
105.579333
 20
10.710333
 42
0.0
  0
VERTEX
  8
Default
 10
105.621667
 20
13.462
 42
0.0
  0
VERTEX
  8
Default
 10
106.087333
 20
13.927667
 42
0.0
  0
VERTEX
  8
Default
 10
106.087333
 20
14.054667
 42
0.0
  0
VERTEX
  8
Default
 10
109.050667
 20
14.054667
 42
0.0
  0
VERTEX
  8
Default
 10
109.516333
 20
13.589
 42
0.0
  0
VERTEX
  8
Default
 10
109.855
 20
13.504333
 42
0.0
  0
VERTEX
  8
Default
 10
110.066667
 20
13.504333
 42
0.0
  0
VERTEX
  8
Default
 10
110.405333
 20
13.589
 42
0.0
  0
VERTEX
  8
Default
 10
110.913333
 20
14.097
 42
0.0
  0
VERTEX
  8
Default
 10
110.998
 20
14.435667
 42
0.0
  0
VERTEX
  8
Default
 10
110.998
 20
14.647333
 42
0.0
  0
VERTEX
  8
Default
 10
110.913333
 20
14.986
 42
0.0
  0
VERTEX
  8
Default
 10
110.405333
 20
15.494
 42
0.0
  0
VERTEX
  8
Default
 10
110.066667
 20
15.578667
 42
0.0
  0
VERTEX
  8
Default
 10
109.770333
 20
15.578667
 42
0.0
  0
SEQEND
  0
POLYLINE
  8
Default
 66
     1
 10
0.0
 20
0.0
 30
0.0
 70
     0
  0
VERTEX
  8
Default
 10
61.383333
 20
14.224
 42
0.0
  0
VERTEX
  8
Default
 10
61.383333
 20
14.224
 42
0.0
  0
VERTEX
  8
Default
 10
61.129333
 20
14.139333
 42
0.0
  0
VERTEX
  8
Default
 10
60.621333
 20
13.631333
 42
0.0
  0
VERTEX
  8
Default
 10
60.536667
 20
13.292667
 42
0.0
  0
VERTEX
  8
Default
 10
60.536667
 20
13.081
 42
0.0
  0
VERTEX
  8
Default
 10
60.621333
 20
12.742333
 42
0.0
  0
VERTEX
  8
Default
 10
61.129333
 20
12.234333
 42
0.0
  0
VERTEX
  8
Default
 10
61.468
 20
12.149667
 42
0.0
  0
VERTEX
  8
Default
 10
61.679667
 20
12.149667
 42
0.0
  0
VERTEX
  8
Default
 10
62.018333
 20
12.234333
 42
0.0
  0
VERTEX
  8
Default
 10
62.484
 20
12.7
 42
0.0
  0
VERTEX
  8
Default
 10
63.203667
 20
12.7
 42
0.0
  0
VERTEX
  8
Default
 10
63.669333
 20
12.234333
 42
0.0
  0
VERTEX
  8
Default
 10
64.008
 20
12.149667
 42
0.0
  0
VERTEX
  8
Default
 10
64.219667
 20
12.149667
 42
0.0
  0
VERTEX
  8
Default
 10
64.558333
 20
12.234333
 42
0.0
  0
VERTEX
  8
Default
 10
65.066333
 20
12.742333
 42
0.0
  0
VERTEX
  8
Default
 10
65.151
 20
13.081
 42
0.0
  0
VERTEX
  8
Default
 10
65.151
 20
13.292667
 42
0.0
  0
VERTEX
  8
Default
 10
65.066333
 20
13.631333
 42
0.0
  0
VERTEX
  8
Default
 10
64.558333
 20
14.139333
 42
0.0
  0
VERTEX
  8
Default
 10
64.219667
 20
14.224
 42
0.0
  0
VERTEX
  8
Default
 10
64.008
 20
14.224
 42
0.0
  0
VERTEX
  8
Default
 10
63.669333
 20
14.139333
 42
0.0
  0
VERTEX
  8
Default
 10
63.203667
 20
13.673667
 42
0.0
  0
VERTEX
  8
Default
 10
62.484
 20
13.673667
 42
0.0
  0
VERTEX
  8
Default
 10
62.018333
 20
14.139333
 42
0.0
  0
VERTEX
  8
Default
 10
61.679667
 20
14.224
 42
0.0
  0
VERTEX
  8
Default
 10
61.383333
 20
14.224
 42
0.0
  0
SEQEND
  0
POLYLINE
  8
Default
 66
     1
 10
0.0
 20
0.0
 30
0.0
 70
     0
  0
VERTEX
  8
Default
 10
66.463333
 20
14.224
 42
0.0
  0
VERTEX
  8
Default
 10
66.463333
 20
14.224
 42
0.0
  0
VERTEX
  8
Default
 10
66.209333
 20
14.139333
 42
0.0
  0
VERTEX
  8
Default
 10
65.701333
 20
13.631333
 42
0.0
  0
VERTEX
  8
Default
 10
65.616667
 20
13.292667
 42
0.0
  0
VERTEX
  8
Default
 10
65.616667
 20
13.038667
 42
0.0
  0
VERTEX
  8
Default
 10
65.701333
 20
12.784667
 42
0.0
  0
VERTEX
  8
Default
 10
65.955333
 20
12.446
 42
0.0
  0
VERTEX
  8
Default
 10
65.447333
 20
11.980333
 42
0.0
  0
VERTEX
  8
Default
 10
58.843333
 20
11.938
 42
0.0
  0
VERTEX
  8
Default
 10
58.589333
 20
11.684
 42
0.0
  0
VERTEX
  8
Default
 10
58.547
 20
10.541
 42
0.0
  0
VERTEX
  8
Default
 10
58.166
 20
10.117667
 42
0.0
  0
VERTEX
  8
Default
 10
58.081333
 20
9.779
 42
0.0
  0
VERTEX
  8
Default
 10
58.081333
 20
9.567333
 42
0.0
  0
VERTEX
  8
Default
 10
58.166
 20
9.228667
 42
0.0
  0
VERTEX
  8
Default
 10
58.547
 20
8.805333
 42
0.0
  0
VERTEX
  8
Default
 10
58.547
 20
6.477
 42
0.0
  0
VERTEX
  8
Default
 10
58.081333
 20
6.011333
 42
0.0
  0
VERTEX
  8
Default
 10
57.996667
 20
5.672667
 42
0.0
  0
VERTEX
  8
Default
 10
57.996667
 20
5.461
 42
0.0
  0
VERTEX
  8
Default
 10
58.081333
 20
5.122333
 42
0.0
  0
VERTEX
  8
Default
 10
58.589333
 20
4.614333
 42
0.0
  0
VERTEX
  8
Default
 10
58.928
 20
4.529667
 42
0.0
  0
VERTEX
  8
Default
 10
59.139667
 20
4.529667
 42
0.0
  0
VERTEX
  8
Default
 10
59.478333
 20
4.614333
 42
0.0
  0
VERTEX
  8
Default
 10
59.986333
 20
5.122333
 42
0.0
  0
VERTEX
  8
Default
 10
60.071
 20
5.461
 42
0.0
  0
VERTEX
  8
Default
 10
60.071
 20
5.672667
 42
0.0
  0
VERTEX
  8
Default
 10
59.986333
 20
6.011333
 42
0.0
  0
VERTEX
  8
Default
 10
59.520667
 20
6.477
 42
0.0
  0
VERTEX
  8
Default
 10
59.520667
 20
8.678333
 42
0.0
  0
VERTEX
  8
Default
 10
60.071
 20
9.228667
 42
0.0
  0
VERTEX
  8
Default
 10
60.155667
 20
9.567333
 42
0.0
  0
VERTEX
  8
Default
 10
60.155667
 20
9.779
 42
0.0
  0
VERTEX
  8
Default
 10
60.071
 20
10.117667
 42
0.0
  0
VERTEX
  8
Default
 10
59.520667
 20
10.668
 42
0.0
  0
VERTEX
  8
Default
 10
59.520667
 20
11.006667
 42
0.0
  0
VERTEX
  8
Default
 10
65.828333
 20
11.049
 42
0.0
  0
VERTEX
  8
Default
 10
67.098333
 20
12.276667
 42
0.0
  0
VERTEX
  8
Default
 10
67.521667
 20
12.615333
 42
0.0
  0
VERTEX
  8
Default
 10
67.648667
 20
12.911667
 42
0.0
  0
VERTEX
  8
Default
 10
67.691
 20
13.250333
 42
0.0
  0
VERTEX
  8
Default
 10
67.606333
 20
13.631333
 42
0.0
  0
VERTEX
  8
Default
 10
67.098333
 20
14.139333
 42
0.0
  0
VERTEX
  8
Default
 10
66.759667
 20
14.224
 42
0.0
  0
VERTEX
  8
Default
 10
66.463333
 20
14.224
 42
0.0
  0
SEQEND
  0
POLYLINE
  8
Default
 66
     1
 10
0.0
 20
0.0
 30
0.0
 70
     0
  0
VERTEX
  8
Default
 10
69.003333
 20
14.224
 42
0.0
  0
VERTEX
  8
Default
 10
69.003333
 20
14.224
 42
0.0
  0
VERTEX
  8
Default
 10
68.749333
 20
14.139333
 42
0.0
  0
VERTEX
  8
Default
 10
68.241333
 20
13.631333
 42
0.0
  0
VERTEX
  8
Default
 10
68.156667
 20
13.292667
 42
0.0
  0
VERTEX
  8
Default
 10
68.156667
 20
13.081
 42
0.0
  0
VERTEX
  8
Default
 10
68.241333
 20
12.742333
 42
0.0
  0
VERTEX
  8
Default
 10
68.707
 20
12.276667
 42
0.0
  0
VERTEX
  8
Default
 10
68.707
 20
11.049
 42
0.0
  0
VERTEX
  8
Default
 10
67.860333
 20
10.16
 42
0.0
  0
VERTEX
  8
Default
 10
65.870667
 20
10.16
 42
0.0
  0
VERTEX
  8
Default
 10
65.405
 20
10.625667
 42
0.0
  0
VERTEX
  8
Default
 10
65.066333
 20
10.710333
 42
0.0
  0
VERTEX
  8
Default
 10
64.854667
 20
10.710333
 42
0.0
  0
VERTEX
  8
Default
 10
64.516
 20
10.625667
 42
0.0
  0
VERTEX
  8
Default
 10
64.008
 20
10.117667
 42
0.0
  0
VERTEX
  8
Default
 10
63.923333
 20
9.779
 42
0.0
  0
VERTEX
  8
Default
 10
63.923333
 20
9.567333
 42
0.0
  0
VERTEX
  8
Default
 10
64.008
 20
9.228667
 42
0.0
  0
VERTEX
  8
Default
 10
64.516
 20
8.720667
 42
0.0
  0
VERTEX
  8
Default
 10
64.854667
 20
8.636
 42
0.0
  0
VERTEX
  8
Default
 10
65.066333
 20
8.636
 42
0.0
  0
VERTEX
  8
Default
 10
65.405
 20
8.720667
 42
0.0
  0
VERTEX
  8
Default
 10
65.870667
 20
9.186333
 42
0.0
  0
VERTEX
  8
Default
 10
68.199
 20
9.228667
 42
0.0
  0
VERTEX
  8
Default
 10
69.638333
 20
10.668
 42
0.0
  0
VERTEX
  8
Default
 10
69.680667
 20
12.276667
 42
0.0
  0
VERTEX
  8
Default
 10
70.146333
 20
12.742333
 42
0.0
  0
VERTEX
  8
Default
 10
70.231
 20
13.081
 42
0.0
  0
VERTEX
  8
Default
 10
70.231
 20
13.292667
 42
0.0
  0
VERTEX
  8
Default
 10
70.146333
 20
13.631333
 42
0.0
  0
VERTEX
  8
Default
 10
69.638333
 20
14.139333
 42
0.0
  0
VERTEX
  8
Default
 10
69.299667
 20
14.224
 42
0.0
  0
VERTEX
  8
Default
 10
69.003333
 20
14.224
 42
0.0
  0
SEQEND
  0
POLYLINE
  8
Default
 66
     1
 10
0.0
 20
0.0
 30
0.0
 70
     0
  0
VERTEX
  8
Default
 10
30.734
 20
13.504333
 42
0.0
  0
VERTEX
  8
Default
 10
30.734
 20
13.504333
 42
0.0
  0
VERTEX
  8
Default
 10
30.48
 20
13.419667
 42
0.0
  0
VERTEX
  8
Default
 10
29.972
 20
12.911667
 42
0.0
  0
VERTEX
  8
Default
 10
29.887333
 20
12.573
 42
0.0
  0
VERTEX
  8
Default
 10
29.887333
 20
12.361333
 42
0.0
  0
VERTEX
  8
Default
 10
29.972
 20
12.022667
 42
0.0
  0
VERTEX
  8
Default
 10
30.437667
 20
11.557
 42
0.0
  0
VERTEX
  8
Default
 10
30.48
 20
7.196667
 42
0.0
  0
VERTEX
  8
Default
 10
30.988
 20
6.688667
 42
0.0
  0
VERTEX
  8
Default
 10
44.704
 20
6.646333
 42
0.0
  0
VERTEX
  8
Default
 10
50.8
 20
0.592667
 42
0.0
  0
VERTEX
  8
Default
 10
69.469
 20
0.592667
 42
0.0
  0
VERTEX
  8
Default
 10
69.723
 20
0.846667
 42
0.0
  0
VERTEX
  8
Default
 10
69.765333
 20
4.699
 42
0.0
  0
VERTEX
  8
Default
 10
70.146333
 20
5.122333
 42
0.0
  0
VERTEX
  8
Default
 10
70.231
 20
5.461
 42
0.0
  0
VERTEX
  8
Default
 10
70.231
 20
5.672667
 42
0.0
  0
VERTEX
  8
Default
 10
70.146333
 20
6.011333
 42
0.0
  0
VERTEX
  8
Default
 10
69.638333
 20
6.519333
 42
0.0
  0
VERTEX
  8
Default
 10
69.299667
 20
6.604
 42
0.0
  0
VERTEX
  8
Default
 10
69.088
 20
6.604
 42
0.0
  0
VERTEX
  8
Default
 10
68.749333
 20
6.519333
 42
0.0
  0
VERTEX
  8
Default
 10
68.241333
 20
6.011333
 42
0.0
  0
VERTEX
  8
Default
 10
68.156667
 20
5.672667
 42
0.0
  0
VERTEX
  8
Default
 10
68.156667
 20
5.461
 42
0.0
  0
VERTEX
  8
Default
 10
68.241333
 20
5.122333
 42
0.0
  0
VERTEX
  8
Default
 10
68.791667
 20
4.572
 42
0.0
  0
VERTEX
  8
Default
 10
68.791667
 20
1.524
 42
0.0
  0
VERTEX
  8
Default
 10
51.181
 20
1.524
 42
0.0
  0
VERTEX
  8
Default
 10
45.085
 20
7.577667
 42
0.0
  0
VERTEX
  8
Default
 10
31.411333
 20
7.62
 42
0.0
  0
VERTEX
  8
Default
 10
31.411333
 20
11.557
 42
0.0
  0
VERTEX
  8
Default
 10
31.877
 20
12.022667
 42
0.0
  0
VERTEX
  8
Default
 10
31.961667
 20
12.361333
 42
0.0
  0
VERTEX
  8
Default
 10
31.961667
 20
12.573
 42
0.0
  0
VERTEX
  8
Default
 10
31.877
 20
12.911667
 42
0.0
  0
VERTEX
  8
Default
 10
31.369
 20
13.419667
 42
0.0
  0
VERTEX
  8
Default
 10
31.030333
 20
13.504333
 42
0.0
  0
VERTEX
  8
Default
 10
30.734
 20
13.504333
 42
0.0
  0
SEQEND
  0
POLYLINE
  8
Default
 66
     1
 10
0.0
 20
0.0
 30
0.0
 70
     0
  0
VERTEX
  8
Default
 10
103.505
 20
10.202333
 42
0.0
  0
VERTEX
  8
Default
 10
103.505
 20
10.202333
 42
0.0
  0
VERTEX
  8
Default
 10
103.251
 20
10.117667
 42
0.0
  0
VERTEX
  8
Default
 10
102.743
 20
9.609667
 42
0.0
  0
VERTEX
  8
Default
 10
102.658333
 20
9.271
 42
0.0
  0
VERTEX
  8
Default
 10
102.658333
 20
9.059333
 42
0.0
  0
VERTEX
  8
Default
 10
102.743
 20
8.720667
 42
0.0
  0
VERTEX
  8
Default
 10
103.208667
 20
8.255
 42
0.0
  0
VERTEX
  8
Default
 10
103.208667
 20
6.477
 42
0.0
  0
VERTEX
  8
Default
 10
102.743
 20
6.053667
 42
0.0
  0
VERTEX
  8
Default
 10
72.644
 20
6.053667
 42
0.0
  0
VERTEX
  8
Default
 10
72.178333
 20
6.519333
 42
0.0
  0
VERTEX
  8
Default
 10
71.839667
 20
6.604
 42
0.0
  0
VERTEX
  8
Default
 10
71.628
 20
6.604
 42
0.0
  0
VERTEX
  8
Default
 10
71.289333
 20
6.519333
 42
0.0
  0
VERTEX
  8
Default
 10
70.781333
 20
6.011333
 42
0.0
  0
VERTEX
  8
Default
 10
70.696667
 20
5.672667
 42
0.0
  0
VERTEX
  8
Default
 10
70.696667
 20
5.461
 42
0.0
  0
VERTEX
  8
Default
 10
70.781333
 20
5.122333
 42
0.0
  0
VERTEX
  8
Default
 10
71.247
 20
4.656667
 42
0.0
  0
VERTEX
  8
Default
 10
71.247
 20
3.767667
 42
0.0
  0
VERTEX
  8
Default
 10
71.12
 20
3.767667
 42
0.0
  0
VERTEX
  8
Default
 10
70.612
 20
3.259667
 42
0.0
  0
VERTEX
  8
Default
 10
70.527333
 20
2.921
 42
0.0
  0
VERTEX
  8
Default
 10
70.527333
 20
2.709333
 42
0.0
  0
VERTEX
  8
Default
 10
70.612
 20
2.370667
 42
0.0
  0
VERTEX
  8
Default
 10
71.12
 20
1.862667
 42
0.0
  0
VERTEX
  8
Default
 10
71.458667
 20
1.778
 42
0.0
  0
VERTEX
  8
Default
 10
71.670333
 20
1.778
 42
0.0
  0
VERTEX
  8
Default
 10
72.009
 20
1.862667
 42
0.0
  0
VERTEX
  8
Default
 10
72.517
 20
2.370667
 42
0.0
  0
VERTEX
  8
Default
 10
72.601667
 20
2.709333
 42
0.0
  0
VERTEX
  8
Default
 10
72.601667
 20
2.921
 42
0.0
  0
VERTEX
  8
Default
 10
72.517
 20
3.259667
 42
0.0
  0
VERTEX
  8
Default
 10
72.220667
 20
3.598333
 42
0.0
  0
VERTEX
  8
Default
 10
72.220667
 20
4.656667
 42
0.0
  0
VERTEX
  8
Default
 10
72.644
 20
5.08
 42
0.0
  0
VERTEX
  8
Default
 10
103.124
 20
5.122333
 42
0.0
  0
VERTEX
  8
Default
 10
104.14
 20
6.138333
 42
0.0
  0
VERTEX
  8
Default
 10
104.182333
 20
8.255
 42
0.0
  0
VERTEX
  8
Default
 10
104.648
 20
8.720667
 42
0.0
  0
VERTEX
  8
Default
 10
104.732667
 20
9.059333
 42
0.0
  0
VERTEX
  8
Default
 10
104.732667
 20
9.271
 42
0.0
  0
VERTEX
  8
Default
 10
104.648
 20
9.609667
 42
0.0
  0
VERTEX
  8
Default
 10
104.14
 20
10.117667
 42
0.0
  0
VERTEX
  8
Default
 10
103.801333
 20
10.202333
 42
0.0
  0
VERTEX
  8
Default
 10
103.505
 20
10.202333
 42
0.0
  0
SEQEND
  0
POLYLINE
  8
Default
 66
     1
 10
0.0
 20
0.0
 30
0.0
 70
     0
  0
VERTEX
  8
Default
 10
49.53
 20
7.577667
 42
0.0
  0
VERTEX
  8
Default
 10
49.53
 20
7.577667
 42
0.0
  0
VERTEX
  8
Default
 10
49.276
 20
7.493
 42
0.0
  0
VERTEX
  8
Default
 10
48.768
 20
6.985
 42
0.0
  0
VERTEX
  8
Default
 10
48.683333
 20
6.646333
 42
0.0
  0
VERTEX
  8
Default
 10
48.683333
 20
6.434667
 42
0.0
  0
VERTEX
  8
Default
 10
48.768
 20
6.096
 42
0.0
  0
VERTEX
  8
Default
 10
49.276
 20
5.588
 42
0.0
  0
VERTEX
  8
Default
 10
49.614667
 20
5.503333
 42
0.0
  0
VERTEX
  8
Default
 10
49.826333
 20
5.503333
 42
0.0
  0
VERTEX
  8
Default
 10
50.165
 20
5.588
 42
0.0
  0
VERTEX
  8
Default
 10
50.673
 20
6.096
 42
0.0
  0
VERTEX
  8
Default
 10
50.757667
 20
6.434667
 42
0.0
  0
VERTEX
  8
Default
 10
50.757667
 20
6.646333
 42
0.0
  0
VERTEX
  8
Default
 10
50.673
 20
6.985
 42
0.0
  0
VERTEX
  8
Default
 10
50.165
 20
7.493
 42
0.0
  0
VERTEX
  8
Default
 10
49.826333
 20
7.577667
 42
0.0
  0
VERTEX
  8
Default
 10
49.53
 20
7.577667
 42
0.0
  0
SEQEND
  0
POLYLINE
  8
Default
 66
     1
 10
0.0
 20
0.0
 30
0.0
 70
     0
  0
VERTEX
  8
Default
 10
61.383333
 20
6.604
 42
0.0
  0
VERTEX
  8
Default
 10
61.383333
 20
6.604
 42
0.0
  0
VERTEX
  8
Default
 10
61.129333
 20
6.519333
 42
0.0
  0
VERTEX
  8
Default
 10
60.621333
 20
6.011333
 42
0.0
  0
VERTEX
  8
Default
 10
60.536667
 20
5.672667
 42
0.0
  0
VERTEX
  8
Default
 10
60.536667
 20
5.461
 42
0.0
  0
VERTEX
  8
Default
 10
60.621333
 20
5.122333
 42
0.0
  0
VERTEX
  8
Default
 10
61.087
 20
4.656667
 42
0.0
  0
VERTEX
  8
Default
 10
61.087
 20
3.683
 42
0.0
  0
VERTEX
  8
Default
 10
60.706
 20
3.259667
 42
0.0
  0
VERTEX
  8
Default
 10
60.621333
 20
2.921
 42
0.0
  0
VERTEX
  8
Default
 10
60.621333
 20
2.709333
 42
0.0
  0
VERTEX
  8
Default
 10
60.706
 20
2.370667
 42
0.0
  0
VERTEX
  8
Default
 10
61.214
 20
1.862667
 42
0.0
  0
VERTEX
  8
Default
 10
61.552667
 20
1.778
 42
0.0
  0
VERTEX
  8
Default
 10
61.764333
 20
1.778
 42
0.0
  0
VERTEX
  8
Default
 10
62.103
 20
1.862667
 42
0.0
  0
VERTEX
  8
Default
 10
62.611
 20
2.370667
 42
0.0
  0
VERTEX
  8
Default
 10
62.695667
 20
2.709333
 42
0.0
  0
VERTEX
  8
Default
 10
62.695667
 20
2.921
 42
0.0
  0
VERTEX
  8
Default
 10
62.611
 20
3.259667
 42
0.0
  0
VERTEX
  8
Default
 10
62.060667
 20
3.81
 42
0.0
  0
VERTEX
  8
Default
 10
62.060667
 20
4.656667
 42
0.0
  0
VERTEX
  8
Default
 10
62.526333
 20
5.122333
 42
0.0
  0
VERTEX
  8
Default
 10
62.611
 20
5.461
 42
0.0
  0
VERTEX
  8
Default
 10
62.611
 20
5.672667
 42
0.0
  0
VERTEX
  8
Default
 10
62.526333
 20
6.011333
 42
0.0
  0
VERTEX
  8
Default
 10
62.018333
 20
6.519333
 42
0.0
  0
VERTEX
  8
Default
 10
61.679667
 20
6.604
 42
0.0
  0
VERTEX
  8
Default
 10
61.383333
 20
6.604
 42
0.0
  0
SEQEND
  0
ENDSEC
  0
EOF
